<svg xmlns="http://www.w3.org/2000/svg" width="100" height="100"><path d="M34.686 99.971h-13.257v-33.6c0-2.26 0-2.244-2.349-2.238-5.766.01-11.534.009-17.303.006-.481 0-.961-.041-1.776-.08 3.831-6.653 7.548-13.108 11.413-19.822h-4.579c2.847-4.948 5.52-9.599 8.337-14.501h-3.554c5.794-10.031 11.411-19.753 17.179-29.736 5.765 9.974 11.37 19.673 17.097 29.578l-2.954.154c2.763 4.811 5.438 9.46 8.248 14.349l-3.966.174c3.82 6.642 7.532 13.094 11.382 19.785-.893.042-1.469.089-2.045.091-6.54.007-13.077.007-19.611.004-2.258 0-2.26-.002-2.26 2.178v31.393l-.002 2.265zm7.869 0c2.158-8.796 4.227-17.563 6.404-26.136.42-1.656.482-3.197-.015-4.808-.229-.742-.359-1.516-.535-2.273l.497-.142.922 2.523.873-2.374.498.125-.789 3.871h40.579l-.776-3.951.412-.152.901 2.092.911-2.287.59.174c-.443 1.416-.847 2.849-1.348 4.244-.246.678-.831 1.25-1 1.937-2.141 8.586-4.244 18.554-6.32 27.157h-1.621c-13.012-.035-26.023.004-39.034 0-.316.002-.631.065-1.149 0zm50.254-29.1c2.383 9.563 4.768 19.383 7.191 29.1h-14.098c2.193-9.641 4.375-19.49 6.558-29.081l.349-.019z" fill="#806D60"/></svg>