<svg xmlns="http://www.w3.org/2000/svg" width="60" height="32"><path fill="#fff" d="M60 21.92l-2.08-.91c-2.162-.947-4.238-1.34-5.83-1.354l-24.188-.236-1.105-.008-2.252-1.781c-3.756-2.631-.672-1.756-7.455-6.918-.4-.303-.55-.414-.553-.553-.004-.141.132-.215.291-.279l.066-.025.006-.004c1.33-.506 2.256-1.18 2.674-2.65.83-2.92-1.48-6.027-4.151-6.883-2.697-.865-6.229.008-7.06 2.93-.238.84-.267 1.818-.032 2.627l-.007-.01s.144 1.791.29 1.914l.374.313c.049.043.341.053.429.08.288.092.646.512.995.725 1.684 1.018 3.426.977 4.925 2.203 4.696 3.84 5.234 6.686 5.954 8.875-1.082.752-2.25 1.752-4.094 2.373-1.156.39-2.248.59-3.45.726-.847.096-1.791.151-2.851.157-1.955.009-3.271-1.106-5.231-1.371-.407-.055-.931.037-1.214-.071-.086-.033-.309-.181-.375-.183l-.494-.017c-.193-.008-1.5 1.307-1.5 1.307l.012-.004c-.707.479-1.363 1.248-1.726 2.045-1.262 2.771.917 5.685 3.573 6.66 2.598.955 6.36.25 7.621-2.521.635-1.392.421-2.688-.275-3.906h.001l-.003-.006-.035-.063c-.082-.146-.137-.289-.043-.395.094-.105.279-.098.787-.082.939.025 1.74.035 2.429.029.898-.004 1.75-.035 2.646-.121 3.051-.297 2.965-.938 6.332-.74l1.855.023.827.603 3.838 3.081h5.414c-1.979-2-3.897-3.212-5.624-4.667 9.762-.018 25.1-.239 30.289-.913zm-47.602-13.436c-1.85-.994-3.574-3.781-2.458-5.82 1.118-2.041 4.165-1.717 6.015-.723 1.849.995 3.531 3.688 2.414 5.73-1.117 2.042-4.121 1.805-5.971.813zm-1.421 19.428c-.538 2.254-3.62 3.191-5.681 2.742-2.06-.447-4.568-2.176-4.029-4.428.538-2.257 3.713-3.232 5.772-2.783 2.06.452 4.476 2.215 3.938 4.469zm14.413-6.682c.236-.397.721-.571 1.154-.438l-.97 1.64c-.333-.303-.422-.799-.184-1.202zm1.718.975c-.237.4-.722.574-1.155.439l.971-1.64c.333.303.421.801.184 1.201z"/></svg>