<svg xmlns="http://www.w3.org/2000/svg"><defs><font horiz-adv-x="1685"><font-face units-per-em="2048" ascent="1649" descent="-399"/><glyph unicode="ﬁ" horiz-adv-x="1320" d="M963 1238q-10 32-6 61 1 4 5 24-88 25-187 0-67-19-108-50-46-35-70-86t-33-120l-3-26h651l-103-838q23-4 62-11l14-2 13.5-2 8.5-1q11-1 15-3 50-11 44-64l-15-120h-420l25 203 21 171 12 99 48 388h-393v-1l-22-183v-1l-77-633q-14-112-51-186-39-79-105-128-67-50-161-74-95-24-220-24v132q0 78 81 78 42 0 76 12 36 12 61 35 25 22 44 65 17 39 25 97l76 627 1 2 8 63h-1l15 118-90 15q-28 4-45 20-15 14-12 43l12 103h157l4 34q12 97 54 179 42 83 114 143 71 59 174 94t237 35q24 0 37-1 4 0 9-1h7q10-1 21-2t13-1q39-5 66-12 107-24 179-81 12-9 19-19 19-24 26-46 9-31 5-64-4-32-21-61t-41-50q-25-22-56-35-30-13-65-13t-61 13q-25 13-46 35-19 20-28 50z"/><glyph unicode="ﬂ" horiz-adv-x="1374" d="M544 861l-22-184v-1l-77-633q-14-112-51-186-39-79-105-128-67-50-161-74-95-24-220-24v132q0 78 81 78 44 0 76 11 34 12 61 36 25 22 44 65 17 39 25 97l76 627 1 2 8 63h-1l15 118-90 15q-28 4-44 20-16 15-13 43l12 103h157l6 44q11 86 46 161 34 76 96 135 62 61 149 95 85 35 202 35 93 0 176-6 82-6 166-6h142l-145-1182q-4-35-1-68 5-29 17-45 16-18 40-25t62-7q39 0 51-6 13-5 13-27l-9-136q-33-11-64-15-28-4-67-4-94 0-154 25-59 27-94 72-35 49-45 106-10 58-1 129l124 1010h-194q-117 0-183-62-70-65-83-180l-5-43h250l-22-180h-245z"/><glyph horiz-adv-x="0"/><glyph horiz-adv-x="180"/><glyph horiz-adv-x="180"/><glyph horiz-adv-x="180"/><glyph horiz-adv-x="473"/><glyph horiz-adv-x="473"/><glyph horiz-adv-x="473"/><glyph unicode="!" horiz-adv-x="529" d="M487 1481l-72-586q-11-87-32-183-13-59-48-190h-171q-3 90-1 190 2 94 13 183l72 586h239zm-443-1342q5 32 20 61t38 49q24 21 54 33t63 12q32 0 59-12t45-33 27-49q9-30 5-61t-20-61q-12-23-39-48-22-21-53-33-27-11-62-11t-60 11q-29 13-46 33t-26 48q-9 29-5 61z"/><glyph unicode=""" horiz-adv-x="739" d="M314 1481l-36-295-44-160q-12-46-34-69-22-24-65-24-38 0-56 24-19 25-19 69l-3 160 37 295h220zm377 0l-37-295-43-160q-12-46-34-69-23-24-65-24-38 0-56 24-19 25-19 69l-3 160 36 295h221z"/><glyph unicode="#" horiz-adv-x="1277" d="M846 418l-131-418h-115q-30 0-50 25t-16 60q0 4 2 10l3 9 99 314h-210l-100-326q-15-50-50-70-38-22-76-22h-111l129 418h-118q-33 0-48 16-15 17-11 52 2 17 7 33l23 81h195l88 283h-219l32 105q12 38 39 58 26 19 82 19h114l104 330q14 42 45 63 34 23 73 23h115l-129-416h209l130 416h112q37 0 56-21 20-22 16-52-1-10-3-15l-104-328h208l-32-106q-11-37-39-57-26-19-82-19h-103l-86-283h145q33 0 48-16t10-54q-2-16-7-32l-22-80h-222zm-370 182h210l87 283h-209z"/><glyph unicode="$" horiz-adv-x="1223" d="M417-9q-119 17-216 65-99 50-164 122l92 116q13 17 30 25 20 10 37 10 23 0 46-16 9-6 28-19.5t26-18.5q36-25 69-43 37-20 95-31l96 458q-61 18-138 49-66 27-119 73-50 44-78 115-27 68-13 174 9 77 50 152t107 133 158 96q94 39 205 43l27 129q5 24 26 44 22 20 50 20h94l-43-202q105-18 180-62t125-99l-73-93q-15-19-32-31-14-10-36-10-13 0-35 10-20 9-46 23-25 13-56 28-32 15-70 24l-88-424q66-21 140-50 71-28 122-70 52-43 80-107t16-160q-12-98-53-179t-111-147q-67-63-163-104-94-40-210-48l-30-151q-4-23-26-43t-51-20h-93zm448 434q5 39-6 68-12 32-32 52-23 23-54 39-27 14-70 29l-86-415q110 15 173 73t75 154zm-416 670q-4-38 5-69 9-29 31-53 21-22 52-41 24-14 68-32l78 379q-57-7-99-24-40-16-71-42-29-25-44-54-16-32-20-64z"/><glyph unicode="%" horiz-adv-x="1629" d="M786 1122q-10-82-47-151-35-66-89-115-53-49-119-74-65-25-133-25-74 0-133 25t-99 74q-39 48-57 115-18 66-7 151 11 87 45 156 36 72 85 118 52 49 117 74 67 26 140 26 72 0 133-26 59-25 100-74 42-49 58-118 17-70 6-156zm-196 0q7 58 1 100-6 39-23 64-17 24-43 35-27 11-56 11t-59-11q-26-10-50-35t-38-64q-16-43-23-100-7-55-1-95 6-39 22-62t42-34q24-10 56-10t59 10q31 11 52 34t38 62q15 36 23 95zm728 319q12 14 34 27 21 13 52 13h184l-1277-1443q-16-17-35-27-22-11-47-11h-188zm209-1093q-10-82-47-151-35-66-90-116-52-47-118-73-67-26-134-26-72 0-133 26-59 25-98 73-40 50-58 116t-7 151q11 87 45 156 35 70 86 118 52 49 117 74 67 26 139 26 73 0 134-26 59-25 100-74 40-48 57-118 17-72 7-156zm-195 0q7 59 0 99-8 43-23 65-17 24-43 35-27 11-57 11-28 0-58-11-26-10-50-35-20-22-38-65-17-41-24-99-7-52 0-96 6-40 22-63 15-22 41-33 27-11 57-11 29 0 59 11 31 11 51 33 23 24 39 63t24 96z"/><glyph unicode="&" horiz-adv-x="1436" d="M792 1497q87 0 157-28 69-28 113-73 44-46 67-106 22-59 19-123l-164-33q-2-1-7-1h-7q-18 0-30 9t-18 30q-6 27-18 51-13 26-29 42-19 19-45 29-28 11-62 11-43 0-79-15-35-15-62-40-26-24-43-59-17-33-21-70-4-24 0-59 3-30 13-57 10-26 31-59 25-39 48-65l344-409q40 61 71 136 28 67 44 146 4 22 20 38 14 14 39 14h158q-18-137-70-258-51-121-137-226l271-322h-248q-14 0-34 2-14 1-27 8-16 8-24 15-11 10-22 23l-90 106q-109-80-234-125-126-45-266-45-85 0-164 29-80 29-136 84-58 57-88 134-30 78-18 177 9 68 39 130t77 115q46 54 106 97 57 41 130 73-44 75-61 150t-8 146q9 75 46 146 35 67 97 120 61 52 142 82t180 30zm-488-1069q-7-54 7-101 13-45 44-77 30-32 72-48 43-17 93-17 89 0 168 29 77 28 145 78l-340 399q-88-52-134-120t-55-143z"/><glyph unicode="'" horiz-adv-x="362" d="M314 1481l-36-295-44-160q-12-46-34-69-22-24-65-24-38 0-56 24-19 25-19 69l-3 160 37 295h220z"/><glyph unicode="(" horiz-adv-x="624" d="M274 642q-25-211 0-415 25-201 100-383 4-9 6-24 2-12 0-21-3-21-14-33-12-14-27-21l-121-69q-61 115-100 235-38 117-58 237-18 113-20 243-1 112 15 251 15 125 47 251 33 129 79 244 47 117 116 237 66 114 158 234l104-68q13-7 22-21 10-15 7-32-3-20-19-46-117-180-193-384-77-204-102-415z"/><glyph unicode=")" horiz-adv-x="626" d="M351 642q25 211 0 415-25 201-99 384-10 26-7 46t14 32q12 13 27 21l121 68q60-114 100-234 38-114 58-237t20-244q0-123-15-251-15-125-47-251t-79-243q-45-112-116-237-65-114-158-235l-104 69q-13 7-22 21-10 14-7 33 1 9 6 21 5 14 12 24 118 180 194 383 77 204 102 415z"/><glyph unicode="*" horiz-adv-x="785" d="M290 857l23 187q4 25 7 40 4 17 14 37-8-9-30-25-8-6-36-23l-173-94-48 102 174 95q13 8 39 18 17 7 39 10-17 1-36 10-17 8-34 20l-151 95 71 103 151-97q25-18 31-23 16-13 24-26-5 20-5 37 0 26 2 40l23 189h121l-23-187q-2-17-8-41-4-19-14-38 11 12 30 26 2 2 37 23l173 95 48-103-174-93q-17-11-39-19t-39-11q35-6 70-28l151-96-71-102-152 95q-28 21-31 23-17 15-24 25 10-35 4-75l-23-189h-121z"/><glyph unicode="+" horiz-adv-x="1114" d="M723 1201l-52-420h399l-23-187h-399l-52-422h-204l51 422h-396l23 187h396l52 420h205z"/><glyph unicode="," horiz-adv-x="447" d="M88 156q3 26 17 53 13 24 36 44t50 30q30 11 62 11 38 0 66-14 26-13 43-38 16-23 22-55 6-30 1-66-6-50-27-104t-57-108q-38-57-84-106-49-52-107-94l-40 40q-16 15-13 38 2 9 8 18 10 14 16 19 9 8 31 30 19 18 38 41 18 21 36 50 16 26 27 58-31 0-57 12-25 12-41 32-17 21-24 48-8 27-3 61z"/><glyph unicode="-" horiz-adv-x="677" d="M86 724h531l-26-211h-531z"/><glyph unicode="." horiz-adv-x="431" d="M59 139q5 34 19 61 15 28 39 49 25 22 53 33 30 12 63 12 32 0 59-12t45-33 27-49q9-30 5-61t-20-61q-12-23-39-48-22-21-53-33-27-11-62-11t-60 11q-27 12-45 33-19 22-27 48-9 27-4 61z"/><glyph unicode="/" horiz-adv-x="1113" d="M293-3q-11-23-28-41-13-14-37-29-19-12-41-18-21-6-41-6h-106l786 1530q23 44 58 66 37 23 82 23h107z"/><glyph unicode="0" horiz-adv-x="1199" d="M1142 740q-24-195-82-336-58-140-144-236-85-94-190-139t-221-45-209 45-155 139q-59 90-84 236-24 142 0 336 24 196 82 337 58 142 143 236 86 95 188 139 105 45 221 45 115 0 210-45 94-45 156-139 61-92 85-236 24-142 0-337zm-261 0q20 161 9 267-10 105-42 168-30 61-80 87-47 25-103 25-55 0-108-25-56-27-101-87-46-62-82-168t-56-267q-20-165-10-266 10-105 42-168 31-61 79-87 47-25 102-25 56 0 109 25 58 27 102 87 47 64 83 168 37 107 56 266z"/><glyph unicode="1" horiz-adv-x="919" d="M841 170q41-9 35-52l-15-118h-819l15 118q4 43 47 52 35 5 262 22l105 861q7 57 16 105l-235-178q-13-10-29-15-13-4-27-4-22 0-37 8-14 8-22 20l-67 110 499 384h208l-159-1293q200-16 223-20z"/><glyph unicode="2" horiz-adv-x="1213" d="M1108 222l-27-222h-1039l10 84q3 22 18 53 14 28 40 51l505 451q59 53 114 110 56 58 88 103 37 52 59 104 21 49 29 111 6 55-4 94-11 43-35 68-26 28-63 41-39 14-87 14-92 0-156-46-66-47-98-124-17-40-40-56-25-17-60-17-15 0-33 3l-130 24q29 107 82 187 52 78 127 134 72 54 161 81 88 27 187 27 103 0 184-30 80-30 135-86 54-56 78-133 24-78 12-173-11-86-42-151-36-74-81-134-44-57-110-122-86-82-129-121l-375-341q47 14 99 22 45 7 91 7h327q16 77 20 92 14 38 52 38h109z"/><glyph unicode="3" horiz-adv-x="1173" d="M726 1497q101 0 182-29 75-27 131-81 51-49 74-121 23-71 13-151-9-72-31-124-21-51-58-94-34-40-82-68-50-29-104-46 127-42 183-128 56-85 39-216-13-108-65-195-49-83-128-143-76-58-172-88-93-29-198-29-113 0-191 25-79 25-136 76-52 47-89 123-32 67-53 168l117 46q30 12 60 12 28 0 46-11 20-12 29-33 15-41 31-71 17-33 45-61 27-27 67-44t97-17q64 0 115 21 54 22 87 54 38 37 58 76 22 44 26 83 6 53 0 97t-38 74q-31 30-97 48-64 18-177 18l22 180q98 2 157 17 60 16 103 46 38 27 59 70 20 42 26 90 13 105-38 159t-150 54q-90 0-155-48-66-49-98-122-17-39-41-56-25-17-58-17-17 0-35 3l-130 24q29 107 82 187 52 78 127 134 72 54 161 81t187 27z"/><glyph unicode="4" horiz-adv-x="1216" d="M986 558h186l-18-146q-3-21-18-36t-40-15h-134l-45-361h-221l44 361h-624q-26 0-43 16-19 17-20 40l-10 128 816 937h240zm-162 484q2 15 11 71 6 35 17 79l-538-634h451z"/><glyph unicode="5" horiz-adv-x="1182" d="M1126 1373q-6-53-45-88-38-34-118-34h-408l-91-309q104 21 186 21 116 0 201-35 83-34 137-97 52-61 73-143 21-83 9-178-15-120-68-215-55-99-135-166-83-70-188-107-106-38-224-38-75 0-131 14-64 16-112 38t-95 56q-39 28-75 66l91 107q29 35 70 35 27 0 50-16 30-21 56-36 32-19 77-36 42-16 109-16 72 0 126 22 55 22 96 63 39 39 65 96 25 55 33 122 15 121-47 189t-198 68q-107 0-221-39l-152 45 211 719h731z"/><glyph unicode="6" horiz-adv-x="1131" d="M697 925q81 0 160-28 75-26 130-83 52-53 80-139 27-82 13-194-12-103-62-194t-126-158-178-106-218-39q-118 0-209 38-89 37-148 105-56 65-81 164t-10 213q13 104 69 214 55 109 160 229l411 474q21 24 59 42 37 18 84 18h225l-505-538q-22-24-31-33t-29-31q44 21 97 33 55 13 109 13zm-411-460q-7-61 3-112 10-49 40-87 29-36 76-56 48-20 111-20 60 0 113 21 59 24 95 57 39 37 67 87 26 48 34 108 7 63-6 114-14 51-44 86-31 36-80 54-48 18-108 18-63 0-112-20-52-21-92-57-38-34-65-86-24-47-32-107z"/><glyph unicode="7" horiz-adv-x="1176" d="M109 1481h1024l-13-110q-6-49-21-79-20-40-27-51l-702-1155q-22-35-57-61-34-25-89-25h-183l712 1132q45 69 95 119h-597q-23-107-29-128-14-38-52-38h-109l27 220v5z"/><glyph unicode="8" horiz-adv-x="1155" d="M506-16q-114 0-206 30t-152 87q-61 58-88 137t-15 178q17 132 91 221 76 91 218 135-103 45-147 128t-29 200q11 86 53 156 44 72 112 127 67 53 157 84 88 30 191 30t185-30q79-29 136-84 55-53 81-127 25-72 15-156-15-118-79-200-65-83-178-128 129-43 184-135 54-91 38-221-12-95-60-178-47-81-121-137-76-58-173-87-99-30-213-30zm24 197q62 0 112 18 48 17 85 50 34 30 58 76 22 42 28 95 15 121-45 184t-179 63-194-63-90-184q-6-50 5-95t39-76q29-32 74-50t107-18zm84 684q60 0 106 20t74 51 45 74q14 36 21 86 5 47-3 80-9 38-32 67-22 27-62 46-39 18-95 18t-99-18q-45-19-74-46-29-28-48-67t-23-80q-6-44 0-86 6-39 28-74 19-30 61-51 40-20 101-20z"/><glyph unicode="9" horiz-adv-x="1095" d="M408 591q-79 0-147 26-71 27-122 81-50 53-76 133-25 79-12 186 12 101 59 186 49 89 122 153 74 65 173 103t210 38q115 0 200-36 89-38 143-100 57-66 79-155 23-92 10-197-9-71-28-130-20-63-48-119-27-53-66-110-40-58-82-108l-399-484q-22-26-56-41-37-17-81-17h-232l530 574q26 28 38 42 33 39 35 41-54-32-119-49t-131-17zm399 443q7 59-5 108-12 48-42 81-29 32-74 50-42 17-100 17-59 0-106-19-53-22-85-52-37-35-59-81t-30-102q-15-124 41-189t173-65q61 0 112 20t87 53q37 34 59 80 23 48 29 99z"/><glyph unicode=":" horiz-adv-x="498" d="M49 139q5 32 20 61t38 49q24 21 54 33t63 12q32 0 59-12t45-33 27-49q9-30 5-61t-20-61q-12-23-39-48-22-21-53-33-28-11-62-11-35 0-60 11-27 12-45 33-19 22-27 48-9 29-5 61zm90 730q5 34 19 61 15 28 39 49t54 33 63 12q32 0 59-12t45-33q17-19 26-49t5-61q-5-34-19-61-12-23-39-48-20-19-53-32-30-12-62-12-33 0-60 12-30 13-46 32-19 22-27 48-9 27-4 61z"/><glyph unicode=";" horiz-adv-x="515" d="M76 156q2 24 18 53 13 25 35 44 23 19 51 30 30 11 62 11 38 0 66-14 26-13 43-38 16-23 22-55 6-30 1-66-6-50-27-104t-57-108q-38-57-84-106-47-49-108-94l-39 40q-17 15-14 38 2 9 8 18 10 14 16 19 18 16 32 30 18 18 38 41 18 21 36 50 16 26 27 58-32 0-57 12t-41 32q-16 21-24 48-8 30-4 61zm81 713q5 34 19 61 15 28 39 49t54 33 62 12 59-12q29-13 46-33 17-19 26-49t5-61-20-61q-13-25-38-48-19-18-54-32-30-12-61-12-33 0-60 12-30 13-46 32-19 22-27 48-9 27-4 61z"/><glyph unicode="<" horiz-adv-x="973" d="M62 741l863 423-22-180q-3-20-15-37t-38-29l-395-191q-27-13-52-21-18-6-58-16 34-9 54-16 23-8 47-21l348-191q24-13 31-29 8-17 5-38l-22-180-759 424z"/><glyph unicode="=" horiz-adv-x="1081" d="M76 602h908l-23-188h-908zm45 361h907l-23-188h-907z"/><glyph unicode=">" horiz-adv-x="971" d="M47 215l22 180q3 22 15 38 13 18 37 29l396 191q45 21 110 37-34 9-54 16-23 8-47 21l-349 191q-22 12-30 29t-5 37l22 180 759-423-13-102z"/><glyph unicode="?" horiz-adv-x="855" d="M43 1347q48 37 83 58 45 27 96 48 48 20 108 32 58 12 124 12 88 0 159-24 67-23 117-71 46-44 67-110t11-144q-9-78-39-135t-69-99q-38-41-83-72-16-11-43.5-30.5t-39.5-27.5q-30-21-68-53-30-25-39-59l-42-150h-173l3 167v9l1 9q6 46 32 78 29 35 64 62 48 36 80 57 44 28 80 60 42 37 66 73 26 39 34 97 4 38-6 66-11 31-32 50-21 20-55 32-30 11-73 11-63 0-100-12-46-15-72-29-48-26-52-29-20-13-36-13-37 0-49 31zm45-1208q5 34 19 61 15 28 39 49t54 33 63 12q32 0 59-12t45-33 27-49q9-30 5-61t-20-61q-12-23-39-48-22-21-53-33-27-11-62-11t-60 11q-29 13-46 33t-26 48q-9 29-5 61z"/><glyph unicode="@" horiz-adv-x="1669" d="M1126 188q-69 0-120 33t-63 106q-71-75-141-106-73-32-150-32-63 0-109 23-44 22-72 62-28 41-37 93t-1 117q8 63 29 119 21 57 59 115 38 59 87 105 54 51 115 85 65 36 142 57 78 21 169 21 78 0 134-12 51-11 104-35l-145-380q-24-66-30-109-4-28 1-52 4-19 17-32t29-17q20-5 39-5 43 0 85 27 44 28 77 76 35 49 60 117 24 63 35 148 16 130-13 234-28 102-95 170-66 68-165 102-98 34-222 34-137 0-256-50-120-50-216-139-95-87-158-208-62-119-79-258-21-165 16-295 36-128 117-213 82-86 198-129 117-43 262-43 79 0 148 9 80 10 129 23 65 17 109 34 48 19 89 41 21 11 36 11 29 0 38-33l24-91q-120-72-263-114-149-44-330-44-185 0-336 59t-252 167-148 266q-46 155-22 352 13 106 55 213 40 103 104 194 61 87 146 166 81 75 180 130 102 56 205 85 108 30 224 30 145 0 273-48 124-47 219-140 92-90 137-221 45-132 26-294-13-107-58-206-43-94-110-166-66-70-150-111-85-41-176-41zm-403 164q24 0 54 8 26 7 56 30 27 21 52 55 23 32 44 87l110 289q-31 6-67 6-64 0-122-27-56-26-105-75-44-44-77-108-32-62-39-127-7-66 16-101 25-37 78-37z"/><glyph unicode="A" d="M1608 157q38-16 34-52l-13-105h-500l13 105q4 35 47 52 20 8 43 17l-5 22-49 201h-590l-103-210-6-13 18-8 14-6 7-3q38-16 34-52l-13-105h-500l13 105q4 35 47 52 14 5 118 47l658 1277h282l344-1277q99-44 107-47zm-701 893l-224-458h448l-112 460q-9 31-18 77-11 55-17 97-30-74-40-98-18-42-37-78z"/><glyph unicode="B" horiz-adv-x="1423" d="M1081 765q296-69 264-330-12-95-57-174-44-78-121-138-72-56-180-90-105-33-234-33h-714l15 120q6 53 59 64 5 2 13 3 2 0 7 1t11 2 13 2 27.5 4.5 34.5 6.5l132 1075q-13 3-33 6t-26 4-12 2.5-11.5 2.5-6.5 1q-2 0-6.5.5t-6.5 1.5q-49 10-43 64l15 121h666q142 0 245-28 97-27 159-79 59-50 82-124 21-67 10-164-6-50-27-99-20-45-59-89-37-42-91-76-50-32-125-57zm-456 503l-52-428h220q139 0 219 51 79 51 93 163 14 116-46 165-59 49-198 49h-236zm424-914q19 39 25 87 6 47-5 87-10 38-40 65t-79 42q-46 14-122 14h-279l-53-434h279q77 0 131 18 51 17 89 50 34 30 54 71z"/><glyph unicode="C" horiz-adv-x="1390" d="M1188 1013q-40 0-43 38-1 21 2 162-164 50-276 50-103 0-197-37-90-35-163-104-74-69-119-164-47-99-62-218-15-127 8-222 24-99 76-164 53-66 130-102 76-35 172-35 56 0 102 6 44 6 87 20 38 13 76 34 39 22 75 52 14 11 23 15 10 5 26 5 22 0 36-17l94-118q-104-112-242-171-137-59-323-59-168 0-290 56-126 58-206 157t-113 239q-33 139-12 304 21 168 93 306 71 137 185 239 113 101 259 156 148 56 315 56 184 0 452-107l-47-377h-118z"/><glyph unicode="D" horiz-adv-x="1626" d="M1560 1039q37-136 18-299-19-160-91-299-69-133-182-234-112-100-255-153-146-54-313-54h-698l15 120q6 53 59 64 5 2 13 3 2 0 7 1t11 2 13 2 27.5 4.5 34.5 6.5l132 1075q-13 3-33 6t-26 4-12 2.5-11.5 2.5-6.5 1q-2 0-6.5.5t-6.5 1.5q-49 10-43 64l15 121h698q168 0 299-55 130-55 218-153 86-97 124-234zm-324-517q45 98 60 218 15 122-6 219t-73 164-134 103q-83 36-191 36h-266l-128-1043h266q108 0 200 36 90 35 159 103 68 67 113 164z"/><glyph unicode="E" horiz-adv-x="1347" d="M376 1481h934l-18-143-9-76-21-170h-118q-40 0-43 38-2 30 1 132h-476l-50-411h501l-26-212h-501l-51-419h475q23 102 32 132 14 38 52 38h118l-21-170-9-76-18-144h-1089l15 120q6 53 59 64 5 2 13 3 2 0 7 1t11 2 13 2 27.5 4.5 34.5 6.5l132 1075q-13 3-33 6t-26 4-12 2.5-11.5 2.5-6.5 1q-2 0-6.5.5t-6.5 1.5q-49 10-43 64l15 121h155z"/><glyph unicode="F" horiz-adv-x="1399" d="M1310 1481h51l-17-143-6-48-24-198h-118q-40 0-43 38-2 30 1 132h-528l-53-439h516l-27-220h-516l-50-400q13-3 33-6.5t27-4.5q8-2 18-3.5t11-1.5q10-2 13-3 49-10 43-64l-14-120h-588l15 120q6 53 59 64 5 2 13 3 2 0 7 1t11 2 13 2 27.5 4.5 34.5 6.5l132 1075q-13 3-33 6t-26 4-12 2.5-11.5 2.5-6.5 1q-10 2-13 2-49 10-43 64l15 121h1089z"/><glyph unicode="G" horiz-adv-x="1460" d="M865 742h493l-74-599q-64-42-126-71-63-29-136-49-72-20-151-30-79-9-172-9-164 0-291 56-130 57-216 157-87 101-126 239-39 139-18 304 21 170 92 307 72 140 183 239 112 100 262 156 145 54 312 55h14q238 0 511-105l-47-379h-117q-40 0-43 38-1 20 2 160-145 51-344 51-114 0-203-36-95-38-164-106-71-70-116-165-45-96-60-215-16-132 7-227 24-99 80-169 55-68 141-105 84-36 190-36 91 0 164 17 76 18 138 46l33 270h-186q-27 0-40 14-14 16-11 37z"/><glyph unicode="H" horiz-adv-x="1818" d="M1706 1296q-1 0-3-.5t-5-1-5-.5q-6-1-31-6-7-1-27.5-4t-34.5-6l-132-1075q13-3 32.5-6.5t26.5-4.5q8-2 18.5-3.5t11.5-1.5q10-2 13-3 49-10 43-64l-15-120h-587l15 120q6 53 59 64 5 2 13 3 2 0 7 1t11 2 13 2 27.5 4.5 34.5 6.5l54 444h-694l-55-444q13-3 33-6.5t27-4.5q8-2 18-3.5t11-1.5q10-2 13-3 49-10 43-64l-15-120h-587l15 120q6 53 59 64 5 2 13 3 2 0 7 1t11 2 13 2 27.5 4.5 34.5 6.5l132 1075q-13 3-33 6t-26 4-12 2.5-11.5 2.5-6.5 1q-10 2-13 2-49 10-43 64l15 121h587l-14-121q-6-53-60-64-1 0-3-.5t-5-1-5-.5q-6-1-31-6-7-1-27.5-4t-34.5-6l-53-434h694l54 434q-13 3-33 6t-26 4-12 2.5-11.5 2.5-6.5 1q-2 0-6.5.5t-6.5 1.5q-49 10-43 64l15 121h587l-15-121q-6-53-59-64z"/><glyph unicode="I" horiz-adv-x="845" d="M734 1296q-1 0-2.5-.5t-3-.5-4-.5-4.5-.5q-6-1-31-6-7-1-27.5-4t-34.5-6l-132-1075q13-3 33-6.5t27-4.5q8-2 18-3.5t11-1.5q10-2 13-3 49-10 43-64l-14-120h-587l15 120q6 53 59 64 5 2 13 3 2 0 7 1t11 2 13 2 27.5 4.5 34.5 6.5l132 1075q-13 3-33 6t-26 4-12 2.5-11.5 2.5-6.5 1q-10 2-13 2-49 10-43 64l15 121h586l-14-121q-6-53-59-64z"/><glyph unicode="J" horiz-adv-x="1119" d="M926 1481h155l-15-121q-6-53-59-64-1 0-3-.5t-5-1-5-.5q-6-1-31-6-7-1-27.5-4t-34.5-6l-92-752q-15-123-59-225-44-101-112-171t-166-108q-97-38-216-38-56 0-108 6t-109 21l34 164q5 23 22 37 16 13 45 13 20 0 45-7t70-7q57 0 105 17t82 54q37 40 58 95 21 54 32 143l93 758q-15 3-37.5 6t-26.5 4q-30 5-39 6l-17 2q-50 11-44 64l15 121h450z"/><glyph unicode="K" horiz-adv-x="1635" d="M1439 184q49-10 43-64l-15-120h-574l15 120q6 53 59 64 4 1 17 3 2 0 28 5l-263 409q-15 25-41 38-24 12-72 12h-87l-55-448q13-3 32.5-6.5t26.5-4.5q8-2 18.5-3.5t11.5-1.5q10-2 13-3 49-10 43-64l-15-120h-585l15 120q6 53 59 64 5 2 13 3 2 0 7 1t11 2 13 2 27.5 4.5 34.5 6.5l132 1076q-13 3-33 6t-26 4-12 2.5-11.5 2.5-6.5 1q-2 0-6.5.5t-6.5 1.5q-49 10-43 64l15 121h585l-14-121q-6-53-60-64-1 0-3-.5t-5-1-5-.5q-6-1-31-6-7-1-27-4t-34-6l-52-419h65q37 0 65 11 29 11 49 34l352 386q-8 2-13 3-2 0-6.5.5t-6.5 1.5q-49 10-43 64l14 121h546l-14-121q-6-53-60-64l-16-2q-2 0-15-2t-23-3q-7-1-62-10l-386-414q-27-29-51-48-25-20-50-32 35-13 57-34 25-23 46-58l304-491q51-9 59-10 9-1 21-3t15-2q13-2 17-3z"/><glyph unicode="L" horiz-adv-x="1196" d="M1046 354h109l-26-207-4-39-14-108h-1072l15 120q6 53 59 64 5 2 13 3 2 0 7 1t11 2 13 2 27.5 4.5 34.5 6.5l132 1075q-13 3-33 6t-26 4-12 2.5-11.5 2.5-6.5 1q-10 2-13 2-49 10-43 64l15 121h585l-15-121q-6-53-59-64-1 0-3-.5t-5-1-5-.5q-6-1-31-6-10-2-62-10l-129-1051h477q18 87 19 89 14 38 53 38z"/><glyph unicode="M" horiz-adv-x="2174" d="M2063 1296q-1 0-3-.5t-5-1-5-.5q-12-2-32-6-7-1-27-4t-34-6l-132-1075q13-3 32.5-6.5t26.5-4.5q8-2 18.5-3.5t11.5-1.5q8-1 12-3 50-11 44-64l-15-120h-583l15 120q6 53 59 64l136 19 92 753q3 28 9 59 8 42 13 64l-551-839q-21-30-45-45-26-16-60-16h-38q-33 0-55 16t-34 45l-351 842q0-44-2-66-4-42-6-60l-92-753q128-18 131-19 49-10 43-64l-15-120h-582l15 120q6 53 59 64 5 2 13 3 2 0 7 1t11 2 13 2 27.5 4.5 34.5 6.5l132 1075q-13 3-33 6t-26 4-12 2.5-11.5 2.5-6.5 1q-10 2-13 2-49 10-43 64l15 121h363q22 0 31-1 17-2 24-5 10-4 18-14 10-12 15-24l341-823q13-32 24-68 4-13 10.5-37t9.5-34q7 13 39 73 13 24 41 68l539 821q12 17 20 24 13 11 21 14t25 5q9 1 32 1h363l-15-121q-6-53-59-64z"/><glyph unicode="N" horiz-adv-x="1818" d="M1625 1481h155l-15-121q-6-53-59-64-1 0-3-.5t-5-1-5-.5q-6-1-31-6-7-1-27.5-4t-34.5-6l-157-1278h-142q-34 0-53 10-22 11-38 37l-653 986q-3-64-3-65-2-27-6-59l-86-706q130-19 131-19 49-10 43-64l-15-120h-582l15 120q6 53 59 64 5 2 13 3 2 0 7 1t11 2 13 2 27.5 4.5 34.5 6.5l132 1075q-13 3-33 6t-26 4-12 2.5-11.5 2.5-6.5 1q-2 0-6.5.5t-6.5 1.5q-49 10-43 64l15 121h299q15 0 31-2 12-1 21-6 11-5 17-13 15-18 18-23l656-991q0 36 3 71 3 31 6 64l86 697q-36 5-69 9.5t-47 6.5-16 2q-49 10-43 64l15 121h427z"/><glyph unicode="O" horiz-adv-x="1598" d="M1549 740q-19-162-91-301-71-138-182-240t-256-159q-143-56-313-56t-300 56-218 159q-87 102-124 240-37 136-17 301 19 163 91 302 71 137 183 240 109 100 257 158 146 57 313 57 170 0 300-57 131-57 217-158 85-100 123-240 37-137 17-302zm-282 0q15 122-6 219-21 99-72 164-53 68-135 104t-190 36-200-36q-91-36-161-104t-114-164q-44-95-59-219t5-218q21-95 74-164 52-67 135-103 82-36 192-36 108 0 199 36 92 36 160 103 69 67 112 164 46 103 60 218z"/><glyph unicode="P" horiz-adv-x="1394" d="M1340 1199q22-86 10-190-13-107-60-197-47-91-126-155-78-64-192-100-112-36-256-36h-183l-39-318q13-3 32.5-6.5t26.5-4.5q8-2 18.5-3.5t11.5-1.5q10-2 13-3 49-10 43-64l-15-120h-585l15 120q6 53 59 64 5 2 13 3 2 0 7 1t11 2 13 2 27.5 4.5 34.5 6.5l132 1075q-13 3-33 6t-26 4-12 2.5-11.5 2.5-6.5 1q-10 2-13 2-49 10-43 64l15 121h613q146 0 253-35 104-34 167-97 64-64 86-150zm-297-304q25 52 32 114 7 58-5 107-12 47-45 82-32 34-87 52-54 18-130 18h-183l-65-532h183q77 0 134 19 63 21 100 54 44 39 66 86z"/><glyph unicode="Q" horiz-adv-x="1597" d="M1549 740q-12-98-44-190-32-91-79-169-45-75-112-145-63-66-140-116l325-410h-227q-48 0-87 14-38 14-66 49l-188 239q-44-12-109-21-52-7-115-7-170 0-300 56t-218 159q-87 102-124 240-37 136-17 301 19 163 91 302 71 137 183 240 109 100 257 158 146 57 313 57 170 0 300-57 131-57 217-158 85-100 123-240 37-137 17-302zm-282 0q15 122-6 219-21 99-72 164-53 68-135 104t-190 36-200-36q-91-36-161-104t-114-164q-44-95-59-219t5-218q21-95 74-164 52-67 135-103 82-36 192-36 108 0 199 36 92 36 160 103 69 67 112 164 46 103 60 218z"/><glyph unicode="R" horiz-adv-x="1421" d="M1335 184q50-11 44-64l-15-120h-276q-37 0-59 14-25 16-38 41l-253 474q-12 25-34 38-20 12-60 12h-103l-47-376q13-3 32.5-6.5t26.5-4.5q8-2 18.5-3.5t11.5-1.5q10-2 13-3 49-10 43-64l-15-120h-585l15 120q6 53 59 64 5 2 13 3 2 0 7 1t11 2 13 2 27.5 4.5 34.5 6.5l132 1075q-13 3-33 6t-26 4-12 2.5-11.5 2.5-6.5 1q-2 0-6.5.5t-6.5 1.5q-49 10-43 64l15 121h592q151 0 256-32 107-33 166-87 63-58 85-135 23-79 11-172-9-76-39-142-29-64-79-120-51-57-114-96-68-41-147-65 49-31 80-85l191-344q14-3 35.5-6.5t26.5-4.5l35-5q10-1 15-3zm-475 612q62 20 102 53 41 34 66 82 23 45 31 103 14 114-53 173-69 61-219 61h-162l-60-492h157q76 0 138 20z"/><glyph unicode="S" horiz-adv-x="1180" d="M1048 620q22-67 10-156-12-99-58-188t-119-153q-74-65-173-102t-223-37h-31q-198 0-415 78l4 37 43 344h118q40 0 43-38 1-28-3-169 86-27 277-27 116 0 189 56 70 54 84 160 7 56-18 95-23 36-69 62-43 24-105 43-100 30-120 37-55 19-119 50-59 29-100 74-42 46-63 116-21 69-9 170 11 83 52 158 41 76 111 136 67 58 164 95 94 36 210 36 218 0 415-84l-47-379h-118q-40 0-43 38-1 22 2 166-75 35-233 35-57 0-102-14-44-14-76-38-34-26-51-59-20-38-24-76-6-53 19-87 26-36 70-59 47-25 104-44 58-20 120-42 63-23 119-51 60-29 101-73 43-46 64-110z"/><glyph unicode="T" horiz-adv-x="1349" d="M1279 1481h32l-43-351h-118q-40 0-43 39-1 18 0 85h-302l-129-1051q13-3 32.5-6.5t26.5-4.5q8-2 18.5-3.5t11.5-1.5q10-2 13-3 49-10 43-64l-15-120h-585l15 120q6 53 59 64 5 2 13 3 2 0 7 1t11 2 13 2 27.5 4.5 34.5 6.5l129 1051h-302q-15-66-21-85-14-39-52-39h-118l43 351h1199z"/><glyph unicode="U" horiz-adv-x="1632" d="M1439 1481h156l-15-121q-6-53-59-64-1 0-2.5-.5t-3-.5-4-.5-4.5-.5q-6-1-31-6-7-1-27.5-4t-34.5-6l-84-684q-17-135-72-244-58-115-146-194-93-83-209-127-120-45-262-45t-250 45-178 127-98 194-12 244l84 684q-13 3-33 6t-26 4-12 2.5-11.5 2.5-6.5 1q-2 0-6.5.5t-6.5 1.5q-49 10-43 64l14 121h595l-15-121q-6-53-59-64-1 0-3.5-.5t-5.5-1-6-.5q-10-2-36-6-7-1-64-10l-84-683q-10-84 5-154 16-72 51-117 38-48 97-75 60-27 139-27 81 0 147 27 65 27 115 75 50 49 81 116 32 69 42 154l84 684q-14 3-34.5 6t-26.5 4q-22 4-35 6-3 0-6 .5t-5.5 1-3.5.5q-49 10-43 64l15 121h439z"/><glyph unicode="V" horiz-adv-x="1682" d="M1573 1481h70l-14-121q-6-53-60-64-2-1-6.5-1.5t-6.5-.5l-30-5q-35-7-60-11l-673-1278h-249l-359 1278q-25 4-57 11-8 2-18 3.5t-11 1.5q-2 0-6.5.5t-6.5 1.5q-49 10-43 64l15 121h553l-15-121q-6-53-59-64-1 0-2-.5t-3.5-1-4.5-.5-9-2-13-3q-10-2-34-8l201-766q14-51 22-97 7-41 16-111 38 120 84 208l388 765-32 8q-10 3-22 6-8 2-9 2-50 11-44 64l15 121h483z"/><glyph unicode="W" horiz-adv-x="2354" d="M2246 1481h70l-15-121q-6-53-59-64-1 0-3.5-.5t-8-1.5-11.5-2-25.5-4.5-33.5-5.5l-556-1282h-249l-199 1012q-2 7-4.5 22t-3.5 20q-3 16-7 48-9-26-18-48-11-24-18-42l-451-1012h-249l-240 1282q-23 5-58 10-17 4-22 4-49 10-43 64l14 121h554l-15-121q-6-53-59-64-1 0-11-2-4-1-23-6-6-2-19-4.5t-18-3.5l121-748q6-43 8-71 4-48 5-81 13 42 28 81 13 33 30 71l399 886q10 23 38 43t61 20h81q35 0 57-17t28-46l180-886q15-66 21-145 16 52 24 77 10 31 24 68l304 746q-28 7-83 18-49 10-43 64l15 121h483z"/><glyph unicode="X" horiz-adv-x="1758" d="M1530 184q50-11 44-64l-15-120h-628l14 120q6 53 59 64 19 4 39.5 8t22.5 5l-201 417q-8-16-12-23-2-4-13-20l-276-368q48-12 83-19 49-10 43-64l-15-120h-635l15 120q6 53 59 64 29 5 157 19l430 559-275 516q-140 15-156 18-49 10-43 64l14 121h637l-15-121q-6-53-59-64-13-3-29-6t-25.5-5-14.5-3l187-378q2 5 8 14.5t7 11.5q8 14 17 26l245 323q-31 8-76 17-49 10-43 64l15 121h625l-15-121q-6-53-59-64-20-3-158-18l-403-505 292-570q123-13 153-19z"/><glyph unicode="Y" horiz-adv-x="1517" d="M1445 1481h34l-15-121q-6-53-59-64-1 0-3-.5t-5-1-5-.5q-6-1-31-6-10-2-62-10l-504-703-45-372q13-3 32.5-6.5t26.5-4.5q8-2 18-3.5t11-1.5q10-2 13-3 49-10 43-64l-14-120h-586l15 120q6 53 59 64 5 2 13 3 2 0 7 1t11 2 13 2 27.5 4.5 34.5 6.5l46 372-333 703q-13 3-33 6t-26 4q-14 3-29 6-10 2-13 2-49 10-43 64l15 121h553l-15-121q-6-53-59-64-2 0-10-2-1 0-4.5-1t-7.5-2l-8-2q-2-1-13-3.5t-17-3.5l152-357q20-49 31-84 16-52 22-77 12 26 40 78 24 43 51 83l238 357q-7 2-29 7-5 1-12 3l-7 2q-8 2-9 2-49 10-43 64l15 121h519z"/><glyph unicode="Z" horiz-adv-x="1402" d="M1315 1293l-892-1073h594q35 140 35 141 14 39 52 39h109l-22-180-27-220h-1125l13 109q3 19 12 39 7 16 23 35l894 1079h-564q-33-139-36-146-14-39-53-39h-109l50 404h1095l-12-102q-6-48-37-86z"/><glyph unicode="[" horiz-adv-x="728" d="M37-315l233 1899h420l-12-99q-3-25-25-46-20-19-51-19h-141l-193-1572h141q32 0 47-18 16-19 13-46l-12-99h-420z"/><glyph unicode="\" horiz-adv-x="718" d="M43 1522h109q44 0 75-23t43-66l409-1530h-107q-40 0-75 23t-47 71z"/><glyph unicode="]" horiz-adv-x="729" d="M37-315l12 99q3 25 25 46 19 18 51 18h141l193 1572h-141q-31 0-47 19t-13 46l12 99h420l-233-1899h-420z"/><glyph unicode="^" horiz-adv-x="1020" d="M976 796h-185q-23 0-37 12-15 13-22 30l-126 296q-18 43-22 54-10 29-14 52-16-36-26-53t-34-53l-196-296q-12-19-28-30-16-12-43-12h-195l466 685h164z"/><glyph unicode="_" horiz-adv-x="987" d="M905-137l-20-164h-807l20 164h807z"/><glyph unicode="`" horiz-adv-x="557" d="M295 1497q41 0 60-14 20-15 31-40l115-249h-144q-28 0-46 8-17 8-33 28l-220 267h237z"/><glyph unicode="a" horiz-adv-x="1062" d="M976 187q49-10 43-65l-15-120h-261q-45 0-64 22t-19 54l9 143q-68-107-157-171-87-63-191-63-63 0-112 23-52 24-90 70-37 44-60 117-22 69-22 164 0 99 23 184 25 91 67 167 43 78 105 144 63 67 138 113 80 48 165 73 90 26 187 26 75 0 142-10 73-11 140-37l-103-822 1 1q22-4 52-9 5-1 10.5-2t8-1.5 3.5-.5zm-278 381l40 318q-27 3-51 3-86 0-158-39-75-40-126-105-52-63-83-154-30-87-30-185 0-109 35-161 35-51 95-51 42 0 82 28 41 29 77 80 37 53 66 119 33 75 53 147z"/><glyph unicode="b" horiz-adv-x="1120" d="M1068 762q16-99 0-228-15-117-59-219-43-98-112-174-67-73-156-115-86-41-192-41-227 0-508 57l40 330 117 947q-14 3-34.5 6t-26.5 4q-26 5-34 6-3 0-6 .5t-5.5 1-3.5.5q-49 10-43 64l15 121h416l-74-600q73 68 154 106 84 39 189 39 87 0 153-35t110-103q43-67 60-167zm-298-387q27 71 37 159 12 89 4 156-7 63-30 104-22 40-59 58-38 18-88 18-79 0-139-33-57-31-115-94l-67-546q103-20 201-20 56 0 106 22t87 65q37 44 63 111z"/><glyph unicode="c" horiz-adv-x="982" d="M823 249l61-92q-48-50-101-83-54-34-108-53-60-21-113-28-61-8-113-8-97 0-178 36t-137 106q-55 69-81 170t-9 230q13 112 60 215 45 100 118 171 74 73 174 113 102 41 224 41 130 0 322-76l-40-323h-118q-40 0-43 38-1 19 2 148-80 20-131 20-68 0-120-24-53-24-92-69t-63-109q-23-63-34-145-10-83 0-149 11-67 38-110 29-46 73-68 46-23 106-23 61 0 100 15 38 15 67 33 27 18 48 33 20 14 45 14 32 0 43-23z"/><glyph unicode="d" horiz-adv-x="1172" d="M1107 125l-15-121h-298q-25 0-40 11-16 12-19 35l-8 98q-75-75-160-118-89-45-199-45-86 0-153 36-66 35-110 103-42 65-59 168-16 100 0 229 15 119 58 218 43 98 112 174 68 74 157 116 86 41 192 41 89 0 147-27t102-75l43 351q-13 3-33 6t-26 4-12 2.5-11.5 2.5-6.5 1q-2 0-6 .5t-6 1.5q-50 11-44 64l15 121h408l-161-1317q32-6 51-9 4-1 26-5 2 0 6-.5t6-1.5q50-11 44-64zm-373 186l58 471q-36 53-85 75-48 21-106 21-55 0-107-22-49-21-87-65-37-43-63-112-27-72-37-158-12-89-4-156 8-66 29-104 22-40 60-58 40-19 88-19 76 0 138 34 61 34 116 93z"/><glyph unicode="e" horiz-adv-x="966" d="M928 807q0-72-28-129-28-58-101-105-70-45-197-79t-317-53v-13q0-248 210-248 45 0 79 9 37 10 61 21 23 11 47 28 21 15 39 27t36 21 38 9q12 0 24-6 14-7 21-17l64-77q-58-58-106-95t-107-65q-55-26-115-38t-132-12q-93 0-167 31-77 32-128 88-54 57-82 137-29 82-29 180 0 83 18 163 18 81 52 151 37 78 82 132 51 62 112 105 63 45 136 68 77 25 159 25 83 0 145-24t103-61 62-83q21-47 21-90zm-345 82q-53 0-96-21-42-20-79-59-34-35-61-91-29-59-42-115 132 19 204 38 78 21 120 45 43 25 57 52 13 26 13 60 0 14-6 31-5 14-21 30-11 11-36 21-22 9-53 9z"/><glyph unicode="f" horiz-adv-x="927" d="M765 1506q75 0 133-19l-21-127q-6-30-32-37-25-7-60-7-42 0-82-10-36-9-64-34-27-24-45-63-17-37-25-98l-8-70h273l-22-180h-268v-1l-22-183v-1l-77-633q-14-112-51-186-39-79-105-128-67-50-161-74-95-24-220-24v132q0 78 81 78 42 0 76 12 36 12 61 35 25 22 44 65 17 39 25 97l76 627 1 2 8 63h-1l15 118-89 15q-29 5-46 20-15 14-12 43l12 103h157l10 78q10 89 47 162 37 74 92 122 58 51 133 77 74 26 167 26z"/><glyph unicode="g" horiz-adv-x="1186" d="M988 749q0-49-10-85-11-40-25-69-18-38-32-60-18-29-33-57-16-30-25-62-10-37-10-71 0-43 17-77 19-39 38-72 18-32 38-79 18-42 18-98 0-75-35-147-34-70-101-123-70-56-159-84-98-31-213-31-95 0-175 20-74 19-132 56-55 35-84 85-29 49-29 107 0 85 44 146 43 59 114 96 67 35 156 52 84 16 172 16 28 0 82-4 40-3 76-9-4 13-7 32-2 11-2 35 0 61 32 131-37-25-88-41-46-14-118-14-61 0-114 19t-94 60q-42 42-65 100-24 60-24 139 0 78 28 150 29 74 85 132 55 56 140 92 84 35 192 35 57 0 111-14 56-14 97-40h294l-11-82q-5-25-16-42-12-18-35-24l-107-28q6-28 8-43t2-47zm-255-751q0 19-1 28-1 5-2.5 13.5t-1.5 12.5q-63 10-102 14-41 4-87 4-71 0-120-12-54-13-82-29-31-17-47-43-15-24-15-53 0-61 50-93 49-31 151-31 62 0 105 14 46 15 80 40 33 24 53 60 19 34 19 75zm-165 497q46 0 81 21t59 56q24 34 36 79 13 47 13 88 0 77-36 118t-105 41q-45 0-80-20t-59-53q-23-31-35-76-12-43-12-90 0-79 35-121 36-43 103-43z"/><glyph unicode="h" horiz-adv-x="1166" d="M1080 184q49-10 43-64l-15-120h-408l83 669q12 95-27 149-37 52-127 52-67 0-126-29-63-31-119-81l-62-507-31-253h-253l25 203 12 101 18 148 107 867q-13 3-33 6t-26 4-12 2.5-11.5 2.5-6.5 1q-2 0-6.5.5t-6.5 1.5q-49 10-43 64l15 121h408l-72-585q68 57 147 94 78 36 177 36 85 0 149-29 63-28 101-82 39-54 52-126 13-73 3-161l-57-466q13-3 32.5-6.5t26.5-4.5q8-2 18.5-3.5t11.5-1.5q10-2 13-3z"/><glyph unicode="i" horiz-adv-x="578" d="M460 184q49-10 43-64l-14-120h-408l25 203 79 645q-13 3-33.5 6t-26.5 4q-14 3-29 6-2 0-6.5.5t-6.5 1.5q-49 10-43 64l14 121h408l-104-848q13-3 33-6.5t27-4.5q8-2 18-3.5t11-1.5q10-2 13-3zm78 1173q-5-34-21-62-17-29-41-50-22-20-56-34-30-13-65-13t-61 13q-27 13-46 34-19 20-28 50-10 32-6 62 4 33 21 63 16 29 41 51 27 23 54 35 30 13 64 13 35 0 62-13 26-12 47-35 20-22 29-51 10-33 6-63z"/><glyph unicode="j" horiz-adv-x="785" d="M741 1420q9-31 5-63-5-34-21-62-17-29-41-50-22-20-56-34-30-13-65-13t-61 13q-27 13-46 34-19 20-28 50-10 32-6 62 4 33 21 63 16 29 41 51 26 22 55 35t63 13q35 0 62-13 26-12 47-35 22-23 30-51zm-323-369h253l-134-1087q-9-71-34-129-27-63-70-106-46-46-112-71-71-27-160-27-33 0-66 5-30 4-60 15l25 136q6 20 19 26 14 6 52 6 40 0 65 7t45 25q16 15 28 45 10 27 15 68l109 884q-49 8-59 10-6 1-12 2.5t-11.5 2.5-6.5 1q-2 0-6.5.5t-6.5 1.5q-49 10-43 64l15 121h155z"/><glyph unicode="k" horiz-adv-x="1152" d="M1111 1051h1l-14-121q-6-53-60-64-6-2-18-3l-40-5q-16-2-58-8l-178-189q-22-24-41-40-18-15-44-31 21-17 34-36 18-28 27-44l173-307q13-2 35.5-5.5t28.5-4.5q25-4 43-6 14-2 19-3 50-11 44-64l-15-120h-269q-30 0-49 10-18 10-32 35l-219 398q-12 23-27 31-14 7-45 7h-57l-9-70v1l-51-412h-252l56 453 106 866q-13 3-33 6t-26 4-12 2.5-11.5 2.5-6.5 1q-2 0-6.5.5t-6.5 1.5q-49 10-43 64l15 121h408l-107-872h47q27 0 41 7t34 27l167 179q-14 3-17 3-49 10-43 64l15 121h251l-1-2q16 2 22 2h224z"/><glyph unicode="l" horiz-adv-x="514" d="M417 184q50-11 44-64l-15-120h-408l25 203 30 250 33 265 74 601q-13 3-33 6t-26 4-12 2.5-11.5 2.5-6.5 1q-2 0-6.5.5t-6.5 1.5q-49 10-43 64l15 121h408l-162-1319q30-5 59-11 8-2 18.5-3.5t11.5-1.5q7-1 12-3z"/><glyph unicode="m" horiz-adv-x="1771" d="M1684 184q49-10 43-64l-15-120h-408l82 669q12 101-25 151t-123 50q-41 0-74-13-36-14-63-38t-47-63q-19-36-25-87l-25-200-18-152-14-114-25-203h-254l82 669q13 103-24 153-36 48-119 48-54 0-105-27t-98-74l-50-406-44-363h-253l52 423 52 425q-13 3-33.5 6t-26.5 4q-14 3-29 6-2 0-6.5.5t-6.5 1.5q-49 10-43 64l14 121h310q50 0 59-46l7-78q32 31 65 56t70 44q38 19 77 29 42 11 88 11 99 0 156-54 58-55 79-143 33 55 72 90 41 37 88 61 43 22 98 35 47 11 102 11 86 0 151-27 64-27 104-77t55-125q15-74 3-169l-57-466q13-3 32.5-6.5t26.5-4.5q8-2 18.5-3.5t11.5-1.5q10-2 13-3z"/><glyph unicode="n" horiz-adv-x="1211" d="M1124 184q49-10 43-64l-15-120h-408l82 669q12 96-26 149-37 52-127 52-68 0-127-29-60-29-118-81l-41-334-6-49-22-174-24-203h-253l37 306 67 542q-13 3-33.5 6t-26.5 4q-14 3-29 6-2 0-6.5.5t-6.5 1.5q-49 10-43 64l14 121h310q50 0 59-46l7-83q32 29 75 59 39 27 80 46 42 20 88 30 44 10 100 10 85 0 149-29 63-28 101-82 39-54 52-126 13-73 3-161l-57-466q13-3 32.5-6.5t26.5-4.5q8-2 18.5-3.5t11.5-1.5q10-2 13-3z"/><glyph unicode="o" horiz-adv-x="1132" d="M631 1067q116 0 209-38 91-37 150-107 60-71 84-170 24-100 9-225-15-126-64-225-49-100-126-171t-177-108q-102-38-218-38t-209 38q-91 37-151 108-59 70-85 171-24 96-9 225 15 123 65 225 50 101 126 170 77 69 178 107 102 38 218 38zm-109-888q132 0 205 88 74 89 95 258 21 171-31 259-53 89-184 89-133 0-207-89t-95-259q-21-169 31-257 53-89 186-89z"/><glyph unicode="p" horiz-adv-x="1316" d="M1265 762q16-100 0-228-15-120-58-219-43-98-112-174-66-72-157-115-86-41-192-41-88 0-147 27t-102 75l-28-227q13-3 32.5-6.5t26.5-4.5q8-2 18.5-3.5t11.5-1.5l12-3q50-11 44-64l-15-120h-563l15 120q6 53 59 64 5 2 13 3 2 0 7 1t11 2 13 2 27.5 4.5 34.5 6.5l121 988q-13 3-33 6t-26 4l-30 6q-2 0-6 .5t-6 1.5q-50 11-44 64l15 121h310q23 0 40-12 16-12 19-34l8-98q75 75 160 118 89 45 199 45 85 0 153-36 65-35 110-104 42-65 59-168zm-298-387q27 71 37 159 12 89 4 156-8 66-29 104-22 40-60 58t-88 18q-78 0-138-33-59-33-116-94l-58-471q35-52 85-74 48-21 107-21 54 0 106 22 49 21 87 65t63 111z"/><glyph unicode="q" horiz-adv-x="1122" d="M1041-160q49-10 43-64l-15-120h-571l15 120q6 53 59 64 5 2 13 3 2 0 7 1t11 2 13 2 27.5 4.5 34.5 6.5l34 273q-73-68-154-106-84-39-190-39-86 0-152 35-68 36-111 103-42 65-59 167-16 99 0 228 15 119 58 218 43 98 112 174 68 74 157 116 86 41 192 41 228 0 508-57l-41-330-101-823q15-3 36-6.5t25-4.5q3-1 34-5 10-1 15-3zm-423 377q61 34 116 93l67 547q-103 20-202 20-56 0-106-22-47-20-86-66-37-43-63-111-27-72-37-158-12-89-4-156 8-66 29-104 22-40 60-58 40-19 88-19 76 0 138 34z"/><glyph unicode="r" horiz-adv-x="918" d="M754 1070q78 0 124-36l-56-189q-6-19-16-26-11-8-29-8-17 0-41 7t-70 7q-79 0-140-43t-111-128l-45-365-35-289h-253l25 203 14 120 9 72 56 453q-27 5-49 8.5t-29 5-13 2.5-11 2q-49 10-43 64l14 121h304q39 0 53-15 12-14 14-49v-127q69 97 151 154 81 56 177 56z"/><glyph unicode="s" horiz-adv-x="900" d="M820 441q16-45 9-108-9-75-45-140-36-64-95-111-58-46-140-72-83-26-183-26-187 0-326 56l13 103 23 195h118q40 0 43-39 2-15-1-120 57-18 164-18 43 0 78 11 37 12 57 28 26 20 36 40 12 22 15 48 4 37-14 60-19 23-53 41-32 16-80 31-24 7-91 31-56 20-91 38-47 24-76 56-32 35-48 83t-7 118q8 66 40 123 33 59 88 102 58 45 133 70 80 26 174 26 79 0 137.5-10t161.5-44l-37-298h-118q-40 0-43 38-2 15 1 116-39 14-120 14-75 0-122-32t-53-83q-4-34 15-57 20-23 53-40t79-31q17-5 90-31 50-18 90-37 44-21 76-53 31-30 49-78z"/><glyph unicode="t" horiz-adv-x="781" d="M366-16q-137 0-201 77-63 77-47 213l72 587h-107q-20 0-33 13t-10 40l12 101 172 27 89 287q6 21 23 32 15 11 38 11h131l-40-331h276l-22-180h-276l-70-569q-6-50 15-77 22-28 62-28 24 0 40 6 18 7 29 12 16 8 23 12 9 5 19 5 13 0 18-5 6-6 13-17l60-123q-61-46-135-70-72-23-151-23z"/><glyph unicode="u" horiz-adv-x="1211" d="M1124 184q49-10 43-64l-15-120h-310q-49 0-58 46l-8 84q-42-37-74-60-35-25-80-46-42-19-89-30-44-10-99-10-85 0-149 29-62 28-101 82-38 51-52 127-13 73-3 161l57 465q-27 5-49 8.5t-29 5-13 2.5-11 2q-49 10-43 64l14 121h409l-82-668q-12-96 26-149t127-53q63 0 126 29 59 27 119 81l68 557q-93 17-101 18-50 11-44 64l15 121h408l-104-848q59-10 102-19z"/><glyph unicode="v" horiz-adv-x="1296" d="M1188 1051h68l-14-121q-6-53-60-64-25-5-98-17l-441-849h-230l-233 849q-85 15-95 17-49 10-43 64l14 121h512l-15-121q-6-53-59-64-2 0-17.5-3t-40.5-7l99-414q10-41 17-96 8-61 10-94 22 68 32 94 18 46 42 96l203 412q-22 4-36 6.5t-19.5 3.5-10.5 2q-49 10-43 64l15 121h443z"/><glyph unicode="w" horiz-adv-x="1869" d="M1746 1051h84l-14-121q-6-53-60-64-17-3-99-17l-373-849h-203q-33 0-42 45l-115 607-9 60q-5 30-6 60-4-10-11-30.5t-10-30.5q-16-45-23-61l-266-605q-19-45-61-45h-194l-164 849q-85 15-95 17-49 10-43 64l14 121h512l-15-121q-6-53-59-64-5-1-21-4t-43-7l60-413q6-46 9-90 2-28 4-88 16 41 35 88 7 16 20 47t18 43l243 564q8 18 29 33 20 14 44 14h112q27 0 44-14 18-15 21-33l102-574q5-29 13-85t11-84q2 9 27 88 15 47 33 91l164 411q-18 3-32.5 6t-20 4-10.5 1.5-9 1.5q-49 10-43 64l15 121h427z"/><glyph unicode="x" horiz-adv-x="1259" d="M1083 184q50-11 44-64l-15-120h-456l15 120q6 52 56 64l-112 229q-14-38-33-62l-127-164 12-3q49-10 43-64l-14-120h-456l15 120q6 53 59 64 5 1 11 2t13 2l24.5 3.5 40.5 6.5 270 344-172 311q-62 10-83 13-49 10-43 64l15 121h455l-14-121q-6-53-60-64l101-199q7 17 17 34 11 19 23 35l97 127q-4 1-9 2t-7 1q-49 10-43 64l14 121h456l-15-121q-6-53-59-64-6-1-13-2t-27.5-4-49.5-8l-244-299 187-355q27-5 46-8t25.5-4 12.5-2z"/><glyph unicode="y" horiz-adv-x="1291" d="M1189 1051h62l-15-121q-6-53-59-64-17-3-99-17l-626-1138q-15-27-34-40-20-14-56-14h-189l249 421-242 771q-85 15-95 17-49 10-43 64l14 121h512l-15-121q-6-53-59-64-3 0-16.5-2t-32.5-6l116-399q7-26 12-56 6-38 8-57 14 35 25 57 4 7 12.5 27t14.5 30l202 394q-17 3-30 5.5t-18 3.5-10 1.5-9 1.5q-50 11-44 64l15 121h450z"/><glyph unicode="z" horiz-adv-x="1034" d="M912 343h9l-42-343h-840l13 105q1 15 13 42 10 24 31 46l586 664h-331q-23-102-24-104-14-38-53-38h-118l40 323 2 13h796l-13-105q-3-28-16-52-12-23-28-42l-580-657h367q23 100 26 110 14 38 53 38h109z"/><glyph unicode="{" horiz-adv-x="712" d="M144 420q8 64-16 102-24 39-89 39l18 147q63 0 98 39t42 102q6 51 5 96-3 94-3 95-4 64-4 97 0 49 6 99 9 74 40 142 30 64 82 110 50 44 127 71 74 25 170 25h54l-13-113q-2-14-9-23-8-10-16-15-11-7-19-10-9-3-17-3h-9q-71 0-115-45-44-46-53-124-7-53-7-108v-100q0-16 .5-48.5t.5-47.5q0-55-5-95-4-38-20-74-14-32-40-63-22-27-56-49-32-21-70-32 36-12 62-32 24-19 44-50 18-28 24-64t2-72q-6-49-18-95-4-14-8-30t-8.5-35.5-7.5-30.5-12-46.5-14-54.5q-11-46-19-108-9-78 23-122 34-46 104-46h9q7 0 16-3 10-3 17-9 8-6 12-16t3-24l-14-111h-54q-98 0-164 25-70 26-109 70-41 46-56 110-14 61-5 142 5 45 19 99 12 48 27 96 14 44 27 97 12 48 18 96z"/><glyph unicode="|" horiz-adv-x="508" d="M163 1584h196v-1927h-196v1927z"/><glyph unicode="}" horiz-adv-x="713" d="M514 420q-5-40-5-96 0-33 4-97 3-48 3-96 0-58-5-99-9-74-40-142-30-65-83-110-52-44-126-70-72-25-171-25h-54l14 111q2 15 8 24 7 10 16 16 8 5 19 9 9 3 17 3h9q72 0 116 45 44 46 53 123 7 53 7 108 0 17-.5 51t-.5 50-.5 48.5-.5 47.5q0 47 6 95 5 39 19 72 16 37 39 64 25 30 57 50 30 19 70 32-33 10-62 32-30 24-45 49-17 30-23 63-6 36-2 74 6 49 18 95 2 10 11 44t14 52l25 100q11 46 19 108 9 81-22 124-33 45-105 45h-9q-7 0-16 3-8 3-17 10-7 6-12 15t-3 23l14 113h54q99 0 165-25 70-27 109-71 40-46 55-110 14-61 5-142-6-52-18-99-9-37-28-97-16-52-27-95-12-48-18-96-7-62 17-102 24-39 88-39l-18-147q-64 0-98-39t-42-102z"/><glyph unicode="~" horiz-adv-x="1147" d="M749 664q59 0 94 36 37 38 44 104h204q-9-77-38-143-29-65-74-110-46-46-106-70t-134-24q-57 0-102 14-54 17-90 31-12 5-26 10.5t-30 12-24 9.5q-35 14-70 14-57 0-93-37-38-39-45-103h-204q8 72 39 142 28 64 74 110 47 47 105 70 63 25 134 25 54 0 102-15 59-18 91-31 5-2 34.5-13.5t44.5-17.5q35-14 70-14z"/><glyph unicode="¡" horiz-adv-x="520" d="M45-343l67 546q11 87 32 183 12 53 48 189h171q3-89 1-189-2-94-13-183l-67-546h-239zm115 1256q4 31 20 61 14 27 38 49 20 19 53 32 30 12 63 12 32 0 59-12 30-13 46-32 18-21 27-49 9-29 5-61-4-31-20-61-14-26-39-48-24-21-54-33t-62-12q-33 0-60 12t-45 33q-17 20-26 48-9 29-5 61z"/><glyph unicode="¢" horiz-adv-x="989" d="M828 247l61-92q-48-50-101-83-54-34-108-53-60-21-113-28-50-7-89-8l-24-117-7-31q-5-25-25-44-22-20-51-20h-93l28 135 20 95q-28 8-50 18-81 36-137 106-55 69-81 170t-9 230q13 112 60 215 45 98 119 171 75 74 173 113 68 27 146 36l20 98 14 65q5 24 26 44 22 20 51 20h93l-31-148-1-3-16-75q83-9 244-72l-40-323h-118q-40 0-43 38-1 20 2 148-63 16-85 18l-1-6-144-689h7q61 0 100 15 38 15 67 33l48 32q21 15 45 15 31 0 43-23zm-520 129q11-67 38-110 13-22 28-35l57 273 72 347q-1 0-2-1-2-2-4-2-53-24-92-69t-63-109q-23-63-34-145-10-83 0-149z"/><glyph unicode="£" horiz-adv-x="1294" d="M107 695q4 34 29 60 24 25 66 25h111l30 242q12 96 51 183 39 86 105 151 68 66 159 103 94 38 212 38 81 0 144-21 62-21 109-57t78-84 51-105l-109-65q-33-16-61-16-38 0-63 34-5 6-34 41-15 18-37 32t-45 21q-24 7-59 7-106 0-166-69-61-70-76-192l-30-243h419l-13-100q-3-25-25-45-23-21-54-21h-347l-25-198q-9-70-40-121t-81-97q74 17 153 17h600l-13-106q-4-23-12-38-10-19-27-36-16-16-37-25-23-10-46-10h-982l19 159q36 7 70 23 32 14 60 38 27 22 45 54 20 35 24 73l33 267h-196z"/><glyph unicode="¤" horiz-adv-x="1131" d="M187 689q6 54 26 103t51 92l-138 155 144 125 134-153q45 25 100 41 52 15 107 15 51 0 101-14 45-13 87-39l175 155 110-126-173-154q21-43 30-94 9-48 1-106-6-52-26-102-19-47-51-91l138-156-143-126-136 154q-44-26-98-41-52-15-108-15-52 0-100 14-46 14-87 39l-176-156-110 127 174 153q-20 42-30 95-9 51-2 105zm186 0q-4-38 6-74 11-37 33-62 23-26 56-41t73-15q39 0 77 15 35 14 67 41 29 24 49 62 20 36 24 74 4 40-6 76-10 35-34 62-23 26-56 41-35 16-74 16-38 0-76-16-35-15-66-41-29-24-49-62-20-36-24-76z"/><glyph unicode="¥" horiz-adv-x="1263" d="M87 648h283l-305 833h210q34 0 56-17 19-15 29-45l163-499q16-51 23-85 8-43 11-77 20 57 29 77 15 36 43 85l283 499q13 23 39 43 25 19 60 19h212l-511-833h283l-18-141h-326l-12-97h326l-17-141h-326l-33-269h-253l33 269h-328l17 141h328l12 97h-328z"/><glyph unicode="¦" horiz-adv-x="513" d="M276 1584h196l-102-828h-196zm-135-1100h196l-101-827h-197z"/><glyph unicode="§" horiz-adv-x="1042" d="M934 1275q-12-17-24-24-11-7-30-7-20 0-39 10-6 3-21.5 10.5t-24.5 12.5q-21 11-60 23-36 11-82 11-39 0-77-10-30-8-58-27-24-16-39-39-14-21-17-48-5-33 17-58 21-24 58-46 36-21 85-43 13-6 46.5-20.5t52.5-22.5q34-15 98-51 43-24 82-63 36-36 54-83 18-48 11-109-10-83-57-150-46-67-137-108 42-38 65-88 23-51 14-120-9-73-44-139-34-63-94-111t-140-73q-83-26-184-26-48 0-105 10-51 9-96 27-50 20-83 41-39 25-65 51l71 96q13 18 30 27t39 9q24 0 43-13 25-17 46-29 26-15 65-28 40-14 99-14 83 0 135 35 50 34 58 96 5 42-16 71-21 30-59 53-37 22-87 42-89 35-101 40-38 16-99 48-51 27-86 62-38 38-55 85-19 51-10 116 11 83 60 145 51 65 142 102-43 42-65 95-22 54-13 133 7 61 40 122 31 57 88 102 58 45 132 70 78 26 175 26 108 0 193-36 87-37 137-94zm-592-533q-6-41 21-74 24-30 70-56 45-26 102-48 44-17 111-50 44 21 66 52 23 32 27 68 6 44-20 76-27 34-67 57-46 27-98 48-63 26-110 49-47-23-73-54-25-29-29-68z"/><glyph unicode="¨" horiz-adv-x="784" d="M344 1323q-3-29-18-54-16-27-36-43-23-19-50-29-28-11-56-11-27 0-52 11-22 10-40 29-20 21-26 43-8 27-5 54 3 29 19 56 17 28 36 45 23 20 48 31t54 11q32 0 54-11 25-12 42-31 19-20 26-45 7-24 4-56zm383 0q-3-29-18-54-14-24-36-43-21-18-49-29t-56-11-53 11q-24 11-41 29-18 20-25 43-8 27-5 54 3 29 19 56 16 28 35 45 19 18 49 31 25 11 55 11 32 0 54-11 27-14 42-31 18-21 25-45t4-56z"/><glyph unicode="©" horiz-adv-x="1612" d="M1013 524q11 0 19-4 9-4 14-13l73-89q-66-72-158-111-91-39-209-39-101 0-181 37t-130 100q-51 65-72 151-20 84-8 187 14 107 59 192 46 85 118 150 71 64 161 98 91 35 190 35 113 0 191-38 75-37 125-99l-78-91q-11-11-18-16-11-8-29-8t-31 10q-3 2-35 22-21 13-51 23t-84 10q-60 0-112-20-50-19-88-57t-62-91-32-120q-9-69 3-122 13-57 38-90 26-34 69-55 39-19 92-19 49 0 84 8t57 19q25 12 42 23t43 17zm-961 216q14 106 52 202 39 97 98 180 62 86 137 153 79 70 168 119 87 48 190 76 99 27 204 27 104 0 197-27 96-28 172-76 77-49 138-119 62-71 100-153 39-85 54-180 15-99 2-202-12-102-51-200-38-94-99-180-62-86-137-153-78-69-167-118t-190-76q-100-27-205-27-104 0-197 27-94 27-171 76-81 52-139 118-60 69-99 153-41 87-55 180-15 97-2 200zm138 0q-16-132 17-248t107-202q73-85 179-134 105-49 237-49 131 0 250 49 121 50 214 134 92 84 157 202 61 112 78 248 11 90-1 171-12 84-43 153-31 70-81 129-48 57-113 100-60 40-141 64-75 22-164 22-88 0-169-22-84-23-156-64-76-44-137-100-63-59-111-129-49-72-80-153-33-86-43-171z"/><glyph unicode="ª" horiz-adv-x="689" d="M588 861h-85q-22 0-38 7-13 6-19 30l-8 37q-27-21-51-36-25-16-50-26-27-11-52-15-32-5-62-5-46 0-76 11-35 13-56 34-22 22-32 54-10 30-5 74 4 31 26 69 20 35 68 64 46 28 122 48 73 19 186 22l3 25q7 55-15 79-21 23-67 23-36 0-58-7-21-7-42-17-2-1-35-16-15-7-38-7-20 0-31 10-13 11-18 23l-24 59q65 53 135 76 72 24 151 24 59 0 102-18 42-17 72-52 28-32 40-78 11-43 5-99zm-292 116q37 0 70 14t66 43l10 83q-59-1-100-9t-65-18-35-25q-12-15-13-30-4-31 14-45 17-13 53-13z"/><glyph unicode="«" horiz-adv-x="862" d="M49 535l4 32 312 406 78-39q19-9 27-24 6-13 5-31-3-24-18-44l-171-241q-18-28-38-43 13-13 27-43l112-242q11-23 8-45-5-35-46-53l-87-39zm337 0l4 32 312 406 78-39q20-9 27-24 7-13 5-31-3-24-18-44l-171-241q-18-28-38-43 13-13 27-43l112-242q11-23 8-45-5-35-46-53l-88-39z"/><glyph unicode="¬" horiz-adv-x="1045" d="M81 781h908l-59-477h-214l36 290h-694z"/><glyph unicode="­" horiz-adv-x="677" d="M86 724h531l-26-211h-531z"/><glyph unicode="®" horiz-adv-x="1612" d="M52 740q14 106 52 202 39 97 98 180 62 86 137 153 79 70 168 119 87 48 190 76 99 27 204 27 104 0 197-27 96-28 172-76 77-49 138-119 62-71 100-153 39-85 54-180 15-99 2-202-12-102-51-200-38-94-99-180-62-86-137-153-78-69-167-118t-190-76q-100-27-205-27-104 0-197 27-94 27-171 76-81 52-139 118-60 69-99 153-41 87-55 180-15 97-2 200zm138 0q-16-132 17-248t107-202q73-85 179-134 108-50 237-50t250 50 214 134q92 84 157 202 61 112 78 248 11 90-1 171-12 84-43 153-31 70-81 129-48 57-113 100-60 40-141 64-75 22-164 22-88 0-169-22-84-23-156-64-76-44-137-100-63-59-111-129-49-72-80-153-33-86-43-171zm488-124l-41-332h-219l113 918h328q192 0 272-68t65-197q-10-91-66-159-57-69-159-100 21-12 35-33 11-17 25-47l147-314h-211q-47 0-61 33l-114 270q-9 15-20 22t-38 7h-56zm19 157h91q52 0 87 9 37 10 56 26 22 19 32 43 9 22 14 58 4 30 1 56-3 22-19 40-15 17-44 24-28 7-76 7h-110z"/><glyph unicode="¯" horiz-adv-x="752" d="M83 1405h613l-20-162h-613z"/><glyph unicode="°" horiz-adv-x="813" d="M52 1150q9 71 44 137 35 65 88 111 56 48 121 74 67 27 143 27 74 0 136-27t104-74q44-49 63-111 19-63 10-137-9-73-44-134-37-65-89-111-57-50-122-76-69-27-144-27-74 0-136 27-58 25-102 76-41 47-61 111t-11 134zm176-2q-5-39 4-71 9-31 31-57 20-23 51-37t69-14q36 0 72 14t62 37q25 22 44 57 17 32 22 71 5 40-4 72-9 33-31 58-21 24-52 39-29 14-69 14t-72-14q-34-15-61-39-24-21-44-58-17-32-22-72z"/><glyph unicode="±" horiz-adv-x="1186" d="M790 1271l-44-363h398l-23-188h-399l-42-349h-205l43 349h-397l23 188h397l44 363h205zm-724-1002h999l-23-187h-999z"/><glyph unicode="²" horiz-adv-x="699" d="M624 1137l6-1-14-107-11-95-2-12h-554l7 58q1 13 12 37 9 19 27 36l240 211q28 25 49 47 23 24 41 50 15 21 29 51 12 26 15 48 4 36-13 60-17 23-53 23-33 0-56-17-24-18-40-48-14-19-28-28-13-9-37-9h-11q-2 0-12 2l-100 15q31 116 115 174 83 57 197 57 59 0 104-18 46-18 73-47 28-29 40-70t6-88q-4-36-23-76-18-37-42-67-27-33-56-61-44-42-65-61l-147-133q42 10 58 13 25 4 52 4h91q2 8 4.5 17.5t2.5 11.5q8 23 31 23h64z"/><glyph unicode="³" horiz-adv-x="673" d="M408 1689q56 0 101-17 41-15 72-45 28-26 40-63 12-35 7-73-7-62-40-109-32-45-93-69 60-21 86-58 27-38 20-98-7-62-37-109-29-46-71-76-39-28-92-44-49-15-99-15-54 0-98 11-42 10-74 35-31 23-52 63-21 38-33 97l83 32q26 8 42 8 37 0 48-29 2-5 6.5-13t5.5-10q6-11 18-22t26-16q15-6 38-6 45 0 73 26t32 61q3 29-1 46-5 19-20 30-14 11-45 16-25 4-71 4l14 119q39 0 72 7 29 6 47 18 17 12 26 29 8 15 11 39 5 39-12 60-18 22-58 22-36 0-59-17-22-16-37-43-13-23-25-31-13-9-34-9-12 0-27 3l-91 15q15 58 45 102t69 72q41 30 87 43 50 14 100 14z"/><glyph unicode="´" horiz-adv-x="633" d="M581 1497l-286-267q-22-21-41-28-21-8-47-8h-152l176 249q17 26 41 40 23 14 63 14h246z"/><glyph unicode="µ" horiz-adv-x="1170" d="M458 1051l-82-668q-12-95 27-149 38-53 127-53 63 0 126 29 59 27 119 81l93 760h253l-129-1051h-155q-50 0-59 46l-7 85q-36-31-69-54t-66-36q-30-12-69-19-40-7-74-7-58 0-107 19-50 19-81 52 7-50 4-93-2-37-8-90l-30-246h-125q-54 0-79 27-26 27-20 78l158 1289h253z"/><glyph unicode="¶" horiz-adv-x="1509" d="M1468 1481l-26-212h-219l-183-1483h-221l182 1483h-240l-182-1483h-222l106 859q-105 0-188 33-80 32-136 91-55 58-78 132-24 77-14 161 12 94 54 170 41 74 111 132 69 57 157 86 93 31 197 31h902z"/><glyph unicode="·" horiz-adv-x="507" d="M60 609q4 40 24 76 19 36 49 61 32 27 65 41 36 15 77 15 42 0 75-15t56-41q24-27 34-61 10-36 6-76-4-37-25-74t-48-60q-32-27-67-41-38-15-78-15t-73 15-56 41q-23 25-33 60-10 34-6 74z"/><glyph unicode="¸" horiz-adv-x="542" d="M126-232q5 0 15-2 3-1 8.5-3t7.5-3q11-4 21-5 16-2 28-2 36 0 53 13t20 31q3 30-31 43-32 12-111 23l64 151h158l-29-70q90-23 121-61t25-91q-5-35-25-61-21-26-57-47-38-21-82-31-46-10-103-10-42 0-78 6-41 7-70 17l34 78q9 24 31 24z"/><glyph unicode="¹" horiz-adv-x="550" d="M66 1038h142l45 369 12 52-87-62q-19-13-36-13-13 0-27 7-11 5-16 14l-47 77 263 198h153l-79-642h118l-14-116h-442z"/><glyph unicode="º" horiz-adv-x="778" d="M431 1499q75 0 132-22 60-23 98-64 40-43 56-102 16-58 7-134-9-74-41-137-33-64-80-104-51-43-114-65t-138-22q-78 0-135 22-59 23-98 65-40 43-56 104-17 62-8 137 8 70 42 134 32 60 81 102t113 64q63 22 141 22zm-62-503q68 0 107 44 40 44 50 135 11 92-17 134-28 43-96 43-72 0-111-43-40-44-50-134-11-93 17-135 29-44 100-44z"/><glyph unicode="»" horiz-adv-x="863" d="M160 129l-78 39q-20 9-27 23-7 13-5 32 3 23 18 43l171 242q18 26 38 43-17 17-27 43l-112 241q-11 23-8 44 4 37 46 55l88 39 212-406-4-32zm337 0l-78 39q-20 9-27 23-7 13-5 32 3 23 18 43l171 242q18 26 38 43-17 17-27 43l-112 241q-11 23-8 44 4 37 46 55l87 39 213-406-4-32z"/><glyph unicode="¼" horiz-adv-x="1360" d="M286 73q-33-44-63-58-31-15-71-15h-109l1026 1398q29 39 62 61 34 22 81 22h107zm913 216h96l-11-90q-2-13-12-24-10-10-27-10h-61l-21-165h-151l20 165h-296q-24 0-37 11t-14 27l-5 78 401 478h175zm-1139 551h142l46 368 11 53-86-63q-18-12-37-12-15 0-27 6-9 5-15 14l-47 77 263 199h153l-79-642h117l-14-117h-441zm1008-379q1 6 8 52 3 19 13 59l-242-283h200z"/><glyph unicode="½" horiz-adv-x="1371" d="M1294 215h5l-13-107-12-95-1-13h-554l7 58q1 16 11 37 8 18 28 36l240 211q17 15 48 48 23 24 41 50 19 28 30 50 11 23 14 49 4 37-12 60-17 23-53 23-34 0-57-17-22-16-39-49-14-19-28-28-13-9-37-9-2 0-5.5.5t-5.5.5q-8 0-13 1l-99 16q31 117 114 174 81 56 198 56 61 0 104-17 44-18 73-48 28-29 40-70 11-38 5-87-4-40-22-77t-42-67q-27-33-56-61-21-20-65-60l-147-134q42 10 58 13 32 5 51 5h92q2 8 4.5 17t2.5 11q8 23 31 23h64zm-1010-142q-33-44-63-58-31-15-71-15h-109l1026 1398q29 39 62 61 34 22 81 22h107zm-184 767h142l46 368 11 53-86-63q-18-12-37-12-15 0-27 6-9 5-15 14l-47 77 263 199h152l-78-642h117l-14-117h-441z"/><glyph unicode="¾" horiz-adv-x="1425" d="M352 73q-32-43-64-58t-71-15h-109l1026 1398q28 38 63 61 34 22 80 22h108zm909 216h96l-11-90q-2-13-12-24-10-10-27-10h-61l-21-165h-151l20 165h-296q-24 0-37 11t-14 27l-5 78 401 478h176zm-855 1201q56 0 101-17 39-15 71-45 30-28 41-62 12-35 7-74-7-62-40-109-32-45-93-69 60-21 86-58 27-38 20-98-7-62-37-109-28-44-71-75-42-30-92-45-46-14-99-14-54 0-98 11t-74 34-52 64q-21 38-33 97l83 31q29 9 42 9 37 0 48-29l12-24q6-12 18-22t26-16q15-6 38-6 45 0 73 26t32 61q3 29-1 46t-21 30q-14 11-44 16-32 5-71 5l14 118q39 0 72 7 29 6 47 18 16 11 26 30 8 15 11 39 5 38-12 59-18 22-58 22-37 0-59-16-21-16-37-44-14-22-26-30-15-10-33-10-12 0-27 3l-91 16q15 57 45 101 31 46 69 73 39 28 87 42 50 14 100 14zm724-1029q1 6 8 52 3 19 13 59l-241-283h199z"/><glyph unicode="¿" horiz-adv-x="861" d="M816-208q-45-35-84-58-45-27-96-48-52-22-108-33-54-11-123-11-92 0-160 23-70 24-117 68t-68 107q-21 64-11 143 9 74 39 132 27 51 68 92 36 36 83 65 9 6 38 24t44 27q45 28 68 47 29 25 38 57l42 148h173l-3-166v-10l-1-10q-6-49-32-79-29-33-64-56-50-32-78-47-43-23-79-49t-64-63-34-90q-5-37 6-66 11-31 32-50 21-20 55-32 33-12 72-12 57 0 101 14 45 14 72 28 27 13 51 29 20 13 37 13 37 0 49-31zm-370 1121q5 34 19 61 15 28 39 49t54 33 63 12q32 0 59-12t45-33 27-49 4-61q-5-34-19-61-12-23-39-48-20-19-53-32-30-12-62-12-33 0-60 12-30 13-46 32-19 22-27 48-9 27-4 61z"/><glyph unicode="À" d="M1608 157q38-16 34-52l-13-105h-500l13 105q4 35 47 52 20 8 43 17l-5 22-49 201h-590l-103-210-6-13 18-8 14-6 7-3q38-16 34-52l-13-105h-500l13 105q4 35 47 52 14 5 118 47l658 1277h282l344-1277q99-44 107-47zm-701 893l-224-458h448l-112 460q-9 31-18 77-11 55-17 97-30-74-40-98-18-42-37-78zm5 784q17 0 35-2 15-2 25-6 14-6 21-12 6-5 20-21l176-207h-200q-5 0-13.5.5t-11.5.5q-10 0-19 3-12 4-18 7-3 2-10 7.5t-9 6.5l-276 223h280z"/><glyph unicode="Á" d="M1608 157q38-16 34-52l-13-105h-500l13 105q4 35 47 52 20 8 43 17l-5 22-49 201h-590l-103-210-6-13 18-8 14-6 7-3q38-16 34-52l-13-105h-500l13 105q4 35 47 52 14 5 118 47l658 1277h282l344-1277q99-44 107-47zm-701 893l-224-458h448l-112 460q-9 31-18 77-11 55-17 97-30-74-40-98-18-42-37-78zm545 784l-330-221q-21-13-23-14-16-7-20-8-7-2-21-4-7-1-26-1h-198l226 207q20 18 25 21 12 8 24 12 12 5 26 6 20 2 35 2h282z"/><glyph unicode="Â" d="M1608 157q38-16 34-52l-13-105h-500l13 105q4 35 47 52 20 8 43 17l-5 22-49 201h-590l-103-210-6-13 18-8 14-6 7-3q38-16 34-52l-13-105h-500l13 105q4 35 47 52 14 5 118 47l658 1277h282l344-1277q99-44 107-47zm-701 893l-224-458h448l-112 460q-9 31-18 77-11 55-17 97-30-74-40-98-18-42-37-78zm495 536h-191q-18 0-34 4-15 4-28 13l-95 68q-3 1-7 5-1 1-3.5 3t-3.5 3q-1-1-3.5-2.5t-3.5-2.5q-6-4-10-6l-112-68q-15-9-31-13-17-4-34-4h-192l276 224h252z"/><glyph unicode="Ã" d="M1608 157q38-16 34-52l-13-105h-500l13 105q4 35 47 52 20 8 43 17l-5 22-49 201h-590l-103-210-6-13 18-8 14-6 7-3q38-16 34-52l-13-105h-500l13 105q4 35 47 52 14 5 118 47l658 1277h282l344-1277q99-44 107-47zm-701 893l-224-458h448l-112 460q-9 31-18 77-11 55-17 97-30-74-40-98-18-42-37-78zm266 690q28 0 47 16t23 48h138q-6-48-25-93-18-41-47-72-28-29-66-46-39-17-84-17-35 0-70 11-34 12-62 25-9 4-28 12t-28 12q-25 12-47 12-27 0-46-17-18-17-23-50h-140q6 48 25 93 19 44 48 73 33 33 67 48 36 16 83 16 40 0 70-11 50-18 63-24 43-19 55-25 23-11 47-11z"/><glyph unicode="Ä" d="M1608 157q38-16 34-52l-13-105h-500l13 105q4 35 47 52 20 8 43 17l-5 22-49 201h-590l-103-210-6-13 18-8 14-6 7-3q38-16 34-52l-13-105h-500l13 105q4 35 47 52 14 5 118 47l658 1277h282l344-1277q99-44 107-47zm-701 893l-224-458h448l-112 460q-9 31-18 77-11 55-17 97-30-74-40-98-18-42-37-78zm52 657q-3-28-18-52-16-26-36-43-22-19-48-29t-56-10q-28 0-49 10-22 10-39 29-16 17-24 43-7 23-4 52 3 26 17 53 13 24 34 44 17 16 47 30 23 11 52 11 31 0 53-11 27-14 41-30 18-22 25-44 8-27 5-53zm442 0q-3-27-17-52-15-27-34-43-23-20-47-29-26-10-55-10t-52 10q-22 10-40 29t-25 43q-7 23-4 52 3 26 17 53 12 23 35 44 18 17 48 30 25 11 54 11 31 0 53-11 24-12 39-30 17-20 24-44t4-53z"/><glyph unicode="Å" d="M1608 157q38-16 34-52l-13-105h-500l13 105q4 35 47 52 20 8 43 17l-5 22-49 201h-590l-103-210-6-13 18-8 14-6 7-3q38-16 34-52l-13-105h-500l13 105q4 35 47 52 14 5 118 47l658 1277h282l344-1277q99-44 107-47zm-701 893l-224-458h448l-112 460q-9 31-18 77-11 55-17 97-30-74-40-98-18-42-37-78zm-73 673q7 47 27 80 23 37 54 62 30 24 71 40 36 14 82 14t81-14q38-15 64-40 26-24 40-62 13-35 7-80-6-42-27-78-20-35-54-61-33-25-74-39-42-14-85-14-41 0-78 14-35 13-61 39t-39 61q-14 37-8 78zm121 0q-4-40 16-65 21-26 66-26 41 0 69 26t32 65q6 43-16 68t-63 25q-44 0-72-25-26-23-32-68z"/><glyph unicode="Æ" horiz-adv-x="2150" d="M1905 1130q-1 18 2 132h-533l1-411h506l-26-212h-480v-419h404q25 114 31 132 14 38 52 38h118l-30-246h-2l-18-144h-967l15 120q6 53 59 64 1 0 3.5.5l7.5 1.5 11 2 24 4.5 31 5.5v167h-533l-112-186q11-5 23-10.5t18-8 8-3.5q38-16 34-52l-13-105h-500l13 105q4 35 47 52 3 1 17 6.5t38.5 15 50.5 20.5l689 1093q-2 1-6 1-3 1-5 1t-6 .5-6 1.5q-49 10-43 64l14 121h1270l-17-143h2l-31-246h-118q-40 0-43 38zm-1206-571h415v717q-22-52-46-98-37-70-46-85z"/><glyph unicode="Ç" horiz-adv-x="1390" d="M1141 332l94-118q-104-112-242-171-114-48-260-57l-16-42q89-23 120-61 32-39 26-91-5-35-25-61-21-26-57-47-38-21-82-31-46-10-103-10-42 0-78 6-41 7-70 17l33 78q9 24 32 24 5 0 15-2 3-1 8.5-3t7.5-3q11-4 21-5 16-2 28-2 35 0 52 13 18 14 21 31 3 30-31 43-32 12-111 23l53 126q-110 12-197 51-126 58-206 157t-113 239q-33 139-12 304 21 166 93 306 71 137 185 239 113 101 259 156 148 56 315 56 184 0 452-107l-16-131-2-15-29-231h-118q-40 0-43 38-1 21 2 163-160 49-276 49-103 0-197-37-90-35-163-104-74-69-119-164-47-99-62-218-15-127 8-222 24-99 76-164 53-66 130-102 76-35 172-35 56 0 102 6 44 6 87 20 40 13 77 34 36 20 74 52 14 11 23 15 10 5 26 5 22 0 36-17z"/><glyph unicode="È" horiz-adv-x="1347" d="M376 1481h934l-18-143-9-76-21-170h-118q-40 0-43 38-2 30 1 132h-476l-50-411h501l-26-212h-501l-51-419h475q23 102 32 132 14 38 52 38h118l-21-170-9-76-18-144h-1089l15 120q6 53 59 64 5 2 13 3 2 0 7 1t11 2 13 2 27.5 4.5 34.5 6.5l132 1075q-13 3-33 6t-26 4-12 2.5-11.5 2.5-6.5 1q-2 0-6.5.5t-6.5 1.5q-49 10-43 64l15 121h155zm379 353q17 0 35-2 15-2 25-6 14-6 21-12 6-5 20-21l176-207h-200q-5 0-13.5.5t-11.5.5q-10 0-19 3-12 4-18 7-3 1-6 3.5t-6.5 5.5-6.5 5l-276 223h280z"/><glyph unicode="É" horiz-adv-x="1347" d="M376 1481h934l-18-143-9-76-21-170h-118q-40 0-43 38-2 30 1 132h-476l-50-411h501l-26-212h-501l-51-419h475q23 102 32 132 14 38 52 38h118l-21-170-9-76-18-144h-1089l15 120q6 53 59 64 5 2 13 3 2 0 7 1t11 2 13 2 27.5 4.5 34.5 6.5l132 1075q-13 3-33 6t-26 4-12 2.5-11.5 2.5-6.5 1q-2 0-6.5.5t-6.5 1.5q-49 10-43 64l15 121h155zm919 353l-331-221q-1-1-9.5-6.5t-12.5-7.5q-14-6-21-8t-21-4q-7-1-25-1h-198l226 207q20 18 25 21 12 8 24 12 12 5 26 6 20 2 35 2h282z"/><glyph unicode="Ê" horiz-adv-x="1347" d="M376 1481h934l-18-143-9-76-21-170h-118q-40 0-43 38-2 30 1 132h-476l-50-411h501l-26-212h-501l-51-419h475q23 102 32 132 14 38 52 38h118l-21-170-9-76-18-144h-1089l15 120q6 53 59 64 5 2 13 3 2 0 7 1t11 2 13 2 27.5 4.5 34.5 6.5l132 1075q-13 3-33 6t-26 4-12 2.5-11.5 2.5-6.5 1q-2 0-6.5.5t-6.5 1.5q-49 10-43 64l15 121h155zm869 105h-192q-17 0-33 4-15 4-28 13l-95 68q-3 1-7 5-1 1-3.5 3t-3.5 3q-1-1-3.5-2.5t-3.5-2.5q-6-4-10-6l-112-68q-15-9-31-13-17-4-34-4h-192l276 224h252z"/><glyph unicode="Ë" horiz-adv-x="1347" d="M376 1481h934l-18-143-9-76-21-170h-118q-40 0-43 38-2 30 1 132h-476l-50-411h501l-26-212h-501l-51-419h475q23 102 32 132 14 38 52 38h118l-21-170-9-76-18-144h-1089l15 120q6 53 59 64 5 2 13 3 2 0 7 1t11 2 13 2 27.5 4.5 34.5 6.5l132 1075q-13 3-33 6t-26 4-12 2.5-11.5 2.5-6.5 1q-2 0-6.5.5t-6.5 1.5q-49 10-43 64l15 121h155zm426 226q-3-28-18-52-16-26-36-43-22-19-48-29t-56-10q-28 0-49 10-22 10-39 29-16 17-24 43-7 23-4 52 3 26 17 53 13 24 34 44 17 16 47 30 23 11 52 11 31 0 53-11 27-14 41-30 18-22 25-44 8-27 5-53zm442 0q-3-27-17-52-15-27-34-43-23-20-47-29-26-10-55-10t-52 10q-22 10-40 29t-25 43q-7 23-4 52 3 26 17 53 12 23 35 44 18 17 48 30 25 11 54 11 30 0 52-11 25-13 40-30 17-20 24-44t4-53z"/><glyph unicode="Ì" horiz-adv-x="845" d="M734 1296q-1 0-2.5-.5t-3-.5-4-.5-4.5-.5q-6-1-31-6-7-1-27.5-4t-34.5-6l-132-1075q13-3 33-6.5t27-4.5q8-2 18-3.5t11-1.5q10-2 13-3 49-10 43-64l-14-120h-587l15 120q6 53 59 64 5 2 13 3 2 0 7 1t11 2 13 2 27.5 4.5 34.5 6.5l132 1075q-13 3-33 6t-26 4-12 2.5-11.5 2.5-6.5 1q-10 2-13 2-49 10-43 64l15 121h586l-14-121q-6-53-59-64zm-318 538q17 0 35-2 15-2 25-6 14-6 21-12 6-5 20-21l176-207h-200q-5 0-13.5.5t-11.5.5q-10 0-19 3-12 4-18 7-3 1-6 3.5t-6.5 5.5-6.5 5l-276 223h280z"/><glyph unicode="Í" horiz-adv-x="991" d="M734 1296q-1 0-2.5-.5t-3-.5-4-.5-4.5-.5q-6-1-31-6-7-1-27.5-4t-34.5-6l-132-1075q13-3 33-6.5t27-4.5q8-2 18-3.5t11-1.5q10-2 13-3 49-10 43-64l-14-120h-587l15 120q6 53 59 64 5 2 13 3 2 0 7 1t11 2 13 2 27.5 4.5 34.5 6.5l132 1075q-13 3-33 6t-26 4-12 2.5-11.5 2.5-6.5 1q-10 2-13 2-49 10-43 64l15 121h586l-14-121q-6-53-59-64zm222 538l-330-221q-21-13-23-14-14-6-21-8t-21-4q-7-1-25-1h-198l226 207q20 18 25 21 12 8 24 12 12 5 26 6 20 2 35 2h282z"/><glyph unicode="Î" horiz-adv-x="941" d="M734 1296q-1 0-2.5-.5t-3-.5-4-.5-4.5-.5q-6-1-31-6-7-1-27.5-4t-34.5-6l-132-1075q13-3 33-6.5t27-4.5q8-2 18-3.5t11-1.5q10-2 13-3 49-10 43-64l-14-120h-587l15 120q6 53 59 64 5 2 13 3 2 0 7 1t11 2 13 2 27.5 4.5 34.5 6.5l132 1075q-13 3-33 6t-26 4-12 2.5-11.5 2.5-6.5 1q-10 2-13 2-49 10-43 64l15 121h586l-14-121q-6-53-59-64zm171 290h-192q-17 0-33 4-15 4-28 13l-95 68q-3 1-7 5-1 1-3.5 3t-3.5 3q-1-1-3.5-2.5t-3.5-2.5q-6-4-10-6l-112-68q-15-9-31-13-17-4-34-4h-192l276 224h252z"/><glyph unicode="Ï" horiz-adv-x="941" d="M734 1296q-1 0-2.5-.5t-3-.5-4-.5-4.5-.5q-6-1-31-6-7-1-27.5-4t-34.5-6l-132-1075q13-3 33-6.5t27-4.5q8-2 18-3.5t11-1.5q10-2 13-3 49-10 43-64l-14-120h-587l15 120q6 53 59 64 5 2 13 3 2 0 7 1t11 2 13 2 27.5 4.5 34.5 6.5l132 1075q-13 3-33 6t-26 4-12 2.5-11.5 2.5-6.5 1q-10 2-13 2-49 10-43 64l15 121h586l-14-121q-6-53-59-64zm-272 411q-3-28-18-52-16-26-36-43-22-19-48-29t-56-10q-28 0-49 10-22 10-39 29-16 17-24 43-7 23-4 52 3 26 17 53 13 24 34 44 17 16 47 30 23 11 52 11 31 0 53-11 27-14 41-30 18-22 25-44 8-27 5-53zm442 0q-3-27-17-52-15-27-34-43-23-20-47-29-26-10-55-10t-52 10q-22 10-40 29t-25 43q-7 23-4 52 3 26 17 53 12 23 35 44 18 17 48 30 25 11 54 11 30 0 52-11 25-13 40-30 17-20 24-44t4-53z"/><glyph unicode="Ð" horiz-adv-x="1626" d="M1560 1039q37-136 18-299-19-160-91-299-69-133-182-234-112-100-255-153-146-54-313-54h-698l15 120q6 53 59 64 60 11 106 19l57 464h-184l19 156h184l56 455q-27 5-49 8.5t-29 5-13 2.5-11 2q-49 10-43 64l15 121h698q168 0 299-55 130-55 218-153 86-97 124-234zm-324-517q45 98 60 218 15 122-6 219t-73 164-134 103q-83 36-191 36h-266l-53-439h369l-19-156h-370l-55-448h266q108 0 200 36 90 35 159 103 68 67 113 164z"/><glyph unicode="Ñ" horiz-adv-x="1818" d="M1625 1481h155l-15-121q-6-53-59-64-1 0-3-.5t-5-1-5-.5q-6-1-31-6-7-1-27.5-4t-34.5-6l-157-1278h-142q-34 0-53 10-22 11-38 37l-653 986q-3-64-3-65-2-27-6-59l-86-706q130-19 131-19 49-10 43-64l-15-120h-582l15 120q6 53 59 64 5 2 13 3 2 0 7 1t11 2 13 2 27.5 4.5 34.5 6.5l132 1075q-13 3-33 6t-26 4-12 2.5-11.5 2.5-6.5 1q-2 0-6.5.5t-6.5 1.5q-49 10-43 64l15 121h299q15 0 31-2 12-1 21-6 11-5 17-13 15-18 18-23l656-991q0 36 3 71 3 31 6 64l86 697q-36 5-69 9.5t-47 6.5-16 2q-49 10-43 64l15 121h427zm-450 259q27 0 46 16 20 17 24 48h137q-6-48-25-93-18-43-46-72t-66-46q-39-17-84-17-35 0-70 11-39 14-63 25-9 4-27.5 12t-27.5 12q-25 12-47 12-27 0-46-17-20-18-24-50h-139q6 48 25 93 20 46 47 73 32 32 68 48t83 16q40 0 70-11 50-18 63-24 43-19 55-25 23-11 47-11z"/><glyph unicode="Ò" horiz-adv-x="1598" d="M1549 740q-19-162-91-301-71-138-182-240t-256-159q-143-56-313-56t-300 56-218 159q-87 102-124 240-37 136-17 301 19 163 91 302 71 137 183 240 109 100 257 158 146 57 313 57 170 0 300-57 131-57 217-158 85-100 123-240 37-137 17-302zm-282 0q15 122-6 219-21 99-72 164-53 68-135 104t-190 36-200-36q-91-36-161-104t-114-164q-44-95-59-219t5-218q21-95 74-164 52-67 135-103 82-36 192-36 108 0 199 36 92 36 160 103 69 67 112 164 46 103 60 218zm-478 1094q17 0 35-2 15-2 25-6 14-6 21-12 6-5 20-21l176-207h-199q-5 0-13.5.5t-11.5.5q-11 0-20 3-12 4-18 7-3 2-9 7t-9 7l-277 223h280z"/><glyph unicode="Ó" horiz-adv-x="1598" d="M1549 740q-19-162-91-301-71-138-182-240t-256-159q-143-56-313-56t-300 56-218 159q-87 102-124 240-37 136-17 301 19 163 91 302 71 137 183 240 109 100 257 158 146 57 313 57 170 0 300-57 131-57 217-158 85-100 123-240 37-137 17-302zm-282 0q15 122-6 219-21 99-72 164-53 68-135 104t-190 36-200-36q-91-36-161-104t-114-164q-44-95-59-219t5-218q21-95 74-164 52-67 135-103 82-36 192-36 108 0 199 36 92 36 160 103 69 67 112 164 46 103 60 218zm62 1094l-330-221q-21-13-23-14-16-7-20-8-7-2-21-4-7-1-25-1h-199l226 207q18 16 26 21 13 8 23 12 12 5 26 6 20 2 36 2h281z"/><glyph unicode="Ô" horiz-adv-x="1598" d="M1549 740q-19-162-91-301-71-138-182-240t-256-159q-143-56-313-56t-300 56-218 159q-87 102-124 240-37 136-17 301 19 163 91 302 71 137 183 240 109 100 257 158 146 57 313 57 170 0 300-57 131-57 217-158 85-100 123-240 37-137 17-302zm-282 0q15 122-6 219-21 99-72 164-53 68-135 104t-190 36-200-36q-91-36-161-104t-114-164q-44-95-59-219t5-218q21-95 74-164 52-67 135-103 82-36 192-36 108 0 199 36 92 36 160 103 69 67 112 164 46 103 60 218zm12 846h-191q-18 0-34 4-15 4-28 13l-95 68q-3 1-7 5-1 1-3.5 3t-3.5 3q-1 0-2.5-2t-3.5-3q-6-4-10-6l-112-68q-14-9-32-13-17-4-34-4h-191l275 224h252z"/><glyph unicode="Õ" horiz-adv-x="1598" d="M1549 740q-19-162-91-301-71-138-182-240t-256-159q-143-56-313-56t-300 56-218 159q-87 102-124 240-37 136-17 301 19 163 91 302 71 137 183 240 109 100 257 158 146 57 313 57 170 0 300-57 131-57 217-158 85-100 123-240 37-137 17-302zm-282 0q15 122-6 219-21 99-72 164-53 68-135 104t-190 36-200-36q-91-36-161-104t-114-164q-44-95-59-219t5-218q21-95 74-164 52-67 135-103 82-36 192-36 108 0 199 36 92 36 160 103 69 67 112 164 46 103 60 218zm-217 1000q28 0 47 16 20 17 24 48h137q-6-48-25-93-18-41-47-72-28-29-66-46-39-17-84-17-34 0-69 11-39 14-63 25-9 4-27.5 12t-27.5 12q-25 12-48 12-27 0-46-17-18-17-23-50h-139q6 52 24 93 19 44 48 73 33 33 67 48 36 16 83 16 41 0 71-11 50-18 63-24 43-19 55-25 23-11 46-11z"/><glyph unicode="Ö" horiz-adv-x="1598" d="M1549 740q-19-162-91-301-71-138-182-240t-256-159q-143-56-313-56t-300 56-218 159q-87 102-124 240-37 136-17 301 19 163 91 302 71 137 183 240 109 100 257 158 146 57 313 57 170 0 300-57 131-57 217-158 85-100 123-240 37-137 17-302zm-282 0q15 122-6 219-21 99-72 164-53 68-135 104t-190 36-200-36q-91-36-161-104t-114-164q-44-95-59-219t5-218q21-95 74-164 52-67 135-103 82-36 192-36 108 0 199 36 92 36 160 103 69 67 112 164 46 103 60 218zm-431 967q-3-30-17-52-16-26-36-43-21-18-49-29-26-10-55-10t-50 10q-22 10-39 29-16 17-24 43-7 23-4 52 3 26 17 53 12 23 35 44 18 17 46 30 23 11 52 11 31 0 53-11 27-14 41-30 20-24 26-44 7-24 4-53zm443 0q-3-27-17-52t-35-43q-23-20-47-29-26-10-55-10-28 0-51 10-24 11-41 29-16 17-24 43-8 25-5 52 3 26 17 53 11 21 36 44 19 17 47 30 25 11 54 11 31 0 53-11 25-13 40-30 15-18 23-44 8-27 5-53z"/><glyph unicode="×" horiz-adv-x="1104" d="M1069 1020l-374-333 307-348-151-132-305 347-392-349-118 132 393 350-294 335 150 133 294-335 372 333z"/><glyph unicode="Ø" horiz-adv-x="1688" d="M1593 740q-19-160-92-301-71-138-182-240t-256-159q-143-56-313-56-104 0-192 21-83 20-163 63l-91-108q-34-40-78-57-45-17-83-17h-108l233 275q-105 102-152 251-46 148-24 328 19 163 91 302 71 138 182 240 109 100 257 158 145 57 314 57 110 0 208-26 99-26 174-74l71 84q15 18 28 31 13 14 27 21 18 10 29 12 17 3 39 3h141l-214-252q93-101 134-244 41-144 20-312zm-1220 0q-15-115 4-211 18-93 67-160l705 829q-100 65-242 65-109 0-200-36-90-35-160-104-70-68-114-164-45-97-60-219zm937 0q14 106 0 192-13 82-52 151l-694-817q92-47 215-47 108 0 200 36 90 35 159 103 71 69 113 164 44 99 59 218z"/><glyph unicode="Ù" horiz-adv-x="1631" d="M1438 1481h155l-14-121q-6-53-59-64-1 0-2.5-.5t-3-.5-4-.5-4.5-.5q-6-1-31-6-7-1-27.5-4t-34.5-6l-84-684q-17-135-72-244-58-115-146-194-93-83-209-127-120-45-262-45t-250 45-178 127-98 194-12 244l84 684q-13 3-33.5 6t-26.5 4q-14 3-29 6-2 0-6.5.5t-6.5 1.5q-49 10-43 64l14 121h595l-15-121q-6-53-59-64-1 0-3.5-.5t-5.5-1-6-.5q-11-2-36-6-7-1-64-10l-84-683q-11-87 4-154 15-70 52-117 38-48 97-75 60-27 139-27 81 0 147 27 65 27 115 75 50 49 81 116 32 69 42 154l84 684q-14 3-34.5 6t-26.5 4q-22 4-35 6-3 0-6 .5t-5.5 1-3.5.5q-49 10-43 64l15 121h439zm-716 353q17 0 35-2 15-2 25-6 12-5 20-12 6-5 20-21l177-207h-200q-5 0-13.5.5t-11.5.5q-11 0-20 3t-17 7q-3 2-10 7.5t-9 6.5l-277 223h281z"/><glyph unicode="Ú" horiz-adv-x="1631" d="M1438 1481h155l-14-121q-6-53-59-64-1 0-2.5-.5t-3-.5-4-.5-4.5-.5q-6-1-31-6-7-1-27.5-4t-34.5-6l-84-684q-17-135-72-244-58-115-146-194-93-83-209-127-120-45-262-45t-250 45-178 127-98 194-12 244l84 684q-13 3-33.5 6t-26.5 4q-14 3-29 6-2 0-6.5.5t-6.5 1.5q-49 10-43 64l14 121h595l-15-121q-6-53-59-64-1 0-3.5-.5t-5.5-1-6-.5q-11-2-36-6-7-1-64-10l-84-683q-11-87 4-154 15-70 52-117 38-48 97-75 60-27 139-27 81 0 147 27 65 27 115 75 50 49 81 116 32 69 42 154l84 684q-14 3-34.5 6t-26.5 4q-22 4-35 6-3 0-6 .5t-5.5 1-3.5.5q-49 10-43 64l15 121h439zm-176 353l-331-221q-1-1-9.5-6.5t-12.5-7.5q-14-6-21-8t-21-4q-7-1-25-1h-199l226 207q18 16 26 21 12 8 24 12 12 5 26 6 20 2 35 2h282z"/><glyph unicode="Û" horiz-adv-x="1631" d="M1438 1481h155l-14-121q-6-53-59-64-1 0-2.5-.5t-3-.5-4-.5-4.5-.5q-6-1-31-6-7-1-27.5-4t-34.5-6l-84-684q-17-135-72-244-58-115-146-194-93-83-209-127-120-45-262-45t-250 45-178 127-98 194-12 244l84 684q-13 3-33.5 6t-26.5 4q-14 3-29 6-2 0-6.5.5t-6.5 1.5q-49 10-43 64l14 121h595l-15-121q-6-53-59-64-1 0-3.5-.5t-5.5-1-6-.5q-11-2-36-6-7-1-64-10l-84-683q-11-87 4-154 15-70 52-117 38-48 97-75 60-27 139-27 81 0 147 27 65 27 115 75 50 49 81 116 32 69 42 154l84 684q-14 3-34.5 6t-26.5 4q-22 4-35 6-3 0-6 .5t-5.5 1-3.5.5q-49 10-43 64l15 121h439zm-227 105h-192q-17 0-33 4-15 4-28 13l-95 68q-3 1-7 5-1 1-3.5 3t-3.5 3q-1-1-3.5-2.5t-3.5-2.5q-6-4-10-6l-112-68q-15-9-31-13-17-4-34-4h-192l275 224h252z"/><glyph unicode="Ü" horiz-adv-x="1631" d="M1438 1481h155l-14-121q-6-53-59-64-1 0-2.5-.5t-3-.5-4-.5-4.5-.5q-6-1-31-6-7-1-27.5-4t-34.5-6l-84-684q-17-135-72-244-58-115-146-194-93-83-209-127-120-45-262-45t-250 45-178 127-98 194-12 244l84 684q-13 3-33.5 6t-26.5 4q-14 3-29 6-2 0-6.5.5t-6.5 1.5q-49 10-43 64l14 121h595l-15-121q-6-53-59-64-1 0-3.5-.5t-5.5-1-6-.5q-11-2-36-6-7-1-64-10l-84-683q-11-87 4-154 15-70 52-117 38-48 97-75 60-27 139-27 81 0 147 27 65 27 115 75 50 49 81 116 32 69 42 154l84 684q-14 3-34.5 6t-26.5 4q-22 4-35 6-3 0-6 .5t-5.5 1-3.5.5q-49 10-43 64l15 121h439zm-670 226q-3-28-18-52-16-26-36-43-22-19-48-29t-56-10q-28 0-49 10-22 10-39 29-16 17-24 43-8 25-5 52 3 24 18 53 13 24 34 44 18 17 46 30 23 11 52 11 31 0 53-11 29-14 42-30 18-22 25-44 8-27 5-53zm442 0q-3-27-17-52-15-27-34-43-22-19-48-29t-55-10q-28 0-51 10-24 11-41 29-16 17-24 43-7 23-4 52 3 26 17 53 12 23 35 44 18 17 48 30 25 11 54 11 30 0 52-11 25-13 40-30 17-20 24-44t4-53z"/><glyph unicode="Ý" horiz-adv-x="1517" d="M1445 1481h34l-15-121q-6-53-59-64-1 0-3-.5t-5-1-5-.5q-6-1-31-6-10-2-62-10l-504-703-45-372q13-3 32.5-6.5t26.5-4.5q8-2 18-3.5t11-1.5q10-2 13-3 49-10 43-64l-14-120h-586l15 120q6 53 59 64 5 2 13 3 2 0 7 1t11 2 13 2 27.5 4.5 34.5 6.5l46 372-333 703q-13 3-33 6t-26 4q-14 3-29 6-10 2-13 2-49 10-43 64l15 121h553l-15-121q-6-53-59-64-2 0-10-2-1 0-4.5-1t-7.5-2l-8-2q-2-1-13-3.5t-17-3.5l152-357q20-49 31-84 16-52 22-77 12 26 40 78 24 43 51 83l238 357q-7 2-29 7-5 1-12 3l-7 2q-8 2-9 2-49 10-43 64l15 121h519zm-237 353l-330-221q-21-13-23-14-16-7-20-8-7-2-21-4-7-1-26-1h-198l226 207q20 18 25 21 12 8 24 12 12 5 26 6 20 2 35 2h282z"/><glyph unicode="Þ" horiz-adv-x="1232" d="M346 267l-33-267h-275l182 1481h275l-31-254h207q146 0 253-35 104-34 167-97 64-64 86-150t10-190q-13-107-60-197-47-91-126-155-78-64-192-100-113-36-256-36h-207zm27 215h206q78 0 135 19 61 20 100 55 44 39 66 86 25 53 32 113 7 58-5 107-11 46-46 82-33 34-86 52-54 18-130 18h-207z"/><glyph unicode="ß" horiz-adv-x="1201" d="M759 1506q119 0 201-35 80-34 127-87 48-54 64-112 17-61 11-113-8-61-32-101-27-45-59-74-33-30-72-55-14-9-38.5-24.5t-32.5-20.5q-27-18-55-45-24-24-27-53-4-33 19-58 23-24 57-48 9-7 77-50 44-28 75-65 32-38 52-93 18-51 9-133-11-87-51-153-41-67-101-111-63-46-137-68-78-23-158-23-47 0-92 9-44 9-85 27-44 20-75 41-36 25-63 52l71 96q12 18 29 27t40 9q24 0 44-14 17-12 43-28 28-17 55-29 30-13 77-13 66 0 110 38 45 39 52 100 6 48-18 80-25 33-62 57-35 23-84 49-47 25-82 56-38 33-60 79-22 45-13 116 8 60 34 101 25 40 63 74 37 34 77 59 31 20 77 54 34 25 61 59 24 29 30 75 4 32-4 64-7 28-31 52-23 23-61 36t-95 13q-135 0-214-82-78-81-98-242l-123-999h-253l124 1008q13 106 62 199 49 94 125 158 79 67 182 104 102 37 228 37z"/><glyph unicode="à" horiz-adv-x="1061" d="M976 187q49-10 43-65l-15-120h-261q-45 0-64 22t-19 54l9 143q-68-107-157-171-87-63-191-63-63 0-112 23-52 24-90 70-37 44-60 117-22 69-22 164 0 99 23 184 25 91 67 167 43 78 105 144 63 67 138 113 80 48 165 73 90 26 187 26 75 0 142-10 73-11 140-37l-103-822 1 1q22-4 52-9 5-1 10.5-2t8-1.5 3.5-.5zm-278 381l40 318q-27 3-51 3-86 0-158-39-75-40-126-105-52-63-83-154-30-87-30-185 0-109 35-161 35-51 95-51 42 0 82 28 41 29 77 80 37 53 66 119 33 75 53 147zm-128 929q41 0 60-14 20-15 31-40l116-249h-145q-27 0-45 8-17 8-33 28l-220 267h236z"/><glyph unicode="á" horiz-adv-x="1060" d="M976 187q49-10 43-65l-15-120h-261q-45 0-64 22t-19 54l9 143q-68-107-157-171-87-63-191-63-63 0-112 23-52 24-90 70-37 44-60 117-22 69-22 164 0 99 23 184 25 91 67 167 43 78 105 144 63 67 138 113 80 48 165 73 90 26 187 26 75 0 142-10 73-11 140-37l-103-822 1 1q22-4 52-9 5-1 10.5-2t8-1.5 3.5-.5zm-278 381l40 318q-27 3-51 3-86 0-158-39-75-40-126-105-52-63-83-154-30-87-30-185 0-109 35-161 35-51 95-51 42 0 82 28 41 29 77 80 37 53 66 119 33 75 53 147zm318 929l-286-267q-22-21-41-28-21-8-48-8h-151l176 249q17 26 41 40 23 14 63 14h246z"/><glyph unicode="â" horiz-adv-x="1060" d="M976 187q49-10 43-65l-15-120h-261q-45 0-64 22t-19 54l9 143q-68-107-157-171-87-63-191-63-63 0-112 23-52 24-90 70-37 44-60 117-22 69-22 164 0 99 23 184 25 91 67 167 43 78 105 144 63 67 138 113 80 48 165 73 90 26 187 26 75 0 142-10 73-11 140-37l-103-822 1 1q22-4 52-9 5-1 10.5-2t8-1.5 3.5-.5zm-278 381l40 318q-27 3-51 3-86 0-158-39-75-40-126-105-52-63-83-154-30-87-30-185 0-109 35-161 35-51 95-51 42 0 82 28 41 29 77 80 37 53 66 119 33 75 53 147zm280 628h-169q-33 0-49 18l-96 98q-1 1-4 4.5t-5 5.5q-7 7-10 12-6-8-12-12-2-2-6-5.5t-6-4.5l-121-98q-6-5-24-12-15-6-30-6h-175l269 285h238z"/><glyph unicode="ã" horiz-adv-x="1060" d="M976 187q49-10 43-65l-15-120h-261q-45 0-64 22t-19 54l9 143q-68-107-157-171-87-63-191-63-63 0-112 23-52 24-90 70-37 44-60 117-22 69-22 164 0 99 23 184 25 91 67 167 43 78 105 144 63 67 138 113 80 48 165 73 90 26 187 26 75 0 142-10 73-11 140-37l-103-822 1 1q22-4 52-9 5-1 10.5-2t8-1.5 3.5-.5zm-278 381l40 318q-27 3-51 3-86 0-158-39-75-40-126-105-52-63-83-154-30-87-30-185 0-109 35-161 35-51 95-51 42 0 82 28 41 29 77 80 37 53 66 119 33 75 53 147zm60 824q30 0 50 17 19 16 25 60h154q-7-55-29-103-21-46-53-80t-73-52q-38-17-86-17-38 0-67 13-36 16-56 28-34 20-49 29-22 13-42 13-31 0-49-17-19-18-25-61h-156q8 59 28 104 20 44 55 79t73 52q43 19 86 19 36 0 67-14 40-18 57-28 9-5 25-15t22-14q22-13 43-13z"/><glyph unicode="ä" horiz-adv-x="1060" d="M976 187q49-10 43-65l-15-120h-261q-45 0-64 22t-19 54l9 143q-68-107-157-171-87-63-191-63-63 0-112 23-52 24-90 70-37 44-60 117-22 69-22 164 0 99 23 184 25 91 67 167 43 78 105 144 63 67 138 113 80 48 165 73 90 26 187 26 75 0 142-10 73-11 140-37l-103-822 1 1q22-4 52-9 5-1 10.5-2t8-1.5 3.5-.5zm-278 381l40 318q-27 3-51 3-86 0-158-39-75-40-126-105-52-63-83-154-30-87-30-185 0-109 35-161 35-51 95-51 42 0 82 28 41 29 77 80 37 53 66 119 33 75 53 147zm-108 755q-3-29-18-54t-37-43q-24-19-49-29-28-11-57-11-26 0-51 11-24 11-41 29-18 20-25 43-8 27-5 54 3 31 18 56 17 28 36 45 22 19 49 31 25 11 54 11 31 0 53-11 27-13 43-31 17-19 25-45 8-27 5-56zm383 0q-3-29-18-54-14-24-36-43-21-18-49-29t-57-11q-28 0-53 11-22 10-40 29-18 20-25 43-8 27-5 54 3 31 18 56t36 45q20 19 48 31 25 11 56 11t53-11q27-14 42-31 18-21 25-45 8-27 5-56z"/><glyph unicode="å" horiz-adv-x="1060" d="M976 187q49-10 43-65l-15-120h-261q-45 0-64 22t-19 54l9 143q-68-107-157-171-87-63-191-63-63 0-112 23-52 24-90 70-37 44-60 117-22 69-22 164 0 99 23 184 25 91 67 167 43 78 105 144 63 67 138 113 80 48 165 73 90 26 187 26 75 0 142-10 73-11 140-37l-103-822 1 1q22-4 52-9 5-1 10.5-2t8-1.5 3.5-.5zm-278 381l40 318q-27 3-51 3-86 0-158-39-75-40-126-105-52-63-83-154-30-87-30-185 0-109 35-161 35-51 95-51 42 0 82 28 41 29 77 80 37 53 66 119 33 75 53 147zm-281 789q6 46 29 86 22 39 57 66 37 29 78 43 46 16 88 16 43 0 86-16 37-14 68-43 30-28 43-66 14-40 8-86-6-48-29-84-24-38-59-65-34-27-78-42t-90-15-85 15q-38 15-67 42-27 25-41 65-14 39-8 84zm137 0q-5-40 16-65 21-26 66-26 40 0 69 26 27 24 32 65 6 42-16 68-21 25-63 25-46 0-72-25t-32-68z"/><glyph unicode="æ" horiz-adv-x="1526" d="M1167 1066q65 0 122-21 56-21 98-58 41-37 65-86t24-105q0-35-11-76-9-35-37-74-24-33-70-67-42-31-111-55-72-26-161-40-93-15-216-15 0-150 56-220 55-69 154-69 70 0 113 18 42 17 76 40 31 21 57 39t54 18q13 0 25-6 15-7 20-16l65-78q-53-53-106-95-47-38-107-65-58-27-115-38-60-12-132-12-98 0-181 50t-129 154q-34-53-80-93-44-38-94-64-48-25-102-37-48-11-103-11-153 0-228 65-76 66-76 189 0 68 30 136 29 66 101 120 73 54 191 90 120 36 299 36 2 16 4.5 37.5t2.5 27.5q2 26 2 32 0 81-34 119t-100 38q-57 0-93-14-39-15-69-33-11-7-30-18t-25-14q-26-15-55-15-23 0-41 13-17 12-24 31l-34 79q95 84 190 125t209 41q107 0 172-42 63-41 92-118 62 72 149 115 86 42 193 42zm-528-596q-105 0-178-17-68-16-113-45-43-27-59-63-17-37-17-77 0-57 31-88 29-29 85-29 49 0 86 15 39 16 73 50 31 31 55 85 23 52 32 122zm497 420q-53 0-96-20-40-19-73-56-32-36-53-88-19-46-32-114 112 9 187 26 72 16 114 39 42 22 57 50 15 27 15 58 0 44-29 75-28 30-90 30z"/><glyph unicode="ç" horiz-adv-x="982" d="M823 249l61-92q-48-50-101-83-54-34-108-53-60-21-113-28-24-4-39-5l-18-44q89-23 120-61 32-39 26-91-5-35-25-61-21-26-57-47-40-22-82-31-46-10-103-10-42 0-78 6-41 7-70 17l33 78q9 24 32 24 5 0 15-2 3-1 8.5-3t7.5-3q11-4 21-5 16-2 28-2 35 0 52 13 18 14 21 31 3 30-31 43-32 12-111 23l11 25 8 21 35 83q-47 8-95 29-81 36-137 106-55 69-81 170t-9 230q13 112 60 215 45 100 118 171 74 73 174 113 102 41 224 41 130 0 322-76l-40-323h-118q-40 0-43 38-1 19 2 148-80 20-131 20-68 0-120-24-53-24-92-69t-63-109q-23-63-34-145-10-83 0-149 11-67 38-110 29-46 73-68 46-23 106-23 61 0 100 15 38 15 67 33 16 10 48 33 20 14 45 14 32 0 43-23z"/><glyph unicode="è" horiz-adv-x="965" d="M928 807q0-72-28-129-28-58-101-105-70-45-197-79t-317-53v-13q0-248 210-248 45 0 79 9 37 10 61 21 23 11 47 28 21 15 39 27t36 21 38 9q12 0 24-6 14-7 21-17l64-77q-58-58-106-95t-107-65q-55-26-115-38t-132-12q-93 0-167 31-77 32-128 88-54 57-82 137-29 82-29 180 0 83 18 163 18 81 52 151 37 78 82 132 51 62 112 105 63 45 136 68 77 25 159 25 83 0 145-24t103-61 62-83q21-47 21-90zm-345 82q-53 0-96-21-42-20-79-59-34-35-61-91-29-59-42-115 132 19 204 38 78 21 120 45 43 25 57 52 13 26 13 60 0 14-6 31-5 14-21 30-11 11-36 21-22 9-53 9zm-50 608q41 0 60-14 18-14 30-40l116-249h-144q-28 0-46 8-17 8-33 28l-220 267h237z"/><glyph unicode="é" horiz-adv-x="1013" d="M928 807q0-72-28-129-28-58-101-105-70-45-197-79t-317-53v-13q0-248 210-248 45 0 79 9 37 10 61 21 23 11 47 28 21 15 39 27t36 21 38 9q12 0 24-6 14-7 21-17l64-77q-58-58-106-95t-107-65q-55-26-115-38t-132-12q-93 0-167 31-77 32-128 88-54 57-82 137-29 82-29 180 0 83 18 163 18 81 52 151 37 78 82 132 51 62 112 105 63 45 136 68 77 25 159 25 83 0 145-24t103-61 62-83q21-47 21-90zm-345 82q-53 0-96-21-42-20-79-59-34-35-61-91-29-59-42-115 132 19 204 38 78 21 120 45 43 25 57 52 13 26 13 60 0 14-6 31-5 14-21 30-11 11-36 21-22 9-53 9zm395 608l-285-267q-22-21-41-28-21-8-48-8h-151l176 249q18 27 40 40 23 14 64 14h245z"/><glyph unicode="ê" horiz-adv-x="975" d="M928 807q0-72-28-129-28-58-101-105-70-45-197-79t-317-53v-13q0-248 210-248 45 0 79 9 37 10 61 21 23 11 47 28 21 15 39 27t36 21 38 9q12 0 24-6 14-7 21-17l64-77q-58-58-106-95t-107-65q-55-26-115-38t-132-12q-93 0-167 31-77 32-128 88-54 57-82 137-29 82-29 180 0 83 18 163 18 81 52 151 37 78 82 132 51 62 112 105 63 45 136 68 77 25 159 25 83 0 145-24t103-61 62-83q21-47 21-90zm-345 82q-53 0-96-21-42-20-79-59-34-35-61-91-29-59-42-115 132 19 204 38 78 21 120 45 43 25 57 52 13 26 13 60 0 14-6 31-5 14-21 30-11 11-36 21-22 9-53 9zm357 307h-169q-33 0-49 18l-95 98-10 10q-5 4-9 12-6-8-12-12-2-2-6-5.5t-6-4.5l-122-98q-6-5-23-12-15-6-30-6h-175l269 285h238z"/><glyph unicode="ë" horiz-adv-x="974" d="M927 807q0-72-28-129-28-58-101-105-70-45-197-79t-317-53v-13q0-248 210-248 44 0 79 9 37 10 61 21 23 11 47 28 21 15 39 27t36 21 38 9q12 0 24-6 14-7 21-17l64-77q-58-58-106-95t-107-65q-55-26-115-38t-132-12q-93 0-167 31-77 32-128 88-54 57-82 137-29 82-29 180 0 83 18 163 19 84 51 151 36 75 83 132 51 62 112 105 63 45 136 68 77 25 159 25 84 0 145-24 62-24 103-61t62-83q21-47 21-90zm-345 82q-52 0-96-21-42-20-79-59-34-35-61-91-29-59-42-115 132 19 204 38 78 21 120 45 43 25 57 52 13 26 13 60 0 14-6 31-5 14-21 30-11 11-36 21-23 9-53 9zm-31 434q-3-31-17-54-15-25-37-43-23-19-50-29-28-11-56-11-26 0-51 11-24 11-41 29-20 21-26 43-7 24-4 54 3 31 18 56 17 28 36 45 22 19 49 31 25 11 54 11 31 0 53-11 25-12 42-31 19-20 26-45 7-24 4-56zm383 0q-3-31-17-54-13-23-37-43-21-18-49-29t-56-11-53 11q-24 11-41 29-18 20-25 43-7 24-4 54 3 31 18 56t36 45q20 19 48 31 25 11 56 11t53-11q27-14 42-31 18-21 25-45t4-56z"/><glyph unicode="ì" horiz-adv-x="550" d="M460 184q49-10 43-64l-14-120h-408l25 203 79 645q-13 3-33.5 6t-26.5 4q-14 3-29 6-2 0-6.5.5t-6.5 1.5q-49 10-43 64l14 121h408l-104-848q13-3 33-6.5t27-4.5q8-2 18-3.5t11-1.5q10-2 13-3zm-153 1313q42 0 61-14 18-14 30-40l116-249h-144q-28 0-46 8-17 8-33 28l-220 267h236z"/><glyph unicode="í" horiz-adv-x="788" d="M460 184q49-10 43-64l-14-120h-408l25 203 79 645q-13 3-33.5 6t-26.5 4q-14 3-29 6-2 0-6.5.5t-6.5 1.5q-49 10-43 64l14 121h408l-104-848q13-3 33-6.5t27-4.5q8-2 18-3.5t11-1.5q10-2 13-3zm293 1313l-286-267q-22-21-41-28-21-8-47-8h-152l176 249q17 26 41 40 23 14 63 14h246z"/><glyph unicode="î" horiz-adv-x="777" d="M487 184q49-10 43-64l-15-120h-408l25 203 79 645q-13 3-33 6t-26 4-12 2.5-11.5 2.5-6.5 1q-2 0-6 .5t-6 1.5q-50 11-44 64l15 121h408l-104-848q13-3 32.5-6.5t26.5-4.5q8-2 18.5-3.5t11.5-1.5q10-2 13-3zm254 1012h-169q-32 0-49 18l-95 98-10 10q-4 4-9 12-6-8-12-12-2-2-6-5.5t-6-4.5l-122-98q-6-5-23-12-15-6-30-6h-175l269 285h238z"/><glyph unicode="ï" horiz-adv-x="750" d="M461 184q49-10 43-64l-14-120h-408l25 203 79 645q-13 3-33.5 6t-26.5 4q-14 3-29 6-2 0-6.5.5t-6.5 1.5q-49 10-43 64l14 121h409l-105-848q13-3 33-6.5t27-4.5q8-2 18-3.5t11-1.5q10-2 13-3zm-133 1139q-3-29-18-54-16-27-36-43-23-19-50-29-28-11-56-11-27 0-52 11-24 11-41 29-18 20-25 43-8 27-5 54 3 31 18 56 16 26 37 45 23 20 48 31t54 11q32 0 54-11 25-12 42-31 19-20 26-45 7-24 4-56zm383 0q-3-29-18-54-14-24-36-43-21-18-49-29t-56-11-53 11q-24 11-41 29-18 20-25 43-8 27-5 54 3 31 18 56t36 45q19 18 49 31 25 11 55 11 32 0 54-11 26-13 41-31 20-23 26-45 7-24 4-56z"/><glyph unicode="ð" horiz-adv-x="1132" d="M444 1087q-8 18-7 34 5 31 39 49l82 44q-25 11-66 25-13 5-73 23-26 8-40 25-15 18-10 49 2 17 13 43l40 87q106-19 194-49 86-29 170-82l195 117 40-82q7-18 6-32-1-13-11-26-11-14-24-21l-89-47q53-53 91-116 41-68 64-141 25-81 31-168 6-99-6-196-18-149-68-269t-125-201-180-125q-102-43-231-43-107 0-193 34-88 35-146 99-59 66-86 157-27 93-12 210 12 96 55 180 42 83 113 149 67 63 159 101 91 38 197 38 100 0 174-35 78-37 131-103-8 108-50 187-43 79-121 137l-219-131zm65-910q57 0 112 22t96 69q44 50 74 123t47 184q-10 37-30 72-18 32-50 59-29 25-70 40-40 15-94 15-63 0-118-22-51-20-91-59-36-35-62-88-22-45-30-109-9-79 3-131 14-58 43-96 31-40 73-59 45-20 97-20z"/><glyph unicode="ñ" horiz-adv-x="1208" d="M1123 184q49-10 43-64l-15-120h-408l82 669q12 96-26 149-37 52-127 52-68 0-127-29-60-29-118-81l-41-334-6-49-22-174-24-203h-253l37 306 67 542q-13 3-33.5 6t-26.5 4q-14 3-29 6-2 0-6.5.5t-6.5 1.5q-49 10-43 64l14 121h310q50 0 59-46l7-83q32 29 75 59 39 27 80 46 42 20 88 30 44 10 100 10 85 0 149-29 63-28 101-82 39-54 52-126 13-73 3-161l-57-466q13-3 32.5-6.5t26.5-4.5q8-2 18.5-3.5t11.5-1.5q10-2 13-3zm-305 1208q30 0 50 17 19 16 25 60h153q-8-58-28-103-20-44-54-80-33-35-72-52-38-17-87-17-38 0-67 13-31 14-55 28-34 20-49 29-22 13-42 13-31 0-49-17-19-18-25-61h-156q8 59 28 104 20 44 55 79t73 52q43 19 86 19 36 0 67-14 40-18 57-28 9-5 25-15t22-14q22-13 43-13z"/><glyph unicode="ò" horiz-adv-x="1132" d="M631 1067q116 0 209-38 91-37 150-107 60-71 84-170 24-100 9-225-15-126-64-225-49-100-126-171t-177-108q-102-38-218-38t-209 38q-91 37-151 108-59 70-85 171-24 96-9 225 15 123 65 225 50 101 126 170 77 69 178 107 102 38 218 38zm-109-888q132 0 205 88 74 89 95 258 21 171-31 259-53 89-184 89-133 0-207-89t-95-259q-21-169 31-257 53-89 186-89zm72 1318q41 0 60-14 20-15 31-40l115-249h-144q-28 0-46 8-17 8-33 28l-220 267h237z"/><glyph unicode="ó" horiz-adv-x="1132" d="M631 1067q116 0 209-38 91-37 150-107 60-71 84-170 24-100 9-225-15-126-64-225-49-100-126-171t-177-108q-102-38-218-38t-209 38q-91 37-151 108-59 70-85 171-24 96-9 225 15 123 65 225 50 101 126 170 77 69 178 107 102 38 218 38zm-109-888q132 0 205 88 74 89 95 258 21 171-31 259-53 89-184 89-133 0-207-89t-95-259q-21-169 31-257 53-89 186-89zm517 1318l-285-267q-22-21-41-28-21-8-48-8h-151l176 249q18 27 40 40 23 14 64 14h245z"/><glyph unicode="ô" horiz-adv-x="1132" d="M631 1067q116 0 209-38 91-37 150-107 60-71 84-170 24-100 9-225-15-126-64-225-49-100-126-171t-177-108q-102-38-218-38t-209 38q-91 37-151 108-59 70-85 171-24 96-9 225 15 123 65 225 50 101 126 170 77 69 178 107 102 38 218 38zm-109-888q132 0 205 88 74 89 95 258 21 171-31 259-53 89-184 89-133 0-207-89t-95-259q-21-169 31-257 53-89 186-89zm479 1017h-169q-32 0-49 18l-95 98-10 10q-4 4-9 12-6-8-12-12-2-2-6-5.5t-6-4.5l-122-98q-6-5-23-12-15-6-30-6h-175l269 285h238z"/><glyph unicode="õ" horiz-adv-x="1132" d="M631 1067q116 0 209-38 91-37 150-107 60-71 84-170 24-100 9-225-15-126-64-225-49-100-126-171t-177-108q-102-38-218-38t-209 38q-91 37-151 108-59 70-85 171-24 96-9 225 15 123 65 225 50 101 126 170 77 69 178 107 102 38 218 38zm-109-888q132 0 205 88 74 89 95 258 21 171-31 259-53 89-184 89-133 0-207-89t-95-259q-21-169 31-257 53-89 186-89zm260 1213q30 0 50 17 19 16 25 60h153q-8-58-28-103-20-44-54-80-33-35-72-52-38-17-87-17-38 0-67 13-31 14-55 28-34 20-49 29-22 13-43 13-30 0-48-17-19-18-25-61h-156q8 59 28 104 20 44 55 79t73 52q43 19 86 19 36 0 67-14 40-18 57-28 9-5 25-15t22-14q22-13 43-13z"/><glyph unicode="ö" horiz-adv-x="1132" d="M631 1067q116 0 209-38 91-37 150-107 60-71 84-170 24-100 9-225-15-126-64-225-49-100-126-171t-177-108q-102-38-218-38t-209 38q-91 37-151 108-59 70-85 171-24 96-9 225 15 123 65 225 50 101 126 170 77 69 178 107 102 38 218 38zm-109-888q132 0 205 88 74 89 95 258 21 171-31 259-53 89-184 89-133 0-207-89t-95-259q-21-169 31-257 53-89 186-89zm91 1144q-3-31-17-54-15-25-37-43-23-19-50-29-28-11-56-11-26 0-51 11-24 11-41 29-18 20-25 43-8 27-5 54 3 31 18 56 17 28 36 45 22 19 49 31 25 11 54 11 31 0 53-11 25-12 42-31 19-20 26-45 7-24 4-56zm383 0q-3-31-17-54-14-24-36-43-20-17-50-29-28-11-56-11t-53 11q-24 11-41 29-18 20-25 43-7 24-4 54 3 31 18 56t36 45q20 19 48 31 25 11 56 11t53-11q27-14 42-31 18-21 25-45t4-56z"/><glyph unicode="÷" horiz-adv-x="1102" d="M64 781h999l-23-187h-999zm377 271q5 33 19 60 13 25 39 49 22 21 53 33 30 12 63 12 32 0 59-12t45-33q20-23 28-49 9-27 4-60-5-34-19-61-14-26-40-49-23-20-53-32t-62-12q-33 0-60 12-28 13-45 32t-26 49q-9 29-5 61zm-89-729q5 33 19 60t38 49q22 21 53 33 30 12 63 12 32 0 59-12 29-13 46-33 18-21 27-49 9-30 5-60-4-31-20-61-15-28-39-49-22-19-54-32-30-12-62-12-33 0-60 12-28 13-45 32t-26 49q-9 27-4 61z"/><glyph unicode="ø" horiz-adv-x="1318" d="M1078 914q57-70 81-168 23-95 8-219-15-126-64-225-49-100-126-171t-177-108q-102-38-218-38-78 0-137 14-62 15-116 44l-40-48q-34-40-79-57t-82-17h-93l184 214q-59 71-83 170-23 96-8 222 15 123 65 225 50 101 126 170 77 70 177 107 102 38 219 38 75 0 138-15 60-14 115-44l67 76q20 24 28 32 13 14 27 21 15 9 29 11 22 4 39 4h125zm-706-389q-15-120 8-201l449 522q-53 35-137 35-134 0-216-93-83-94-104-263zm233-354q131 0 214 92 82 91 103 262 7 54 5 110-1 49-12 88l-447-519q52-33 137-33z"/><glyph unicode="ù" horiz-adv-x="1208" d="M1123 184q49-10 43-64l-15-120h-310q-49 0-58 46l-8 84q-42-37-74-60-35-25-80-46-42-19-89-30-44-10-99-10-85 0-149 29-62 28-101 82-38 51-52 127-13 73-3 161l57 465-102 18q-49 10-43 64l14 121h409l-82-668q-12-96 26-149t127-53q63 0 126 29 59 27 119 81l68 557q-94 17-101 18-50 11-44 64l15 121h408l-104-848q60-10 102-19zm-484 1313q41 0 60-14 20-15 31-40l116-249h-145q-27 0-45 8-17 8-33 28l-220 267h236z"/><glyph unicode="ú" horiz-adv-x="1208" d="M1123 184q49-10 43-64l-15-120h-310q-49 0-58 46l-8 84q-42-37-74-60-35-25-80-46-42-19-89-30-44-10-99-10-85 0-149 29-62 28-101 82-38 51-52 127-13 73-3 161l57 465-102 18q-49 10-43 64l14 121h409l-82-668q-12-96 26-149t127-53q63 0 126 29 59 27 119 81l68 557q-94 17-101 18-50 11-44 64l15 121h408l-104-848q60-10 102-19zm-38 1313l-286-267q-22-21-41-28-21-8-48-8h-151l176 249q17 26 41 40 23 14 63 14h246z"/><glyph unicode="û" horiz-adv-x="1208" d="M1123 184q49-10 43-64l-15-120h-310q-49 0-58 46l-8 84q-42-37-74-60-35-25-80-46-42-19-89-30-44-10-99-10-85 0-149 29-62 28-101 82-38 51-52 127-13 73-3 161l57 465-102 18q-49 10-43 64l14 121h409l-82-668q-12-96 26-149t127-53q63 0 126 29 59 27 119 81l68 557q-94 17-101 18-50 11-44 64l15 121h408l-104-848q60-10 102-19zm-76 1012h-169q-32 0-49 18l-96 98q-1 1-4 4.5t-5 5.5q-7 7-10 12-6-8-12-12-2-2-6-5.5t-6-4.5l-121-98q-6-5-24-12-15-6-30-6h-175l269 285h238z"/><glyph unicode="ü" horiz-adv-x="1208" d="M1123 184q49-10 43-64l-15-120h-310q-49 0-58 46l-8 84q-42-37-74-60-35-25-80-46-42-19-89-30-44-10-99-10-85 0-149 29-62 28-101 82-38 51-52 127-13 73-3 161l57 465-102 18q-49 10-43 64l14 121h409l-82-668q-12-96 26-149t127-53q63 0 126 29 59 27 119 81l68 557q-94 17-101 18-50 11-44 64l15 121h408l-104-848q60-10 102-19zm-464 1139q-3-29-18-54t-37-43q-24-19-49-29-28-11-56-11-27 0-52 11-24 11-41 29-18 20-25 43-8 27-5 54 3 31 18 56 16 26 37 45 23 20 48 31t54 11q31 0 53-11 27-13 43-31 17-19 25-45 8-27 5-56zm383 0q-3-29-18-54-14-24-36-43-21-18-49-29t-56-11-53 11q-24 11-41 29-18 20-25 43-8 27-5 54 3 31 18 56t36 45q20 19 48 31 25 11 56 11t53-11q27-14 42-31 18-21 25-45 8-27 5-56z"/><glyph unicode="ý" horiz-adv-x="1290" d="M1188 1051h62l-15-121q-6-53-59-64-17-3-99-17l-626-1138q-15-27-34-40-20-14-56-14h-189l249 421-242 771q-85 15-95 17-49 10-43 64l14 121h512l-15-121q-6-53-59-64-3 0-16.5-2t-32.5-6l116-399q7-26 12-56 6-38 8-57 14 35 25 57 4 7 12.5 27t14.5 30l202 394q-17 3-30 5.5t-18 3.5-10 1.5-9 1.5q-50 11-44 64l15 121h450zm-105 446l-285-267q-22-21-41-28-21-8-48-8h-151l176 249q17 26 41 40 23 14 63 14h245z"/><glyph unicode="þ" horiz-adv-x="1161" d="M35-343l229 1865h253l-74-600q73 68 154 106 84 39 190 39 86 0 152-35 68-36 111-103 42-65 59-167 17-99 0-228-15-120-58-219-43-98-112-174-66-72-157-115-86-41-192-41-42 0-82 8-35 7-66 24-33 18-54 38-25 24-45 49l-55-447h-253zm640 1213q-78 0-138-33-59-33-116-94l-58-471q36-53 85-74 48-21 106-21 55 0 107 22 49 21 87 65t63 111q27 71 37 159 12 89 4 156-8 66-29 104-22 40-60 58-37 18-88 18z"/><glyph unicode="ÿ" horiz-adv-x="1290" d="M1188 1051h62l-15-121q-6-53-59-64-17-3-99-17l-626-1138q-15-27-34-40-20-14-56-14h-189l249 421-242 771q-85 15-95 17-49 10-43 64l14 121h512l-15-121q-6-53-59-64-3 0-16.5-2t-32.5-6l116-399q7-26 12-56 6-38 8-57 14 35 25 57 4 7 12.5 27t14.5 30l202 394q-17 3-30 5.5t-18 3.5-10 1.5-9 1.5q-50 11-44 64l15 121h450zm-530 272q-3-29-18-54t-37-43q-23-19-50-29-28-11-56-11-26 0-51 11-24 11-41 29-18 20-25 43-8 27-5 54 3 31 18 56 17 28 36 45 22 19 49 31 25 11 54 11 31 0 53-11 25-12 42-31 19-20 26-45 8-27 5-56zm383 0q-3-29-18-54-14-24-36-43-20-17-50-29-28-11-56-11t-53 11q-24 11-41 29t-24 43q-8 27-5 54 3 31 18 56t36 45q20 19 48 31 25 11 56 11t53-11q27-14 42-31 18-21 25-45 8-27 5-56z"/><glyph unicode="Œ" horiz-adv-x="2233" d="M1295 1481h901l-18-142-9-77-21-170h-118q-40 0-43 38-2 16 1 132h-476l-50-411h500l-26-212h-500l-51-419h475q21 96 32 133 14 38 52 38h118l-21-171-9-76-18-144h-901l23 189q-100-96-228-150t-276-54q-152 0-269 57-118 58-194 157-78 102-109 240-31 135-11 301 20 164 85 302 66 138 168 240 101 101 233 158t282 57q149 0 263-54t191-152zm-179-960q41 99 56 219t-2 220-62 167q-47 69-119 106-73 37-171 37t-181-37q-85-38-147-106-64-70-104-167-41-99-56-220-14-116 3-219 17-98 63-167 46-68 120-105t172-37q99 0 180 37 84 38 145 105 62 68 103 167z"/><glyph unicode="œ" horiz-adv-x="1602" d="M1256 1066q71 0 127-19t97-54q38-33 62-83 22-47 22-107 0-66-29-126-28-58-98-104-69-46-192-79-127-34-308-52 3-136 58-198 56-64 152-64 69 0 112 18 42 17 76 40 13 9 56 39 25 18 55 18 28 0 46-23l64-77q-53-53-106-95-47-38-107-65-58-27-115-38-60-12-131-12-99 0-179 49-81 49-127 149-77-97-178-147-104-51-227-51-87 0-150 31-68 33-109 83-45 54-67 122-22 67-22 147 0 172 46 301 46 130 125 219 77 87 181 133 102 45 213 45 103 0 174-43 72-43 114-120 66 76 158 120 90 43 207 43zm-810-894q57 0 103 23 44 22 78 62 33 40 54 88 21 50 35 105 13 50 19 108 5 45 5 102 0 104-39 161t-120 57q-69 0-125-36-53-34-93-101-37-61-59-157-20-87-20-203 0-39 8-79 8-38 27-66 20-29 51-47 30-17 76-17zm770 719q-100 0-172-76-74-78-97-219 123 16 203 39 79 22 124 48 46 26 62 54 17 29 17 57 0 40-33 68-34 29-104 29z"/><glyph unicode="Ÿ" horiz-adv-x="1516" d="M1445 1481h34l-15-121q-6-53-59-64-1 0-3-.5t-5-1-5-.5q-6-1-31-6-10-2-62-10l-504-703-45-372q13-3 32.5-6.5t26.5-4.5q8-2 18-3.5t11-1.5q10-2 13-3 49-10 43-64l-14-120h-586l15 120q6 53 59 64 5 2 13 3 2 0 7 1t11 2 13 2 27.5 4.5 34.5 6.5l46 372-333 703q-13 3-33 6t-26 4q-14 3-29 6-10 2-13 2-49 10-43 64l15 121h553l-15-121q-6-53-59-64-2 0-10-2-1 0-4.5-1t-7.5-2l-8-2q-2-1-13-3.5t-17-3.5l152-357q20-49 31-84 16-52 22-77 12 26 40 78 24 43 51 83l238 357q-7 2-29 7-5 1-12 3l-7 2q-8 2-9 2-49 10-43 64l15 121h519zm-730 226q-3-28-18-52-16-26-36-43-22-19-48-29t-56-10q-28 0-49 10-22 10-39 29-16 17-24 43-7 23-4 52 3 26 17 53 12 23 35 44 18 17 46 30 23 11 52 11 31 0 53-11 27-14 41-30 18-22 25-44 8-27 5-53zm443 0q-3-25-18-52t-34-43q-23-20-47-29-26-10-55-10t-52 10q-22 10-40 29t-25 43q-7 23-4 52 3 26 17 53 12 23 35 44 18 17 48 30 25 11 54 11 31 0 53-11 24-12 39-30 17-20 24-44 8-27 5-53z"/><glyph unicode="ˆ" horiz-adv-x="816" d="M762 1196h-169q-33 0-49 18l-96 98q-1 1-4 4.5t-5 5.5q-5 4-9 12-4-6-13-12-2-2-6-5.5t-6-4.5l-121-98q-6-5-24-12-15-6-30-6h-175l270 285h237z"/><glyph unicode="˜" horiz-adv-x="799" d="M515 1392q31 0 51 17 19 16 25 60h153q-8-58-28-103-20-44-54-80-33-35-72-52-38-17-87-17-38 0-67 13-36 16-56 28-10 6-26.5 16t-21.5 13q-22 13-43 13-31 0-49-17-18-16-24-61h-157q7 56 29 104 21 46 54 79 34 34 74 52 43 19 86 19 36 0 67-14 36-16 56-28 10-6 26.5-16t21.5-13q22-13 42-13z"/><glyph horiz-adv-x="959"/><glyph horiz-adv-x="1919"/><glyph horiz-adv-x="959"/><glyph horiz-adv-x="1919"/><glyph horiz-adv-x="639"/><glyph horiz-adv-x="479"/><glyph horiz-adv-x="319"/><glyph horiz-adv-x="319"/><glyph horiz-adv-x="239"/><glyph horiz-adv-x="383"/><glyph horiz-adv-x="106"/><glyph unicode="‐" horiz-adv-x="677" d="M86 724h531l-26-211h-531z"/><glyph unicode="‑" horiz-adv-x="677" d="M86 724h531l-26-211h-531z"/><glyph unicode="‒" horiz-adv-x="677" d="M86 724h531l-26-211h-531z"/><glyph unicode="–" horiz-adv-x="976" d="M83 703h831l-22-179h-831z"/><glyph unicode="—" horiz-adv-x="1536" d="M83 703h1390l-22-179h-1390z"/><glyph unicode="‘" horiz-adv-x="436" d="M97 1000q-56 114-42 230 12 101 76 196 63 93 171 171l73-48q9-6 12-15 3-10 2-16-2-11-6-18-5-8-11-14-8-8-32-36-18-21-33-45-16-25-27-52t-16-62q-4-29 3-74 6-38 27-82 7-15 6-29-4-33-43-46z"/><glyph unicode="’" horiz-adv-x="434" d="M340 1569q28-56 39-115 11-57 3-115-12-100-76-195-62-91-170-172l-73 48q-10 7-13 15-3 10-2 17 3 18 18 32 6 6 16.5 18.5t15.5 17.5q17 18 33 44 16 25 26 53 11 29 15 61 4 33-2 74t-27 84q-7 13-6 27 4 33 43 46z"/><glyph unicode="‚" horiz-adv-x="453" d="M347 298q28-56 39-115 10-57 3-114-12-101-76-196-62-91-170-172l-73 48q-9 6-12 15-3 10-2 17 3 21 17 33 6 6 17.5 18.5t14.5 16.5q17 18 33 44 16 25 26 53 12 33 16 61 4 29-3 74-6 41-27 84-7 13-6 28 4 32 44 46z"/><glyph unicode="“" horiz-adv-x="776" d="M97 1000q-56 114-42 230 12 101 76 196 63 93 171 171l73-48q9-6 12-15 3-10 2-16-2-11-6-18-5-8-11-14-8-8-32-36-18-21-33-45-16-25-27-52t-16-62q-4-29 3-74 6-38 27-82 7-15 6-29-4-33-43-46zm340 0q-56 114-42 230 12 101 76 196 63 93 171 171l73-48q9-6 12-15 3-10 2-16-2-11-6-18-5-8-11-14-8-8-32-36-18-21-33-45-16-25-27-52t-16-62q-4-29 3-74 6-38 27-82 7-15 6-29-4-33-43-46z"/><glyph unicode="”" horiz-adv-x="774" d="M340 1569q28-56 39-115 11-57 3-115-12-100-76-195-62-91-170-172l-73 48q-10 7-13 15-3 10-2 17 3 18 18 32 16 16 32 35 21 25 33 44 15 24 26 54 11 29 15 61 4 33-2 74t-27 84q-7 13-6 27 4 33 43 46zm340 0q28-56 39-115 11-57 3-115-12-100-76-195-62-91-170-172l-73 48q-10 7-13 15-3 10-2 17 3 18 18 32 15 16 32 35 21 25 33 44 15 24 26 54 11 29 15 61 4 33-2 74t-27 84q-7 13-6 27 4 33 43 46z"/><glyph unicode="„" horiz-adv-x="793" d="M347 298q28-56 39-115 10-57 3-114-12-101-76-196-62-91-170-172l-73 48q-9 6-12 15-3 10-2 17 3 21 17 33 21 21 32 34 21 25 33 44 15 24 26 54 12 33 16 61 4 29-3 74-6 41-27 84-7 13-6 28 4 32 44 46zm340 0q28-56 39-115 10-57 3-114-12-101-76-196-62-91-170-172l-73 48q-9 6-12 15-3 10-2 17 3 21 17 33 21 21 32 34 21 25 33 44 15 24 26 54 12 33 16 61 4 29-3 74-6 41-27 84-7 13-6 28 4 33 43 46z"/><glyph unicode="•" horiz-adv-x="1001" d="M54 607q12 95 56 173 44 79 113 142 67 62 153 96 87 35 178 35t170-35q77-34 130-96t78-142q27-85 15-173-10-86-57-171-45-80-113-141-68-60-154-95-87-35-178-35t-169 35q-77 35-130 95-52 60-78 141-25 78-14 171z"/><glyph unicode="…" horiz-adv-x="1524" d="M59 139q5 34 19 61 15 28 39 49 25 22 53 33 30 12 63 12 32 0 59-12t45-33 27-49q9-30 5-61t-20-61q-12-23-39-48-22-21-53-33-27-11-62-11t-60 11q-27 12-45 33-19 22-27 48-9 27-4 61zm1093 0q5 34 19 61 15 28 39 49t54 33 63 12q32 0 59-12t45-33 27-49q9-30 5-61t-20-61q-12-23-39-48-22-21-53-33-28-11-62-11-35 0-60 11-29 13-46 33t-26 48q-9 29-5 61zm-547 0q5 32 20 61t38 49q24 21 54 33t63 12q32 0 59-12t45-33 27-49q9-30 5-61t-20-61q-12-23-39-48-22-21-53-33-28-11-62-11-35 0-60 11-27 12-45 33-19 22-27 48-9 29-5 61z"/><glyph horiz-adv-x="383"/><glyph unicode="‹" horiz-adv-x="525" d="M49 535l4 32 312 406 78-39q19-9 27-24 6-13 5-31-3-24-18-44l-171-241q-18-28-38-43 13-13 27-43l112-242q11-23 8-44-4-36-46-54l-87-39z"/><glyph unicode="›" horiz-adv-x="526" d="M160 129l-78 39q-20 9-27 23-7 13-5 32 3 23 18 43l171 242q18 26 38 43-17 17-27 43l-112 241q-11 23-8 44 4 37 46 55l88 39 212-406-4-32z"/><glyph horiz-adv-x="479"/><glyph unicode="€" horiz-adv-x="1295" d="M92 950h136q39 123 103 226 64 102 146 172 81 70 180 109 95 38 207 38 143 0 237-55 96-56 152-148l-101-96q-8-8-24-20-12-9-33-9-12 0-25 9-3 2-23 20-18 16-29 27-12 12-38 26-28 15-54 21-34 8-77 8-120 0-214-83-93-83-146-245h514l-9-78q-3-22-25-43-22-20-54-20h-461q-4-25-5-34l-4-35-3-24q-2-16-2-24h434l-9-77q-3-23-24-43-22-20-54-20h-352q8-176 78-263 70-86 192-86 72 0 120 20 47 20 79 44 20 15 52 45 22 20 44 20 8 0 20-4 7-2 15-14l97-100q-85-111-203-169-120-59-264-59-121 0-211 40t-152 114q-63 76-94 178-32 107-35 234h-130l17 140h119q0 8 2 24l3 24 4 35q1 9 5 34h-118z"/><glyph unicode="™" horiz-adv-x="1441" d="M958 1193q8-24 11-36 3-10 7-37 3 6 9 18.5t9 18.5q12 24 20 36l169 261q12 20 25 23 16 4 34 4h151l-76-618h-154l38 309 24 102-195-309q-24-38-64-38h-24q-42 0-56 38l-117 304-1-97-38-309h-153l75 618h151q22 0 34-3 11-3 19-24zm-379 288l-18-144h-168l-58-474h-175l58 474h-167l18 144h510z"/><glyph unicode="◼" horiz-adv-x="1049" d="M0 1050h1050v-1050h-1050v1050z"/></font>
</defs>
</svg>
