<svg xmlns="http://www.w3.org/2000/svg"><defs><font horiz-adv-x="1582"><font-face units-per-em="2048" ascent="1649" descent="-399"/><glyph unicode="ﬁ" horiz-adv-x="1222" d="M58 942v75h164v57q0 197 119 311 121 117 354 121 191 0 315-95 57-40 57-107 0-52-40-91-37-38-78-38-42 0-63 10-24 11-41 28-38 38-38 91 0 22 6 41-92 34-188 15-93-18-143-65-83-77-83-226v-52h627v-867l117-24q31-6 31-38v-88h-330v885h-438v-735q118-20 136-24 30-6 30-38v-88h-509v88q0 32 32 38 3 0 17.5 3t45.5 9 64 12v732l-114 13q-50 12-50 47zm637-942v88q0 32 32 38l117 24v-150h-149z"/><glyph unicode="ﬂ" horiz-adv-x="1340" d="M58 935v82h164v55q0 183 107 298 116 125 319 125l316-12h102v-1204q2-82 34-119 33-37 113-37h41q16 0 23-3 7-4 9-17l8-98q-53-20-125-20-142 0-217 86-68 75-68 210v1078h-208q-133 0-205-76-72-77-72-212v-54h271v-132h-264v-734q118-20 136-24 30-6 30-38v-88h-509v88q0 32 32 38 5 2 127 24v717l-114 16q-50 12-50 51z"/><glyph horiz-adv-x="0"/><glyph horiz-adv-x="269"/><glyph horiz-adv-x="269"/><glyph horiz-adv-x="269"/><glyph horiz-adv-x="440"/><glyph horiz-adv-x="440"/><glyph horiz-adv-x="440"/><glyph unicode="!" horiz-adv-x="397" d="M71 113q0 26 9 50 7 20 27 41 15 16 40 27t51 11q25 0 50-11t41-27q19-19 27-41 10-27 10-50 0-26-10-51-9-22-27-40-20-20-41-28-24-9-50-9-27 0-51 9-22 8-40 28-20 21-27 40-9 22-9 51zm44 769v585h173v-585q0-32-2-90-2-60-4-89-2-27-8-91-2-24-11-100h-124q-2 18-10 100-6 64-8 91-4 60-5 89t-1 90z"/><glyph unicode=""" horiz-adv-x="676" d="M89 1170v297h159v-297l-17-158q-3-34-17-51-15-18-46-18-27 0-42 18t-21 51zm341 0v297h159v-297l-17-158q-3-34-17-51-15-18-46-18-27 0-42 18t-21 51z"/><glyph unicode="#" horiz-adv-x="1165" d="M48 485q0 1 .5 5.5t.5 6.5q0 8 1 12l8 58h209l67 334h-238l14 76q4 28 23 44 17 14 58 14h162l74 367q6 30 28 48 21 17 53 17h82l-86-432h253l86 432h81q26 0 42-15 17-15 17-40 0-10-1-13l-75-364h217l-13-77q-4-29-24-43t-58-14h-141l-67-334h184q25 0 37-11 14-12 14-42 0-1-.5-5t-.5-6q0-7-1-11l-10-59h-242l-86-433h-83q-24 0-40 17t-16 45v8q0 3 2 9l72 354h-253l-72-363q-7-36-32-54-22-16-52-16h-81l87 433h-150q-23 0-37 12-13 12-13 40zm370 82h253l66 334h-253z"/><glyph unicode="$" horiz-adv-x="1055" d="M34 175l54 84q7 11 21 19 13 7 27 7 19 0 44-20 8-6 61-44 35-25 85-49 51-25 119-32l38 544q-58 17-140 49-69 27-124 70-54 43-88 110-34 68-34 165 0 74 29 146 29 71 85 127 53 53 138 90 81 35 189 40l10 147q2 20 15 35t36 15h68l-15-202q107-13 186-56t139-101l-44-68q-21-30-47-30-17 0-36 12-27 17-50 30-38 21-69 34-39 16-89 24l-34-496q83-26 146-49 75-28 129-68 55-41 92-105 36-63 36-158 0-89-31-173-29-78-90-142-58-61-144-100-83-38-195-44l-12-181q-1-18-16-34-14-15-36-15h-67l15 232q-125 12-226 61t-175 126zm235 922q0-50 18-86 19-38 48-64 28-25 72-48 37-19 89-37l30 462q-67-6-115-27-49-21-80-51-31-29-46-69-16-42-16-80zm292-957q66 6 118 29 50 22 87 59 36 36 54 84t18 105q0 51-19 88-19 36-52 63-31 25-77 46-41 18-94 36z"/><glyph unicode="%" horiz-adv-x="1567" d="M55 1113q0 85 25 157 23 67 68 115t103 72q61 25 129 25 66 0 128-25 59-23 104-72 42-45 68-115t26-157-27-154q-28-71-71-115-46-48-104-71-60-24-124-24-70 0-129 24t-103 71-68 115q-25 70-25 154zm97-1113l1067 1431q14 19 28 27 13 9 39 9h131l-1072-1437q-13-16-24-22-16-8-34-8h-135zm47 1113q0-68 13-113t39-76q23-28 58-42 32-13 71-13t71 13 58 42q24 27 40 76 14 43 14 113 0 72-14 115-16 48-40 77-26 31-58 44t-71 13-71-13q-34-14-58-44-26-33-39-77-13-45-13-115zm668-767q0 85 25 157 24 69 69 117 44 47 102 71 61 25 129 25 66 0 128-25 58-23 103-71t69-117q25-72 25-157 0-86-27-153-28-71-71-115-45-47-104-71t-123-24q-70 0-129 24-58 24-102 71-45 48-69 115-25 70-25 153zm144 0q0-65 14-113 13-46 38-75 23-28 58-42 32-13 71-13t71 13 58 42q25 28 40 75 14 43 14 113t-14 115q-15 49-40 78-25 30-58 43-32 13-71 13t-71-13q-35-14-58-43-25-31-38-78-14-50-14-115z"/><glyph unicode="&" horiz-adv-x="1434" d="M52 391q0 71 24 136 23 61 67 118 40 52 101 97 59 44 128 74-61 77-92 154-30 75-30 154 0 75 27 141t78 114q52 49 125 77 72 28 164 28 81 0 148-26 68-26 115-69 49-45 77-100 27-55 32-119l-114-22q-3-1-9-1-14 0-25 7-12 8-17 26-8 29-23 55-17 29-41 52-27 25-60 39-36 15-83 15-53 0-92-16-40-17-70-46-28-28-45-68-16-38-16-86 0-35 9-68 10-37 26-66 18-33 45-69 24-32 66-74l422-429q40 71 62 144 24 80 31 151 1 17 13 30 11 12 28 12h113q-1-116-38-232-36-115-103-213l307-311h-176q-31 0-48 7-19 8-41 30l-148 148q-96-93-222-147t-275-54q-82 0-161 27-77 26-141 81t-100 128q-38 78-38 171zm186 14q0-66 24-117 23-49 65-85t91-53q51-18 104-18 114 0 206 42 91 42 161 112l-433 437q-108-59-164-140-54-79-54-178z"/><glyph unicode="'" horiz-adv-x="335" d="M89 1170v297h159v-297l-17-158q-3-34-17-51-15-18-46-18-27 0-42 18t-21 51z"/><glyph unicode="(" horiz-adv-x="491" d="M65 644q0 124 15 243 14 114 49 235 34 118 87 232 55 118 130 234l81-50q10-6 18-16t8-24q0-15-11-35-107-184-163-393t-56-426q0-218 57-425 58-211 162-394 8-17 9-20 2-10 2-16 0-13-8-23-10-12-18-17l-81-49q-76 118-130 233t-87 233q-35 124-49 235-15 119-15 243z"/><glyph unicode=")" horiz-adv-x="492" d="M42-211q0 6 2 16 1 7 8 20 106 186 163 394 56 203 56 425 0 221-55 426t-164 393q-10 19-10 35t7 24q7 9 19 16l80 50q78-121 131-234 53-114 87-232 35-121 49-235 15-119 15-243t-15-243q-14-111-49-235-33-118-87-233-51-109-131-233l-80 49q-10 6-19 17-7 8-7 23z"/><glyph unicode="*" horiz-adv-x="753" d="M67 1341l45 77 177-102q36-21 58-53-11 21-13 37-3 20-3 39v203h90v-202q0-44-14-73 14 17 25 26 16 14 31 23l176 101 45-77-176-102q-15-10-34-17-21-8-36-9 22-2 36-7 19-7 34-17l177-104-45-76-177 102q-25 17-33 23-15 12-26 27 17-36 17-74v-202h-90v201q0 25 2 37 3 19 10 34-22-26-54-46l-176-101-45 76 176 103q38 21 74 24-18 1-38 8-18 6-36 18z"/><glyph unicode="+" horiz-adv-x="1094" d="M56 618v139h415v437h150v-437h416v-139h-416v-440h-150v440h-415z"/><glyph unicode="," horiz-adv-x="427" d="M94 126q0 23 9 44 10 23 24 37 16 16 39 25 25 10 49 10 31 0 55-12t40-31 24-46 8-57q0-47-13-95-14-51-38-99-23-46-61-95-34-44-83-85l-30 30q-14 12-14 29 0 13 15 28 19 21 26 30 13 15 32 43 15 22 30 55t20 63h-13q-27 0-48 9t-38 26q-13 13-24 40-9 23-9 51z"/><glyph unicode="-" horiz-adv-x="699" d="M97 537v154h506v-154h-506z"/><glyph unicode="." horiz-adv-x="432" d="M91 113q0 23 10 50 8 21 26 41 14 15 41 27 25 11 50 11t50-11 41-27q19-19 27-41 10-27 10-50 0-26-10-51-9-22-27-40-20-20-41-28-24-9-50-9t-50 9q-23 9-41 28t-26 40q-10 25-10 51z"/><glyph unicode="/" horiz-adv-x="861" d="M34-92l615 1533q13 31 38 50 23 17 58 17h77l-611-1530q-15-35-43-53-27-17-57-17h-77z"/><glyph unicode="0" horiz-adv-x="1207" d="M72 733q0 191 41 334 41 142 112 234 72 93 169 138t209 45q113 0 210-45t169-138q70-91 113-234 42-141 42-334 0-192-42-333-43-144-113-233-73-93-169-137-97-45-210-45-111 0-209 45-96 44-169 137-71 90-112 233t-41 333zm188 0q0-169 28-281 28-113 76-184t109-100q63-30 130-30t130 30q60 29 110 100 47 67 76 184 28 112 28 281 0 170-28 282-29 117-76 184-50 71-110 100-63 30-130 30t-130-30q-61-29-109-100t-76-184q-28-112-28-282z"/><glyph unicode="1" horiz-adv-x="953" d="M39 1093l436 377h149v-1331q241-18 260-21 28-6 28-36v-82h-786v82q0 30 29 36l286 21v1001q0 44 3 91l-262-224q-21-16-37-16-34 0-49 23z"/><glyph unicode="2" horiz-adv-x="1088" d="M50 0v63q0 18 8 40 7 20 25 38l470 472q66 67 106 114 52 60 83 110 36 58 53 112 18 57 18 122 0 67-20 113-21 49-57 80-36 32-84 48-47 16-103 16-55 0-103-17-47-17-83-45-35-28-61-69-25-40-36-89-7-29-24-43-16-13-43-13-1 0-5 .5t-6 .5q-8 0-13 1l-95 17q15 100 55 177 40 76 104 130 62 52 144 79 81 27 176 27 93 0 174-27 79-26 140-81 59-53 93-128 33-73 33-172 0-83-24-152-22-65-67-133-42-65-97-124-74-80-116-123l-386-395q40 12 83 18 49 7 81 7h402q10 114 11 118 3 15 15 25t27 10h99v-327h-977z"/><glyph unicode="3" horiz-adv-x="1085" d="M41 367l78 32q23 10 43 10t36-9 24-27q0-1 2-4t2-5q1-1 2.5-4.5t1.5-5.5q21-42 35-67 20-35 56-70 33-32 86-55 52-23 129-23t134 25q58 25 96 65 39 40 58 89 20 51 20 98 0 60-16 108-17 51-57 85-42 36-115 57-70 20-188 20v132q93 2 159 21 68 20 108 53 41 34 61 81 19 45 19 104 0 63-20 111-20 47-55 78-37 32-82 46-48 15-103 15-57 0-102-16-47-17-84-46-38-30-61-69-25-43-37-88-7-29-24-43-16-13-42-13h-11q-3 0-13 2l-95 16q15 101 55 178 39 75 104 129 63 53 145 80 81 27 175 27 93 0 172-27 80-27 136-76 58-51 89-118 31-68 31-155 0-68-18-124-18-55-51-97-32-40-80-70-44-27-106-46 143-37 216-127 72-88 72-223 0-103-38-182-39-81-105-138t-155-87q-88-30-190-30-116 0-200 29-82 28-140 80-57 51-95 122-36 67-62 152z"/><glyph unicode="4" horiz-adv-x="1197" d="M48 520l714 947h170v-938h222v-104q0-15-10-28-8-11-30-11h-182v-386h-161v386h-650q-20 0-35 12t-19 29zm198 9h525v606q0 17 2 57 1 30 6 63z"/><glyph unicode="5" horiz-adv-x="1039" d="M42 138l55 78q18 27 49 27 21 0 46-16 26-17 63-36 32-17 87-35 48-16 118-16 74 0 138 25 60 23 105 70 42 43 67 109 24 63 24 142 0 67-20 124-19 55-61 95-40 39-101 60-60 21-141 21-55 0-115-9-65-10-123-29l-114 33 119 686h695v-79q0-37-25-64-24-26-83-26h-460l-68-385q119 25 212 25 116 0 202-34 89-35 147-93 61-61 90-140 30-81 30-176 0-115-41-211-40-93-112-162-69-66-168-103-93-35-207-35-71 0-124 12-57 13-111 35-48 20-95 49-39 25-78 58z"/><glyph unicode="6" horiz-adv-x="1100" d="M57 484q0 98 43 205 44 110 137 234l371 500q16 19 40 32 23 12 59 12h161l-509-644q53 37 116 56 65 20 137 20 86 0 167-29 77-28 139-85 59-54 94-137 35-82 35-186 0-103-37-189-37-87-103-151t-159-102q-89-36-205-36-113 0-200 35-92 37-154 100t-97 158q-35 94-35 207zm176-31q0-71 21-129 21-59 60-101 40-43 96-65 58-23 130-23 73 0 133 24 62 25 102 65 42 42 65 100t23 125q0 72-22 129-21 55-64 98-41 41-98 62-60 22-126 22-74 0-133-25-57-24-101-68-41-41-64-98-22-54-22-116z"/><glyph unicode="7" horiz-adv-x="1112" d="M63 1110v357h998v-82q0-51-24-95l-607-1225q-33-65-100-65h-130l616 1210q29 54 58 88h-655q-12-146-14-153-8-35-42-35h-100z"/><glyph unicode="8" horiz-adv-x="1100" d="M57 401q0 141 74 233t211 131q-118 44-175 128-58 85-58 205 0 82 31 151 32 71 90 123 57 51 140 82 81 30 182 30 98 0 181-30 82-30 140-82 60-54 91-123t31-151q0-121-59-205t-174-128q137-39 211-131t74-233q0-93-37-173-36-77-101-132t-156-83q-93-29-201-29t-201 29q-88 27-156 83-66 54-102 132t-36 173zm189 3q0-61 21-112t60-87q40-37 96-56 58-20 129-20 70 0 128 20t97 56 60 87 21 112q0 77-25 130t-68 88q-38 32-97 49-54 16-116 16t-116-16q-60-18-98-49-42-34-67-88-25-53-25-130zm41 691q0-55 14-98 16-48 46-83t83-58q50-22 122-22t122 22q53 23 83 58t46 83q14 43 14 98 0 50-17 96-16 43-50 79-31 33-83 53-48 19-115 19t-115-19q-52-20-83-53-34-36-50-79-17-46-17-96z"/><glyph unicode="9" horiz-adv-x="1070" d="M57 1023q0 96 36 180 36 83 101 147 63 61 153 98 88 36 196 36 104 0 191-35 88-35 148-97 61-62 94-150 34-90 34-192 0-64-12-121-13-59-34-111-22-54-54-108-36-62-71-111l-358-516q-13-18-38-31-24-12-56-12h-168l447 585 42 56q9 12 36 53-55-44-127-68-71-24-149-24-81 0-157 28-74 27-131 81-55 52-89 132t-34 180zm183 13q0-67 20-124 20-56 57-93 38-38 91-57 55-20 120-20 74 0 131 24 58 24 96 64 37 39 59 93 21 53 21 108 0 71-22 125-23 56-61 94-39 39-93 60t-118 21q-70 0-124-22-57-23-95-61-41-41-61-93-21-54-21-119z"/><glyph unicode=":" horiz-adv-x="423" d="M87 113q0 23 10 50 8 21 26 41 14 15 41 27 25 11 50 11t50-11 41-27q19-19 27-41 10-27 10-50 0-26-10-51-9-22-27-40-20-20-41-28-24-9-50-9t-50 9q-23 9-41 28t-26 40q-10 25-10 51zm0 768q0 23 10 50 8 21 26 41 14 15 41 27 25 11 50 11t50-11 41-27q19-19 27-41 10-27 10-50 0-26-10-51-9-22-27-40-20-20-41-28-24-9-50-9t-50 9q-23 9-41 28t-26 40q-10 25-10 51z"/><glyph unicode=";" horiz-adv-x="422" d="M87 881q0 23 10 50 8 21 26 41 14 15 41 27 25 11 50 11t50-11 41-27q19-19 27-41 10-27 10-50 0-26-10-51-9-22-27-40-20-20-41-28-24-9-50-9t-50 9q-23 9-41 28t-26 40q-10 25-10 51zm6-755q0 23 9 44 10 23 24 37 16 16 39 25 25 10 49 10 31 0 55-12t40-31 24-46 8-57q0-47-13-95-14-51-38-99-23-46-61-95-34-44-83-85l-30 30q-14 12-14 29 0 13 15 28 19 21 26 30 13 15 32 43 15 22 30 55t20 63h-13q-27 0-48 9t-38 26q-13 13-24 40-9 23-9 51z"/><glyph unicode="<" horiz-adv-x="930" d="M62 651v76l793 411v-130q0-17-8-31-7-12-29-23l-460-233q-20-11-43-19-25-8-49-14 21-4 49-13 15-5 43-19l460-232q22-11 29-24 8-14 8-29v-131z"/><glyph unicode="=" horiz-adv-x="1077" d="M99 450v138h880v-138h-880zm0 343v138h880v-138h-880z"/><glyph unicode=">" horiz-adv-x="932" d="M79 240v131q0 15 8 29 7 13 29 24l459 232q28 14 43 19 29 10 48 13-20 5-48 14-23 8-43 19l-459 233q-22 11-29 23-8 14-8 31v130l791-411v-76z"/><glyph unicode="?" horiz-adv-x="841" d="M44 1336q33 31 70 57 35 24 84 47 40 19 98 32 52 12 115 12 81 0 150-24 73-25 119-66 51-45 79-105t28-138q0-76-23-134t-58-99q-39-45-77-74-14-11-40.5-30.5t-38.5-28.5q-34-26-62-55-26-27-30-61l-19-157h-125l-12 170v11q0 43 23 77 24 35 58 62 51 41 76 58 37 26 76 65 36 36 58 80 23 46 23 107 0 46-17 80-18 37-47 61-28 24-70 38-39 13-87 13-62 0-107-15-41-14-75-34-26-16-50-34-19-15-31-15-25 0-40 24zm201-1223q0 26 9 50 7 20 27 41 14 15 41 27 25 11 50 11t50-11 41-27q19-19 27-41 10-27 10-50 0-26-10-51-9-22-27-40-20-20-41-28-24-9-50-9t-50 9q-23 9-41 28-20 21-27 40-9 23-9 51z"/><glyph unicode="@" horiz-adv-x="1637" d="M62 582q0 110 29 215 29 104 79 193 52 91 123 164 75 77 160 127 90 53 189 81 107 30 212 30 94 0 184-21 96-22 171-60 80-40 148-99 69-59 116-135 50-79 76-170 27-93 27-204 0-112-31-204-32-95-86-162-55-69-129-108t-161-39q-81 0-130 39-50 39-63 118-61-83-129-119-67-35-150-35-61 0-106 21-46 21-75 58-30 38-45 88-15 51-15 111 0 87 33 176t99 159q69 74 163 117 97 45 226 45 67 0 120-11 54-11 98-31l-95-370q-20-78-20-127 0-34 10-61 9-25 25-38 19-15 36-19 23-5 45-5 49 0 95 29t80 81q35 53 54 125 20 75 20 162 0 139-46 248-45 107-125 178-79 70-187 106t-233 36q-138 0-257-52t-209-145q-89-92-140-218t-51-274q0-178 54-306 56-133 150-221 95-89 222-134t274-45q157 0 275 34 121 35 206 86 15 9 28 9 22 0 32-24l25-68q-111-74-249-116-140-42-317-42t-330 57-264 162q-113 107-177 259t-64 349zm537-106q0-74 34-118 35-45 100-45 29 0 64 11t63 35 55 70q22 37 42 111l78 302q-41 9-87 9-78 0-141-32t-110-85q-47-52-72-120-26-69-26-138z"/><glyph unicode="A" d="M51 0v81q0 28 27 34l82 24 531 1328h202l530-1328 82-24q27-6 27-34v-81h-421v81q0 27 28 35l84 23-115 296h-633l-115-296 84-23q28-8 28-35v-81h-421zm479 579h523l-217 563q-24 59-44 138-21-78-43-139z"/><glyph unicode="B" horiz-adv-x="1290" d="M69 0v88q0 32 30 38l117 24v1168q-25 5-54.5 10.5t-43.5 8.5-19 4q-30 6-30 38v88h615q392 0 487-222 30-72 30-143t-17-122q-17-52-50-93-72-90-208-132 324-65 324-337 0-189-134-302-139-116-381-116h-666zm346 158h317q244 0 304 158 19 51 19 107 0 114-81 180t-243 66h-316v-511zm0 652h262q244 0 307 148 20 48 20 103 0 129-78 189-79 61-242 61h-269v-501z"/><glyph unicode="C" horiz-adv-x="1301" d="M46 733q0 334 205 542 206 209 543 209 171 0 453-106v-342h-99q-34 0-42 35-3 12-9 93-7 88-7 92-171 54-311 54-235 0-381-154-149-156-149-423t147-426q139-152 362-152 127 0 193 24 102 38 182 109 18 15 33 15 17 0 30-13l78-85q-191-221-529-221-315 0-507 209-192 207-192 540z"/><glyph unicode="D" horiz-adv-x="1521" d="M70 0v88q0 32 30 38l117 24v1168q-25 5-54.5 10.5t-43.5 8.5-19 4q-30 6-30 38v88h676q326 0 524-201 199-203 199-533 0-166-52-300-53-135-147-231-200-202-524-202h-676zm347 161h329q239 0 378 151 142 154 142 421 0 137-37 242-37 107-105 180-138 152-378 152h-329v-1146z"/><glyph unicode="E" horiz-adv-x="1202" d="M70 0v88q0 32 30 38l117 24v1168q-25 5-54.5 10.5t-43.5 8.5-19 4q-30 6-30 38v88h1051v-354h-98q-35 0-43 36-2 14-14 157h-549v-488h540v-155h-540v-501h550q12 142 13 145 8 35 43 35h98v-342h-1051z"/><glyph unicode="F" horiz-adv-x="1197" d="M70 0v88q0 32 30 38l117 24v1168q-25 5-54.5 10.5t-43.5 8.5-19 4q-30 6-30 38v88h1086v-354h-99q-35 0-42 36-4 26-15 157h-583v-513h557v-162h-557v-481q7-1 45.5-9t71.5-15q30-6 30-38v-88h-494z"/><glyph unicode="G" horiz-adv-x="1400" d="M46 733q0 337 203 543 205 208 548 208 236 0 518-106v-342h-98q-35 0-43 35-6 62-16 185-72 22-78 24-117 32-264 32-148 0-250-41-101-41-171-115-146-155-146-423 0-274 150-433 147-156 387-156 200 0 364 86v324h-227q-21 0-32 11t-11 28v113h450v-564q-219-158-558-158-321 0-522 207-204 210-204 542z"/><glyph unicode="H" horiz-adv-x="1616" d="M69 0v88q0 32 30 38l117 24v1168q-99 20-123 24t-24 37v88h494v-88q0-32-22-36-2 0-21.5-4t-46-9.5-57.5-11.5v-505h790v505q-99 20-123 24t-24 37v88h495v-88q0-32-31-38l-117-23v-1168q28-6 56-11.5t45-9 23-4.5q24-5 24-37v-88h-495v88q0 32 31 38l116 24v518h-790v-518q147-30 147-62v-88h-494z"/><glyph unicode="I" horiz-adv-x="625" d="M69 0v88q0 32 30 38l117 24v1168q-99 20-123 24t-24 37v88h494v-88q0-32-32-38l-116-23v-1168q28-6 56-11.5t45-9 23-4.5q24-5 24-37v-88h-494z"/><glyph unicode="J" horiz-adv-x="905" d="M55 12q9 130 22 143t33 13q21 0 51-9t82-9q283 0 283 353v815q-129 21-136 23-31 6-31 38v88h512v-88q0-32-30-38l-117-23v-811q0-379-264-488-83-35-192-35-107 0-213 28z"/><glyph unicode="K" horiz-adv-x="1455" d="M69 0v88q0 32 30 38l117 24v1168q-25 5-54.5 10.5t-43.5 8.5-19 4q-30 6-30 38v88h493v-88q0-32-32-38-56-12-116-23v-494h74q69 0 106 43l411 465q-62 13-90 18-28 6-28 35v82h462l3-77q0-32-31-38-1 0-32.5-8t-62.5-16l-436-492q-47-51-81-67 47-16 95-74l464-553 48-10 37-7.5 18-3.5q31-6 31-38v-83h-481v82q0 30 28 36 11 1 94 18l-425 489q-36 39-62 43-24 4-52 4h-90v-522q46-10 116-24 32-6 32-38v-88h-493z"/><glyph unicode="L" horiz-adv-x="1167" d="M69 0v88q0 14 9 24.5t22 13.5l116 23v1169q-98 19-116 23-13 3-22 13.5t-9 24.5v88h494v-88q0-13-9-24t-23-14q-8-2-36.5-7.5t-53.5-10.5-26-5v-1151h529q9 110 11 117 3 15 15.5 25t27.5 10h99v-319h-1028z"/><glyph unicode="M" horiz-adv-x="1953" d="M69 0v88q0 32 30 38l117 24v1168q-25 5-54.5 10.5t-43.5 8.5-19 4q-30 6-30 38v88h293q24 0 41-5 15-4 28-28l507-904q21-35 46-106 19 54 47 107l497 903q13 24 27 28 17 5 41 5h295v-88q0-32-31-38-111-23-117-23v-1168q99-20 117-24 31-6 31-38v-88h-489v88q0 32 30 38 35 7 137 24v928q0 52 4 97l-503-918q-25-46-72-46h-28q-47 0-72 46l-514 921q6-54 6-100v-928q88-14 139-25 28-6 28-37v-88h-488z"/><glyph unicode="N" horiz-adv-x="1589" d="M70 0v88q0 32 30 38l117 24v1168q-25 5-54.5 10.5t-43.5 8.5-19 4q-30 6-30 38v88h249q27 0 40-6 12-5 29-27l850-1106q-5 48-5 100v890q-35 6-66.5 11.5t-48.5 8-21 3.5q-31 6-31 38v88h489v-88q0-32-31-38l-117-23v-1318h-100q-43 0-71 36l-849 1105q4-47 4-95v-896q118-20 136-24 31-6 31-38v-88h-488z"/><glyph unicode="O" horiz-adv-x="1545" d="M46 733q0 166 52 303 51 134 148 237 93 99 228 155t295 56 295-56q137-57 229-155 97-103 148-237 52-137 52-303 0-165-52-302-52-136-148-237-95-99-229-155-130-54-295-54t-295 54q-133 55-228 155-96 101-148 237-52 137-52 302zm203 0q0-137 37-242 38-108 105-181 69-76 164-114 96-39 214-39 119 0 215 39 95 38 164 114 65 71 104 181 37 105 37 242 0 136-37 243-38 111-104 182-67 73-164 114-95 40-215 40-119 0-214-40-97-41-164-114t-105-182q-37-107-37-243z"/><glyph unicode="P" horiz-adv-x="1211" d="M70 0v88q0 32 30 38l117 24v1168q-25 5-54.5 10.5t-43.5 8.5-19 4q-30 6-30 38v88h553q140 0 242-31 304-96 304-423 0-210-140-334-146-130-406-130h-208v-399q26-6 116-24 31-6 31-38v-88h-492zm345 707h208q167 0 257 83 91 84 91 223t-87 219q-86 79-261 79h-208v-604z"/><glyph unicode="Q" horiz-adv-x="1575" d="M46 733q0 166 52 303 51 134 148 237 93 99 228 155t295 56 295-56q137-57 229-155 97-103 148-237 52-137 52-303 0-103-21-196-21-95-61-174-40-80-97-146t-129-114l377-406h-164q-39 0-66 10-28 10-52 36l-258 281q-63-19-121-29-60-10-132-10-165 0-295 54-133 55-228 155-96 101-148 237-52 137-52 302zm203 0q0-137 37-242 38-108 105-181 69-76 164-114 96-39 214-39 119 0 215 39 95 38 164 114 65 71 104 181 37 105 37 242 0 136-37 243-38 111-104 182-67 73-164 114-95 40-215 40-119 0-214-40-97-41-164-114t-105-182q-37-107-37-243z"/><glyph unicode="R" horiz-adv-x="1370" d="M69 0v88q0 14 9 24.5t22 13.5l116 23v1169q-98 19-116 23-13 3-22 13.5t-9 24.5v88h542q141 0 241-28t167-81q66-52 98-129 32-76 32-168 0-76-25-146-23-66-71-121-48-56-113-92-68-38-153-57 37-21 66-62l319-434q53-12 114-23 14-3 23-14t9-24v-88h-213q-55 0-80 42l-381 524q-20 27-38 36-20 10-61 10h-131v-463q12 0 116-23 14-3 23-14t9-24v-88h-493zm345 757h188q87 0 153 21 68 22 111 59 45 39 67 92 22 51 22 118 0 132-86 197-88 67-258 67h-197v-554z"/><glyph unicode="S" horiz-adv-x="1037" d="M75 62v368h99q34 0 42-35 5-20 10-101l6-89q152-57 248-57 95 0 152 20 56 20 94 55 79 72 79 194 0 117-110 180-49 29-111 49-192 59-258 89-64 29-113 72-110 99-110 273 0 165 118 280 125 124 327 124 201 0 411-84v-337h-99q-36 0-42 35-1 3-16 182-137 39-242 39-128 0-203-67-69-62-69-161 0-109 110-171 55-32 114-51 187-62 257-93 222-100 222-331 0-199-128-327-137-134-363-134-98 0-202 19-103 19-165 39z"/><glyph unicode="T" horiz-adv-x="1288" d="M45 1143v324h1203v-324h-99q-35 0-40 21-2 9-17 136h-346v-1150l3-1q3-1 9.5-2.5t13.5-2.5q18-3 101-20 22-4 22-36v-88h-495v88q0 31 35 39 58 13 113 23v1150h-346q-16-120-19-136-5-21-39-21h-99z"/><glyph unicode="U" horiz-adv-x="1534" d="M37 1379v88h513v-88q0-32-32-38-4-1-20-3.5t-49-8-67-11.5v-741q0-188 102-302 104-117 285-117t285 116q101 113 101 301v743q-34 6-66.5 11.5t-48.5 8-20 3.5q-32 6-32 38v88h513v-88q0-32-32-38l-116-23v-743q0-258-156-423-160-169-428-169-266 0-428 169-157 166-157 423v743q-113 22-116 23-31 6-31 38z"/><glyph unicode="V" horiz-adv-x="1596" d="M39 1379v88h487v-88q0-33-40-40-46-8-107-21l374-933q23-56 49-161 22 103 45 161l372 933q-25 5-54.5 10.5t-43.5 8.5-19 4q-31 6-31 38v88h489v-88q0-32-31-38l-103-23-537-1318h-179l-537 1318q-24 5-48 10.5t-37 8.5-18 4q-31 6-31 38z"/><glyph unicode="W" horiz-adv-x="2305" d="M38 1379v88h498v-88q0-32-31-38-112-22-117-23l272-918q12-42 28-126 17 85 31 126l345 1020q6 18 24 33 17 14 44 14h57q50 0 67-47l343-1020q18-53 33-121 1 5 5.5 28.5t6.5 35.5q3 21 13 57l273 918q-4 1-115 23-32 6-32 38v88h486v-88q0-32-31-38l-102-23-412-1318h-178l-371 1119q-12 31-21 74-1-5-4.5-18t-5.5-20q-6-26-9-36l-374-1119h-178l-411 1318q-24 5-48 10.5t-37 8.5-18 4q-31 6-31 38z"/><glyph unicode="X" horiz-adv-x="1545" d="M63 0v88q0 32 31 38 50 10 136 24l406 604-383 564q-129 21-136 23-32 6-32 38v88h523v-88q0-32-33-38-11-2-99-20l306-469q5 19 22 47l281 419q-10 2-48.5 9.5t-67.5 13.5q-31 6-31 38v88h526v-88q0-33-25-37-3-1-142-24l-383-555 404-613q117-19 136-24 31-6 31-38v-88h-540v88q0 32 31 38 3 0 11 2t23 5 29 6q10 2 19 4t15 3 10.5 2 6.5 2h3l-322 503q-10-28-18-41l-310-462q1 0 7-1.5t16-3.5 23-4.5 32-6.5 39-8q31-6 31-38v-88h-528z"/><glyph unicode="Y" horiz-adv-x="1435" d="M39 1379v88h493v-88q0-32-31-38-113-23-116-23l274-467q32-55 60-130 25 72 58 130l275 467q-5 1-117 23-31 6-31 38v88h494v-88q0-32-26-37-26-4-108-24l-448-734v-434q15-3 117-24 31-6 31-38v-88h-493v88q0 32 31 38l116 24v434l-446 734q-85 20-104 24-29 6-29 37z"/><glyph unicode="Z" horiz-adv-x="1244" d="M63 0v78q0 30 20 58l831 1170h-656q-13-155-14-161-8-35-42-35h-100v357h1074v-73q0-35-22-66l-830-1166h682q13 155 14 161 7 34 42 34h99v-357h-1098z"/><glyph unicode="[" horiz-adv-x="532" d="M114-296v1866h376v-72q0-22-13-35t-37-13h-173v-1625h173q24 0 37-13t13-36v-72h-376z"/><glyph unicode="\" horiz-adv-x="864" d="M43 1508h78q35 0 58-17 25-19 38-50l616-1533h-77q-32 0-59 17-29 18-42 53z"/><glyph unicode="]" horiz-adv-x="531" d="M43-224q0 19 14 35 13 14 36 14h173v1625h-173q-22 0-36 14t-14 34v72h377v-1866h-377v72z"/><glyph unicode="^" horiz-adv-x="965" d="M57 806l367 661h118l366-661h-132q-19 0-30 10-13 12-20 25l-201 360q-16 28-23 46-15 38-17 43-17-51-38-89l-198-360q-7-13-20-25-11-10-32-10h-140z"/><glyph unicode="_" horiz-adv-x="1051" d="M121-169h807v-123h-807v123z"/><glyph unicode="`" horiz-adv-x="555" d="M75 1484h173q33 0 50-11 16-10 31-34l152-248h-104q-19 0-35 7-11 5-28 22z"/><glyph unicode="a" horiz-adv-x="1051" d="M48 262q0 63 34 119 35 58 109 101 75 43 197 72 124 29 298 29v81q0 120-52 184-50 62-153 62-66 0-112-17-49-18-79-37-23-15-57-38-25-17-48-17-19 0-32 9-14 10-22 25l-33 58q87 84 185 124 100 41 220 41 86 0 155-29 67-28 114-80 44-48 69-124 24-72 24-159v-518q16-3 56-11l45-9q13-3 22-13.5t9-24.5v-88h-213q-25 0-43 8-16 7-21 35l-21 96q-39-36-80-66-43-32-82-49-44-20-91-30-46-10-108-10-60 0-114 17-53 17-91 50-40 36-62 86-23 54-23 123zm175 8q0-42 13-71t36-49q21-19 53-28 27-8 67-8 53 0 88 9 34 8 75 28 31 16 68 44 35 27 63 58v214q-128 0-214-16-88-17-144-42-53-24-80-61-25-34-25-78z"/><glyph unicode="b" horiz-adv-x="1157" d="M33 1420v89h345v-621q65 75 148 120 86 46 191 46 92 0 163-34 75-36 124-101 51-68 78-166 28-103 28-227v-7q0-130-35-226-37-101-97-167-63-69-145-104-84-36-181-36-82 0-196.5 14t-187.5 28l-73 15v1317q-123 21-131 22-13 3-22 13.5t-9 24.5zm345-1259q101-26 204-32 13-1 40-1h12q67 3 112 25 55 25 95 76 39 49 60 123 19 64 21 158v16q0 102-18 174-18 74-52 119-36 48-83 68-52 22-111 22-89 0-157-41-64-38-123-116v-591z"/><glyph unicode="c" horiz-adv-x="927" d="M45 519q0 239 126 384 133 151 363 151 119 0 307-76v-269h-82q-31 0-35 28-4 15-8 77-1 19-2.5 36t-2 24.5-.5 8.5q-46 14-76 19-57 8-104 8h-11q-55-1-112-27-56-25-97-77-79-103-79-287 0-187 82-291 79-101 221-101 127 0 228 86 17 16 39 16t33-17l51-67q-130-159-383-159-201 0-326 140-132 146-132 393z"/><glyph unicode="d" horiz-adv-x="1156" d="M46 515q0 235 120 385 123 156 329 156 172 0 283-123v426q-87 14-136 23-32 6-32 38v88h351v-1358q94-19 116-24 31-6 31-38v-88h-256q-38 0-49 38l-17 126q-147-178-348-178-182 0-285 135-107 139-107 394zm188 0q0-294 152-360 52-22 113-22 160 0 279 157v502q-90 121-239 121t-227-103q-78-104-78-295z"/><glyph unicode="e" horiz-adv-x="1008" d="M44 540q0 108 33 202 33 95 96 164t153 108q92 40 202 40 91 0 172-32 80-32 137-90 56-57 89-145 32-84 32-197 0-43-9-58-8-14-35-14h-690q1-94 27-171 25-74 67-121 45-50 103-73 60-24 133-24 70 0 118 16 54 18 86 34 33 17 60 35 22 15 41 15 24 0 35-17l51-67q-35-42-81-71-44-28-101-49-61-22-111-30-57-9-113-9-109 0-199 36-89 36-156 107-66 70-103 173-37 102-37 238zm186 92h565q0 64-18 116-19 54-51 91-35 39-82 60-48 21-112 21-130 0-207-77t-95-211z"/><glyph unicode="f" horiz-adv-x="761" d="M58 942v75h164v100q0 177 96 276 94 96 261 96 69 0 129-21l-5-91q-1-20-17-24-15-4-46-4h-32q-209 0-209-237v-95h300v-132h-293v-735q118-20 136-24 30-6 30-38v-88h-509v88q0 32 32 38l127 24v732l-114 13q-50 12-50 47z"/><glyph unicode="g" horiz-adv-x="1038" d="M26-99q0 76 48 130t134 86q-46 22-70 55-26 35-26 91 0 21 8 47 6 20 25 47 16 23 41 45 24 21 58 38-78 44-121 114t-43 167q0 75 29 138 29 61 81 105 51 42 125 67 72 24 158 24 69 0 127-15t107-44h281v-67q0-34-43-43l-118-17q35-67 35-148 0-75-29-138-28-61-81-106-49-42-123-67-71-24-156-24-76 0-137 17-35-22-50-44-17-25-17-46 0-35 30-55 32-21 79-28 58-9 111-10 64-2 128-6 68-5 127-16 64-12 112-37t79-71q30-45 30-117 0-64-34-129-34-64-95-111-66-51-153-78-92-29-204-29t-199 23q-85 22-142 60-54 35-84 88-28 49-28 104zm159 23q0-35 18-65t55-52q35-21 93-35 53-13 131-13 71 0 132 14 57 13 99 38t62 58q22 36 22 75 0 37-22 62-21 24-58 37-31 11-85 18-47 6-102 9-52 3-108 6-52 3-106 11-57-26-94-68t-37-95zm63 792q0-46 15-85 15-40 43-66 30-28 71-43 42-15 96-15 56 0 98 15 41 15 71 43 28 26 43 66 14 36 14 85 0 95-57 151-59 57-169 57-109 0-167-57t-58-151z"/><glyph unicode="h" horiz-adv-x="1281" d="M50 1420v88h350v-610q147 156 334 156 168 0 258-108 89-106 89-286v-510q99-20 117-24 31-6 31-38v-88h-330v660q0 248-218 248-152 0-281-144v-614l26-6q77-15 91-18 31-6 31-38v-88h-477v88q0 32 30 38l117 24v1209q-132 22-137 23-31 6-31 38z"/><glyph unicode="i" horiz-adv-x="592" d="M65 0v88q0 14 9 24.5t22 13.5l116 23v739q-98 19-116 23-13 3-22 13.5t-9 24.5v88h330v-888q98-19 116-23 13-3 22-13.5t9-24.5v-88h-477zm110 1363q0 26 11 51t28 42 41 28q21 10 49 10t51-10 41-28q19-19 29-42t10-51q0-29-10-50-11-23-29-41t-41-28-51-10-49 10q-24 11-41 28t-28 41-11 50z"/><glyph unicode="j" horiz-adv-x="529" d="M12-352l8 98q3 21 32 21h40q80 0 114 37t34 120v964q-64 12-117 23-31 6-31 38v88h330v-1114q0-207-159-273-58-23-126-23-69 0-125 21zm191 1715q0 28 10 51 11 25 28 42t41 28q21 10 50 10 27 0 50-10t41-28q19-19 29-42 11-25 11-51t-11-50q-10-23-29-41-18-18-41-28t-50-10q-29 0-50 10-24 11-41 28t-28 41q-10 21-10 50z"/><glyph unicode="k" horiz-adv-x="1184" d="M67 0v88q0 32 30 38l117 24v1209q-25 5-54.5 10.5t-43.5 8.5-19 4q-30 6-30 38v88h330v-887h47q37 0 64 28l233 251q-3 0-10.5 1.5t-11.5 2.5q-30 6-34 7-32 6-32 38v88h432v-88q0-33-25-37-19-3-127-24l-242-257q-30-37-59-54 33-22 61-65l288-362 53-11q14-3 29-6t23-5 11-2q31-6 31-38v-88h-193q-41 0-69 36l-341 425q-16 22-30 28-17 7-46 7h-52v-346q3 0 16.5-3t42.5-9l58-12q31-6 31-38v-88h-478z"/><glyph unicode="l" horiz-adv-x="593" d="M67 0v88q0 32 30 38l117 24v1209q-25 5-54.5 10.5t-43.5 8.5-19 4q-30 6-30 38v88h329v-1358q99-20 117-24 32-6 32-38v-88h-478z"/><glyph unicode="m" horiz-adv-x="1823" d="M69 0v88q0 32 30 38l117 24v738q-25 5-54.5 10.5t-43.5 8.5-19 4q-30 6-30 38v88h256q38 0 49-38l13-106q131 161 294 161 105 0 170-59 66-60 94-157 40 106 136 164 87 52 181 52t160-26q61-24 109-77 91-103 91-291v-510q99-20 117-24 31-6 31-38v-88h-330v660q0 120-54 185-54 63-154 63-95 0-157-62-66-66-66-186v-510q13-2 116-24 31-6 31-38v-88h-330v660q0 248-196 248-127 0-232-135v-623l55-11q16-3 30-6t22.5-5 9.5-2q32-6 32-38v-88h-478z"/><glyph unicode="n" horiz-adv-x="1281" d="M69 0v88q0 32 30 38l117 24v738q-25 5-54.5 10.5t-43.5 8.5-19 4q-30 6-30 38v88h256q38 0 49-38l14-112q152 167 344 167 167 0 259-109 88-104 88-285v-510q99-20 117-24 32-6 32-38v-88h-331v660q0 248-218 248-152 0-281-144v-614q8-2 117-24 32-6 32-38v-88h-478z"/><glyph unicode="o" horiz-adv-x="1081" d="M45 519q0 121 35 221 34 99 99 168 67 71 156 108 93 38 206 38 112 0 205-38 89-37 156-108 63-67 98-168 34-98 34-221t-34-221q-35-101-98-168-65-70-156-107-90-37-205-37-116 0-206 37-91 37-156 107-65 69-99 168-35 100-35 221zm188-1q0-95 19-165 20-74 58-122 38-49 96-76 57-27 135-27 153 0 229 103t76 287q0 186-76 289t-229 103q-80 0-135-26-56-27-96-77-38-49-58-123-19-72-19-166z"/><glyph unicode="p" horiz-adv-x="1139" d="M30-263q0 32 30 38l117 23v1090q-25 5-54.5 10.5t-43.5 8.5-19 4q-30 6-30 38v88h256q38 0 49-38l15-122q147 179 349 179 183 0 286-135 107-142 107-396 0-233-119-384-122-155-314-155-190 0-300 122v-310q1 0 7-1.5t20.5-4 28.5-5.5q15-3 29-6t22.5-4.5 9.5-1.5q31-6 31-38v-88h-477v88zm329 513q91-123 240-123 148 0 226 103 78 104 78 295 0 383-264 383-161 0-280-156v-502z"/><glyph unicode="q" horiz-adv-x="1136" d="M48 516v3q0 250 132 397 126 140 326 140 166 0 384-43l74-15v-1199q120-19 131-22 30-6 30-37v-89h-513v89q0 30 26 36 24 6 142 24v354q-144-166-339-166-184 0-286 135-107 140-107 393zm189 0q0-383 264-383 160 0 279 157v591q-129 33-243 33h-13q-204-8-267-225-20-66-20-119v-54z"/><glyph unicode="r" horiz-adv-x="884" d="M69 0v88q0 32 30 38l117 24v738q-25 5-54.5 10.5t-43.5 8.5-19 4q-30 6-30 38v88h252q29 0 40-11t16-39l12-162q114 231 316 231 80 0 142-37l-24-136q-8-26-26-26-16 0-49 10t-83 10q-178 0-267-217v-510q7-1 45.5-9t71.5-15q31-6 31-38v-88h-477z"/><glyph unicode="s" horiz-adv-x="840" d="M87 753q0 126 96 210 101 91 292 91 103 0 270-55v-266h-80q-30 0-35 29-1 3-13 134-97 22-159 22h-2q-88-2-142-45-54-42-54-94t24-79q39-47 117-71 42-13 128-41 55-18 99-37 49-21 86-51 84-69 84-183 0-149-102-237-104-93-273-95h-6q-164 0-329 56v271h73q26 0 30-25 3-21 13-131 90-41 211-41 101 0 159 51 53 47 53 104 0 58-23 87-22 28-61 48-35 18-87 34-137 43-191 66-56 24-94 56-84 71-84 192z"/><glyph unicode="t" horiz-adv-x="743" d="M26 925v72l170 22 42 320q2 16 13 25 11 10 29 10h92v-357h297v-132h-297v-623q0-66 31-97 32-32 82-32 28 0 50 8 19 7 36 17 20 12 27 17 10 7 18 7 15 0 26-17l53-87q-46-43-113-69-65-25-138-25-124 0-189 68-66 69-66 198v635h-124q-16 0-28 9-11 8-11 31z"/><glyph unicode="u" horiz-adv-x="1242" d="M29 949v88h329v-661q0-116 55-182 54-65 164-65 155 0 280 143v616q-3 1-116 23-31 6-31 38v88h329v-887q99-20 117-24 32-6 32-38v-88h-257q-38 0-49 38l-15 112q-150-166-344-166-167 0-259 107-88 101-88 285v512q-25 5-54.5 10.5t-43.5 8.5-19 4q-30 6-30 38z"/><glyph unicode="v" horiz-adv-x="1221" d="M30 949v88h465v-88q0-32-31-38-5-1-114-22l220-557q16-41 38-147 23 100 41 147l221 556q-6 1-43.5 8.5l-72.5 14.5q-31 6-31 38v88h460v-88q0-32-31-38-4-1-100-20l-363-891h-165l-363 891q-18 5-57 12l-22 4-16 3-6 1q-30 6-30 38z"/><glyph unicode="w" horiz-adv-x="1779" d="M29 949v88h463v-88q0-32-32-38-3-1-113-22l166-557q18-81 28-141 7 34 40 141l219 672q12 35 50 35h79q40 0 52-35l214-672q12-40 36-139 13 77 32 139l168 556q-9 1-121 23-32 6-32 38v88h463v-88q0-32-31-38-3 0-10-1.5t-19-4-23-4.5-23-4.5-18-4-9-1.5l-288-891h-144q-28 0-37 35l-230 703q-10 26-14 50-5 30-9 46-10-45-11-50-3-15-13-47l-232-702q-12-35-42-35h-137l-289 891-34 6q-17 3-33.5 6.5t-24.5 5.5-11 2q-30 6-30 38z"/><glyph unicode="x" horiz-adv-x="1169" d="M67 0v88q0 32 30 38l50 10q37 8 50 9l263 386-247 359q-25 5-49.5 10t-38.5 7.5-19 3.5q-30 6-30 38v88h406v-88q0-32-31-38-3-2-43-9l183-281q10 32 26 57l152 222q-28 6-33 7-20 3-21 4-31 6-31 38v88h407v-88q0-32-33-38-22-4-107-21l-245-348 266-397q22-5 56-11.5t35-6.5q37-7 37-39v-88h-408v88q0 32 32 38 44 9 51 10l-198 308q-7-30-22-53l-173-253 25-5q33-6 35-7 32-6 32-38v-88h-407z"/><glyph unicode="y" horiz-adv-x="1220" d="M29 949v88h465v-88q0-32-31-38-10-3-113-22l231-543q12-30 27-91 15 50 31 92l224 542q-28 6-65.5 13t-46.5 9q-29 6-29 38v88h460v-88q0-32-31-38-3 0-9.5-1.5l-19.5-4.5-25-5q-13-3-25.5-5t-20-3.5-8.5-1.5l-515-1196q-21-45-65-45h-135l189 411-364 833q-21 4-42.5 8t-34 6.5l-17.5 3.5q-30 6-30 38z"/><glyph unicode="z" horiz-adv-x="945" d="M69 0v76q0 31 25 65l564 753h-443q-8-100-11-125-5-26-31-26h-73v294h770v-78q0-37-25-69l-561-748h461q7 97 12 137 4 25 31 25h73v-304h-792z"/><glyph unicode="{" horiz-adv-x="567" d="M46 583v109q69 0 105 41 35 39 35 107 0 48-8 101-1 6-18 100-16 86-18 102-8 54-8 104 0 70 21 130 20 58 64 103 40 41 105 66 63 24 147 24h54v-81q0-22-14-30-15-9-27-9h-20q-79 0-125-52-45-51-45-140 0-61 7-110 9-63 16-104 12-68 17-101 7-46 7-101 0-42-11-72-13-36-33-60-22-26-49-45-28-19-62-28 34-9 62-28t49-46q22-28 33-59 11-30 11-71 0-55-7-101-5-33-17-101-6-34-16-104-7-49-7-111 0-89 45-140t125-51h20q12 0 27-9 14-8 14-30v-82h-54q-84 0-147 24-64 24-105 67-44 45-64 103-21 60-21 130 0 50 8 104 3 20 10 58t8 43 8 43 10 58q8 53 8 101 0 65-35 106-36 42-105 42z"/><glyph unicode="|" horiz-adv-x="367" d="M114-351v1921h141v-1921h-141z"/><glyph unicode="}" horiz-adv-x="568" d="M44-214q0 22 14 30 15 9 27 9h20q80 0 125 51t45 140q0 62-7 111-10 70-16 104-5 28-16 101-8 53-8 101 0 38 12 71 12 34 32 59 21 27 49 46t62 28q-34 9-62 28-27 19-49 45-18 22-32 60-12 33-12 72 0 48 8 101 11 73 16 101 6 34 16 104 7 49 7 110 0 89-45 140-46 52-125 52h-20q-12 0-27 9-14 8-14 30v81h54q84 0 147-24 65-25 105-66 44-45 64-103 21-60 21-130 0-50-8-104-2-16-18-102-17-94-18-100-8-53-8-101 0-66 36-107t104-41v-109q-68 0-104-42t-36-106q0-48 8-101 3-20 10-58t8-43 8-43 10-58q8-54 8-104 0-70-21-130-20-58-64-103-41-43-105-67-63-24-147-24h-54v82z"/><glyph unicode="~" horiz-adv-x="1124" d="M88 424q0 70 19 126 21 61 54 98 37 42 87 64 52 23 119 23 51 0 105-17 44-14 101-37 27-11 93-36 45-17 80-17 67 0 104 43 38 44 39 115h147q0-70-19-126-21-61-54-98-37-42-87-63-54-23-118-23-52 0-106 17-55 17-101 36-78 32-92 37-45 17-81 17-67 0-104-43-36-42-38-116h-148z"/><glyph unicode="¡" horiz-adv-x="409" d="M77 926q0 25 10 50 9 23 27 41t40 27q21 10 51 10 24 0 49-10 23-9 41-27 17-17 28-41 10-21 10-50 0-27-10-50t-28-41q-17-17-41-28-21-10-49-10-30 0-51 10-22 11-40 28-19 19-27 41-10 27-10 50zm45-723q0 60 1 89 1 27 5 88 2 30 8 92 8 82 10 100h124q9-76 11-100 6-62 8-92t4-88 2-89v-554h-173v554z"/><glyph unicode="¢" horiz-adv-x="942" d="M59 518q0 240 127 383 113 131 301 149l13 183q1 21 16 37 14 15 35 15h67l-16-236q112-15 253-73v-268h-82q-31 0-35 28-2 9-13 146-35 11-75 18-44 7-58 8v-1l-53-778v-3h42q35 0 77 16 47 18 72 35 35 24 47 35 17 16 40 16 21 0 32-17l51-67q-126-154-372-159l-11-176q-1-18-16-34-13-15-35-15h-68l16 236q-133 29-223 129-132 145-132 393zm188 0q0-187 82-291 37-47 94-75 5 25 54 749-162-38-211-220-19-70-19-163z"/><glyph unicode="£" horiz-adv-x="1189" d="M54 629v59q0 26 17 45t46 19h137v267q0 94 28 181 27 84 84 147 58 64 140 99 86 37 196 37 79 0 142-20 60-19 110-55 48-34 84-81t60-99l-74-47q-10-6-21-9t-21-3q-14 0-27 6-12 6-24 20-28 34-42 50-20 23-47 42-24 17-60 28t-80 11q-64 0-113-21-48-20-82-62-33-40-49-96-17-59-17-126v-269h452v-74q0-19-15-34t-38-15h-399v-249q0-77-29-133-28-55-80-102 3 0 25.5 4t33.5 5q38 4 60 4h692v-78q0-14-6-28-7-16-16-26-11-12-24-19-14-7-33-7h-987v118q40 12 66 27 34 19 57 44 24 26 39 61 15 36 15 83v296h-200z"/><glyph unicode="¤" horiz-adv-x="1041" d="M62 1052l94 92 154-156q42 30 99 49 52 18 112 18 57 0 111-17 49-15 96-48l157 157 91-93-155-156q30-43 49-98 18-53 18-112 0-56-17-110-17-53-47-97l156-154-93-95-156 156q-44-30-98-48-50-17-112-17-61 0-110 16-51 17-97 47l-156-157-91 94 154 155q-30 44-48 98-17 50-17 112 0 57 17 110 18 54 46 97zm229-364q0-46 18-88t49-73q32-32 74-50t89-18q49 0 91 18t74 50q31 31 49 73 19 44 19 88 0 46-19 90t-49 74q-32 32-74 50t-91 18q-47 0-89-18t-74-50q-30-30-49-74-18-42-18-90z"/><glyph unicode="¥" horiz-adv-x="1172" d="M45 1467h153q27 0 42-12t26-34l283-579q6-13 24-66 11-33 18-59 10 40 16 60 9 32 24 65l281 579q6 15 25 32 15 14 43 14h154l-419-827h314v-104h-348v-108h348v-105h-348v-323h-183v323h-348v105h348v108h-348v104h313z"/><glyph unicode="¦" horiz-adv-x="358" d="M110-351v814h141v-814h-141zm0 1108v813h141v-813h-141z"/><glyph unicode="§" horiz-adv-x="923" d="M58 715q0 79 44 144 41 61 140 99-51 39-84 93-32 52-32 131 0 56 25 114 24 55 71 96t116 65q72 25 157 25 101 0 183-32t141-88l-41-67q-12-22-38-22-14 0-34 11-16 10-48 25t-67 26q-39 12-92 12-51 0-89-13t-66-35q-27-21-42-50-14-27-14-60 0-40 25-68 28-31 65-53 44-26 93-47 10-4 47.5-20t58.5-25q56-25 106-52 54-29 93-64 37-33 65-84 25-46 25-109 0-84-40-148-41-65-126-104 50-38 82-88t32-121q0-70-26-133-25-59-75-105-49-44-123-70-75-26-167-26-111 0-197 35-88 36-149 91l42 70q6 11 20 20 11 7 29 7 19 0 39-14 18-12 50-32 31-18 73-33 41-14 108-14 53 0 92 13 41 14 68 36 27 23 42 54 14 29 14 71 0 46-25 80t-68 60q-48 29-95 48-11 5-33.5 13.5t-41 16-35.5 14.5q-54 21-109 48-52 25-95 62t-68 84q-26 49-26 113zm162 28q0-52 36-88 39-39 92-66 60-31 123-56 65-26 131-59 57 28 80 65 25 41 25 87 0 35-16 65-15 28-42 52t-62 43q-39 21-77 38-54 24-83 36-53 22-84 38-68-30-95-68-28-39-28-87z"/><glyph unicode="¨" horiz-adv-x="766" d="M86 1320q0 24 9 45t25 37 37 25q23 10 43 10 21 0 44-10t38-25q16-16 25-37t9-45q0-23-9-44-9-22-25-36-18-16-38-25-21-9-44-9-22 0-43 9-18 8-37 25-16 14-25 36-9 21-9 44zm368 0q0 24 9 45 9 20 24 37 14 15 37 25t44 10q22 0 45-10 21-9 37-25t25-37 9-45q0-23-9-44-9-22-25-36-19-17-37-25-21-9-45-9-23 0-44 9t-37 25q-15 15-24 36t-9 44z"/><glyph unicode="©" horiz-adv-x="1624" d="M65 733q0 107 26 199 27 96 75 180 46 81 118 151 70 68 151 117 80 48 178 76 94 27 199 27 103 0 199-27 99-28 179-76 81-49 151-117 72-70 118-151 48-84 75-180t27-199q0-102-27-198-27-97-75-179-48-83-118-151t-151-117q-80-48-179-76-92-26-199-26-108 0-199 26-98 28-178 76-81 49-151 117t-118 151q-47 81-75 179-26 91-26 198zm102 0q0-93 22-175 22-81 65-157 42-74 100-133 59-61 130-102 73-43 155-65 84-23 173-23 134 0 253 51t206 140q89 91 139 208 50 118 50 256 0 89-23 176-22 84-65 159-41 71-101 133-61 63-130 103-73 43-155 66-84 24-174 24-132 0-253-52-118-51-205-141-88-91-137-210-50-121-50-258zm202 2q0 105 35 190 37 89 98 149 63 62 148 96 84 34 186 34 109 0 188-35 78-35 136-91l-47-66q-5-6-13-13-8-6-21-6t-30 12-41 25q-23 12-65 25-39 12-99 12-70 0-130-23-57-22-98-66-40-44-63-105-22-60-22-138 0-81 22-141 23-63 61-104t94-64q53-22 117-22 43 0 83 7 37 6 59 16 19 9 43 23 26 16 40 24 2 1 6.5 4.5t6.5 4.5q6 3 12 3 11 0 16-3 3-2 10-9l62-65q-59-68-143-105-87-38-204-38-99 0-183 35-83 35-141 97-57 62-91 149-32 83-32 188z"/><glyph unicode="ª" horiz-adv-x="681" d="M74 1017q0 35 19 69 19 33 65 61 45 27 119 45 76 19 184 20v38q0 66-30 96t-88 30q-39 0-64-9-23-8-45-20-23-12-34-19-15-9-31-9-14 0-25 8-10 7-15 18l-23 43q50 47 116 73 62 24 136 24 56 0 99-18 41-17 72-48 30-30 45-73 16-46 16-96v-390h-62q-18 0-27 6-11 7-18 24l-12 50q-27-23-48-38-23-16-49-28-21-10-55-17-29-6-63-6-41 0-72 10-35 11-58 31-24 21-38 52t-14 73zm128 6q0-43 26-60 27-18 68-18 52 0 90 20 39 20 75 55v107q-76-2-122-10-48-9-80-23-30-14-44-32-13-17-13-39z"/><glyph unicode="«" horiz-adv-x="786" d="M67 530v24l255 398 59-28q13-7 21-19 8-13 8-24 0-17-11-34l-162-267q-17-27-29-38 17-17 29-37l162-267q5-8 8-18 3-9 3-17 0-28-29-42l-59-29zm303 0v24l255 398 59-28q15-7 22-19 7-11 7-24 0-17-11-34l-162-267q-17-27-29-38 17-17 29-37l162-267q4-8 8-18 3-9 3-17 0-28-29-42l-59-29z"/><glyph unicode="¬" horiz-adv-x="1070" d="M89 618v139h881v-434h-155v295h-726z"/><glyph unicode="­" horiz-adv-x="699" d="M97 537v154h506v-154h-506z"/><glyph unicode="®" horiz-adv-x="1624" d="M65 733q0 107 26 199 27 96 75 180 46 81 118 151 70 68 151 117 80 48 178 76 94 27 199 27 103 0 199-27 99-28 179-76 81-49 151-117 72-70 118-151 48-84 75-180t27-199q0-102-27-198-27-97-75-179-48-83-118-151t-151-117q-80-48-179-76-92-26-199-26-108 0-199 26-98 28-178 76-81 49-151 117t-118 151q-47 81-75 179-26 91-26 198zm102 0q0-93 22-175 22-81 65-157 42-74 100-133 59-61 130-102 73-43 155-65 84-23 173-23 134 0 253 51t206 140q89 91 139 208 50 118 50 256 0 89-23 176-22 84-65 159-41 71-101 133-61 63-130 103-73 43-155 66-84 24-174 24-132 0-253-52-118-51-205-141-88-91-137-210-50-121-50-258zm338-454v913h295q176 0 261-64t85-189q0-97-55-164-56-68-163-93 14-8 30-26 11-12 24-35l233-342h-151q-34 0-50 25l-206 309q-9 14-22 21t-40 7h-81v-362h-160zm160 479h118q55 0 96 11t64 31q24 21 34 50 11 31 11 69 0 34-10 66-9 30-31 47-25 20-58 28-36 9-89 9h-135v-311z"/><glyph unicode="¯" horiz-adv-x="773" d="M94 1261v119h588v-119h-588z"/><glyph unicode="°" horiz-adv-x="808" d="M70 1155q0 70 25 129t71 105q44 45 106 70 63 26 131 26 69 0 132-26 61-25 106-70 46-46 71-105t25-129q0-68-25-127t-71-105-106-71q-63-26-132-26-68 0-131 26-60 25-106 71t-71 105-25 127zm130-1q0-42 15-80 15-37 43-65 27-27 65-44 36-16 80-16t80 16q37 17 65 44 28 28 43 65 15 38 15 80 0 44-15 81-14 36-43 66-25 26-65 44-36 16-80 16t-80-16q-40-18-65-44-29-30-43-66-15-37-15-81z"/><glyph unicode="±" horiz-adv-x="1117" d="M71 82v138h981v-138h-981zm0 625v139h414v385h150v-385h417v-139h-417v-377h-150v377h-414z"/><glyph unicode="²" horiz-adv-x="668" d="M70 922v44q0 32 22 54l226 224q123 123 123 215 0 53-30 81-29 28-77 28-90 0-120-92-19-31-45-31-4 0-18 2l-73 12q15 109 86 163t176 54q107 0 171-58t64-155q0-101-96-205-18-20-58-60l-166-169q52 14 93 14h159q1 13 2 28t2 21.5 1 7.5q4 20 25 20h56v-198h-523z"/><glyph unicode="³" horiz-adv-x="645" d="M55 1111l57 25q15 6 29 6 29 0 41-24 2-5 8.5-16t7.5-13q8-15 24-31 15-15 38-24 25-10 54-10 33 0 56 10 27 12 41 26 17 17 24 37 8 22 8 42 0 32-8 52-8 21-29 37-17 13-53 21-31 7-82 7v90q91 2 126 31 36 30 36 84 0 51-30 78t-78 27q-51 0-79-24-29-24-41-65-7-16-17-24t-24-8h-9q-4 0-10 2l-68 12q8 57 29 95 23 41 56 68 32 26 77 40t93 14q52 0 94-15 41-15 72-41t47-60q16-33 16-76 0-130-122-177 67-19 103-60t36-103q0-54-22-100-21-44-57-72-37-30-82-44-47-15-95-15-60 0-102 13-44 14-74 38-31 25-53 62-24 40-38 85z"/><glyph unicode="´" horiz-adv-x="552" d="M73 1191l151 248q15 24 31 34 17 11 50 11h178l-238-264q-17-17-28-22-16-7-36-7h-108z"/><glyph unicode="µ" horiz-adv-x="1074" d="M110-273v1310h182v-673q0-113 55-174t163-61q79 0 150 38t131 105v765h182v-1037h-109q-38 0-49 38l-14 112q-71-75-141-109-73-35-161-35-75 0-133 26-56 25-98 73 8-49 11-87 3-45 3-84v-285h-92q-39 0-59 20-21 21-21 58z"/><glyph unicode="¶" horiz-adv-x="1391" d="M53 1074q0 88 33 160 34 75 92 124 63 54 145 81 84 28 191 28h829v-156h-224v-1517h-161v1517h-283v-1517h-161v882q-107 0-191 31-86 32-145 85-58 52-92 127-33 72-33 155z"/><glyph unicode="·" horiz-adv-x="489" d="M92 607q0 33 12 61t33 49 48 33 59 12 60-12 49-33 33-49 12-61q0-31-12-58-13-29-33-49-21-21-49-33-26-11-60-11t-59 11q-27 12-48 33-20 20-33 49-12 27-12 58z"/><glyph unicode="¸" horiz-adv-x="540" d="M83-328l17 57q6 18 24 18 4 0 14-4l20-8q16-6 27-8 16-3 38-3 43 0 65 16t22 44q0 21-11 33-12 13-32 22-25 11-52 16-35 7-70 11l44 144h115l-24-82q94-22 133-55 42-36 42-91 0-33-17-59-18-28-45-45-30-19-70-28-41-9-91-9-46 0-79 8-44 11-70 23z"/><glyph unicode="¹" horiz-adv-x="579" d="M55 1476l228 194h110v-661h133v-87h-416v87h150v450l4 44-109-90q-12-9-27-9-25 0-33 14z"/><glyph unicode="º" horiz-adv-x="777" d="M72 1167q0 75 22 132 23 61 64 100 42 41 100 63 57 22 131 22 73 0 130-22t98-63q41-42 64-100 22-57 22-132 0-74-22-133-21-57-64-101-39-40-98-63-57-22-130-22-74 0-131 22-60 23-100 63-42 42-64 101t-22 133zm143-1q0-101 43-156 42-54 131-54 87 0 129 54t42 156q0 104-42 156-42 53-129 53-89 0-131-53-43-55-43-156z"/><glyph unicode="»" horiz-adv-x="790" d="M79 203q0 18 10 35l163 267q15 27 28 37-16 16-28 38l-163 267q-10 17-10 35 0 28 29 42l59 28 255-398v-24l-255-398-59 29q-29 14-29 42zm303 0q0 18 10 35l163 267q15 27 28 37-15 16-28 38l-163 267q-10 17-10 35 0 28 29 42l59 28 255-398v-24l-255-398-59 29q-29 14-29 42z"/><glyph unicode="¼" horiz-adv-x="1414" d="M41 1274l227 194h111v-661h133v-87h-417v87h151v450l4 45-110-91q-12-9-26-9-24 0-33 15zm168-1274l838 1405q17 29 42 46 23 16 56 16h79l-843-1413q-19-31-42-43-21-11-52-11h-78zm576 267l351 479h127v-473h111v-66q0-12-7-19-8-8-20-8h-84v-180h-112v180h-313q-19 0-30 8-10 7-12 21zm124 6h242v247q0 27 1 42 2 30 4 46z"/><glyph unicode="½" horiz-adv-x="1403" d="M41 1274l227 194h111v-661h133v-87h-417v87h151v450l4 45-110-91q-12-9-31-9t-28 15zm123-1274l837 1405q38 62 99 62h79l-843-1413q-33-54-94-54h-78zm655 0v44q0 31 23 54l226 225q123 123 123 215 0 51-31 80-29 28-78 28-88 0-118-92-19-31-45-31-5 0-19 2l-73 13q15 108 86 162 72 55 177 55 106 0 171-59 64-58 64-154 0-102-96-205-18-20-59-61l-165-168q52 14 93 14h158q5 52 6 56 4 21 24 21h56v-199h-523z"/><glyph unicode="¾" horiz-adv-x="1458" d="M49 909l56 25q15 6 30 6 29 0 41-24 4-8 15-29 7-13 25-31 15-15 37-24 25-10 55-10 31 0 56 11t40 26q19 19 25 36 8 22 8 42 0 33-8 53t-29 36q-18 14-53 22-31 7-82 7v89q89 2 126 32 36 30 36 84 0 50-30 77t-79 27q-50 0-78-24-29-24-41-65-7-16-17-24t-24-8q-2 0-5 .5t-4 .5q-7 0-10 1l-68 12q8 57 29 95 23 41 56 68 34 28 76 41 45 14 94 14 52 0 94-15 41-15 72-41 30-26 47-61 16-33 16-76 0-130-122-177 68-20 103-59t35-104q0-56-21-99t-57-72q-37-30-82-44-47-15-96-15-62 0-101 12-44 14-74 38-31 25-53 62-24 40-38 85zm208-909l838 1405q17 29 42 46 23 16 56 16h79l-843-1413q-19-31-42-43-21-11-52-11h-78zm572 267l351 479h127v-473h111v-66q0-12-7-19-8-8-20-8h-84v-180h-112v180h-313q-19 0-30 8-10 7-12 21zm124 6h242v247q0 27 1 42 2 30 4 46z"/><glyph unicode="¿" horiz-adv-x="847" d="M58-38q0 77 23 132 22 53 59 93 40 43 77 67l78 52q39 26 63 50 26 26 30 59l19 157h124l13-171v-12q0-45-23-77-22-31-59-57-48-34-75-50-39-23-76-54-35-29-59-72-23-41-23-102 0-44 18-80 17-35 47-60 30-26 70-39 39-13 87-13 62 0 107 15 41 14 75 34 26 16 50 34 19 15 32 15 14 0 23-6t16-17l48-77q-29-28-70-56-39-27-84-48-40-19-98-32-52-12-115-12-79 0-150 23t-119 64q-50 43-79 103-29 61-29 137zm287 963q0 23 10 50 8 21 26 41 14 15 41 27 25 11 50 11t50-11 41-27q19-19 27-41 10-27 10-50 0-26-10-51-9-22-27-40-20-20-41-28-24-9-50-9t-50 9q-23 9-41 28t-26 40q-10 25-10 51z"/><glyph unicode="À" d="M51 0v81q0 28 27 34l82 24 531 1328h202l530-1328 82-24q27-6 27-34v-81h-421v81q0 27 28 35l84 23-115 296h-633l-115-296 84-23q28-8 28-35v-81h-421zm370 1825h206q30 0 49-7 16-6 37-27l216-208h-143q-17 0-33 4-10 2-30 16zm109-1246h523l-217 563q-24 59-44 138-21-78-43-139z"/><glyph unicode="Á" d="M51 0v81q0 28 27 34l82 24 531 1328h202l530-1328 82-24q27-6 27-34v-81h-421v81q0 27 28 35l84 23-115 296h-633l-115-296 84-23q28-8 28-35v-81h-421zm479 579h523l-217 563q-24 59-44 138-21-78-43-139zm102 1004l216 208q10 10 19 16 12 8 18 11 7 3 20 5 16 2 29 2h206l-301-221q-20-13-31-17-12-4-35-4h-141z"/><glyph unicode="Â" d="M51 0v81q0 28 27 34l82 24 531 1328h202l530-1328 82-24q27-6 27-34v-81h-421v81q0 27 28 35l84 23-115 296h-633l-115-296 84-23q28-8 28-35v-81h-421zm406 1583l243 215h181l243-215h-138q-7 0-27 4-14 3-23 9l-133 98q-10 6-12 8-8-6-13-8l-133-98q-9-6-23-9-20-4-27-4h-138zm73-1004h523l-217 563q-24 59-44 138-21-78-43-139z"/><glyph unicode="Ã" d="M51 0v81q0 28 27 34l82 24 531 1328h202l530-1328 82-24q27-6 27-34v-81h-421v81q0 27 28 35l84 23-115 296h-633l-115-296 84-23q28-8 28-35v-81h-421zm453 1585q0 45 12 82 13 40 33 64 23 27 55 42 33 15 72 15 36 0 68-13 33-13 63-30 20-11 56-29 26-13 51-13 36 0 55 21 18 20 20 59h101q0-43-12-81-12-39-32-64-20-26-54-42-32-15-72-15-37 0-69 13-33 14-63 30-10 6-57 29-26 13-51 13-35 0-54-22-18-21-20-59h-102zm26-1006h523l-217 563q-24 59-44 138-21-78-43-139z"/><glyph unicode="Ä" d="M51 0v81q0 28 27 34l82 24 531 1328h202l530-1328 82-24q27-6 27-34v-81h-421v81q0 27 28 35l84 23-115 296h-633l-115-296 84-23q28-8 28-35v-81h-421zm410 1706q0 24 9 45 8 19 25 36 15 15 35 24 22 10 41 10 22 0 45-10 21-9 36-24 17-17 25-36 9-21 9-45t-9-43-25-35q-15-15-36-24t-45-9q-21 0-41 9t-35 24q-16 16-25 35t-9 43zm69-1127h523l-217 563q-24 59-44 138-21-78-43-139zm367 1127q0 24 9 45t24 36 36 24q23 10 44 10 20 0 43-10 21-9 36-24t24-36 9-45-9-43q-9-20-24-35t-36-24-43-9q-23 0-44 9t-36 24-24 35q-9 19-9 43z"/><glyph unicode="Å" d="M51 0v81q0 28 27 34l82 24 531 1328h202l530-1328 82-24q27-6 27-34v-81h-421v81q0 27 28 35l84 23-115 296h-633l-115-296 84-23q28-8 28-35v-81h-421zm479 579h523l-217 563q-24 59-44 138-21-78-43-139zm65 1120q0 41 16 74 15 32 42 57 26 24 61 38 33 13 73 13 41 0 76-13 33-12 62-38 30-26 43-57 15-35 15-74t-15-72q-14-30-43-56-27-24-62-37t-76-13q-40 0-73 13-37 15-61 37-26 25-42 56-16 32-16 72zm91 0q0-43 28-73t76-30q44 0 74 30 28 28 28 73 0 47-28 75t-74 28q-49 0-76-28-28-30-28-75z"/><glyph unicode="Æ" horiz-adv-x="1988" d="M52 0v81q0 28 27 34v1l82 23 630 1193q-2 0-28 5-17 3-18 4-30 6-30 38v88h1193v-353h-100q-34 0-42 35-2 14-14 157h-611l61-488h542v-155h-522l62-501h469q12 142 13 145 8 35 42 35h100v-342h-938v88q0 32 30 38 1 0 8 1.5t18 4 22 4.5q39 8 51 9l-32 256h-569l-136-262 83-23q29-8 29-35v-81h-422zm520 545h477l-97 771q-19-65-56-145z"/><glyph unicode="Ç" horiz-adv-x="1300" d="M46 733q0 334 205 542 206 209 543 209 171 0 453-106v-342h-99q-34 0-42 35-3 12-9 93-7 88-7 92-460 146-692-100-149-158-149-423 0-267 147-426 139-152 362-152 127 0 193 24 102 38 182 109 18 15 33 15 17 0 30-13l78-85q-180-209-491-220l-15-57q95-22 134-55 41-35 41-80t-16-70q-18-28-46-45-59-37-160-37-81 0-150 31l18 57q6 18 23 18 5 0 15-4 3-1 9.5-3.5t9.5-3.5q28-12 69-12 40 0 62 16t22 40-12 37-32 22q-35 15-121 27l37 121q-266 24-433 204-192 209-192 542z"/><glyph unicode="È" horiz-adv-x="1201" d="M69 0v88q0 32 30 38l117 24v1168q-25 5-54.5 10.5t-43.5 8.5-19 4q-30 6-30 38v88h1051v-354h-98q-36 0-43 36-2 14-14 157h-549v-488h540v-155h-540v-501h550q12 142 13 145 8 35 43 35h98v-342h-1051zm242 1825h206q30 0 49-7 16-6 37-27l216-208h-142q-18 0-34 4-10 2-30 16z"/><glyph unicode="É" horiz-adv-x="1201" d="M69 0v88q0 32 30 38l117 24v1168q-25 5-54.5 10.5t-43.5 8.5-19 4q-30 6-30 38v88h1051v-354h-98q-36 0-43 36-2 14-14 157h-549v-488h540v-155h-540v-501h550q12 142 13 145 8 35 43 35h98v-342h-1051zm453 1583l216 208q10 10 19 16 12 8 18 11t21 5q16 2 28 2h206l-301-221q-20-13-31-17-12-4-34-4h-142z"/><glyph unicode="Ê" horiz-adv-x="1201" d="M69 0v88q0 32 30 38l117 24v1168q-25 5-54.5 10.5t-43.5 8.5-19 4q-30 6-30 38v88h1051v-354h-98q-36 0-43 36-2 14-14 157h-549v-488h540v-155h-540v-501h550q12 142 13 145 8 35 43 35h98v-342h-1051zm278 1583l244 215h180l244-215h-138q-7 0-27 4-15 3-24 9l-133 98q-10 6-12 8-9-7-12-8l-133-98q-9-6-24-9-20-4-27-4h-138z"/><glyph unicode="Ë" horiz-adv-x="1201" d="M69 0v88q0 32 30 38l117 24v1168q-25 5-54.5 10.5t-43.5 8.5-19 4q-30 6-30 38v88h1051v-354h-98q-36 0-43 36-2 14-14 157h-549v-488h540v-155h-540v-501h550q12 142 13 145 8 35 43 35h98v-342h-1051zm282 1706q0 24 9 45 8 19 25 36 15 15 35 24 22 10 42 10 21 0 44-10t37-24q15-15 24-36 10-23 10-45 0-21-10-43-9-20-24-35-14-14-37-24-21-9-44-9-22 0-42 9t-35 24q-16 16-25 35t-9 43zm436 0q0 24 9 45t24 36 36 24q23 10 44 10 20 0 43-10 21-9 36-24 17-17 25-36 9-21 9-45t-9-43-25-35q-15-15-36-24t-43-9q-23 0-44 9t-36 24-24 35q-9 19-9 43z"/><glyph unicode="Ì" horiz-adv-x="689" d="M11 1825h206q30 0 49-7 16-6 37-27l216-208h-142q-18 0-34 4-10 2-30 16zm121-1825v88q0 32 31 38l117 24v1168q-99 20-123 24-25 5-25 37v88h495v-88q0-32-32-38l-117-23v-1168q28-6 56-11.5t45-9 23-4.5q25-5 25-37v-88h-495z"/><glyph unicode="Í" horiz-adv-x="675" d="M69 0v88q0 32 30 38l117 24v1168q-99 20-123 24t-24 37v88h494v-88q0-32-32-38l-116-23v-1168q28-6 56-11.5t45-9 23-4.5q24-5 24-37v-88h-494zm90 1583l216 208q10 10 19 16 12 8 18 11 7 3 20 5 16 2 29 2h206l-301-221q-20-13-31-17-12-4-35-4h-141z"/><glyph unicode="Î" horiz-adv-x="686" d="M10 1583l244 215h180l244-215h-138q-7 0-27 4-15 3-24 9l-133 98q-10 6-12 8-9-7-12-8l-133-98q-9-6-24-9-20-4-27-4h-138zm85-1583v88q0 32 31 38l117 24v1168q-99 20-123 24-25 5-25 37v88h495v-88q0-32-32-38l-117-23v-1168q28-6 56-11.5t45-9 23-4.5q25-5 25-37v-88h-495z"/><glyph unicode="Ï" horiz-adv-x="681" d="M11 1706q0 24 9 45 8 19 25 36 15 15 35 24 22 10 42 10 21 0 44-10t37-24q15-15 24-36 10-23 10-45 0-21-10-43-9-20-24-35-14-14-37-24-21-9-44-9-22 0-42 9t-35 24q-16 16-25 35t-9 43zm82-1706v88q0 32 31 38l117 24v1168q-99 20-123 24-25 5-25 37v88h495v-88q0-32-32-38l-117-23v-1168q28-6 56-11.5t45-9 23-4.5q25-5 25-37v-88h-495zm354 1706q0 24 9 45t24 36 36 24q23 10 44 10 20 0 43-10 21-9 36-24 17-17 25-36 9-21 9-45t-9-43-25-35q-15-15-36-24t-43-9q-23 0-44 9t-36 24-24 35q-9 19-9 43z"/><glyph unicode="Ð" horiz-adv-x="1521" d="M16 682v117h201v519q-98 19-116 23-14 3-23 14t-9 24v88h678q163 0 295-52 134-53 228-150 94-95 147-232 53-136 53-300t-53-300q-53-135-147-231-95-97-228-149-135-53-295-53h-678v88q0 13 9 24t23 14l116 23v533h-201zm401-521h330q118 0 214 39t163 112q68 74 105 180 37 105 37 241 0 137-37 242-37 107-105 180-69 75-163 113-96 39-214 39h-330v-508h390v-117h-390v-521z"/><glyph unicode="Ñ" horiz-adv-x="1587" d="M69 0v88q0 32 30 38l117 24v1168q-25 5-54.5 10.5t-43.5 8.5-19 4q-30 6-30 38v88h249q26 0 40-6 12-5 29-27l850-1106q-5 48-5 100v890q-35 6-66.5 11.5t-48.5 8-21 3.5q-31 6-31 38v88h489v-88q0-32-31-38l-117-23v-1318h-100q-42 0-71 36l-849 1105q4-47 4-95v-896q118-20 136-24 31-6 31-38v-88h-488zm481 1585q0 45 12 82 13 40 33 64 23 27 55 42 33 15 72 15 37 0 69-13 29-12 62-30 20-11 56-29 26-13 52-13 35 0 54 21 18 20 20 59h101q0-43-12-81-12-39-32-64-20-26-54-42-32-15-72-15-37 0-69 13-33 14-63 30-10 6-57 29-26 13-51 13-35 0-54-22-18-21-20-59h-102z"/><glyph unicode="Ò" horiz-adv-x="1544" d="M46 733q0 166 52 303 51 134 148 237 93 99 228 155t295 56 295-56q137-57 229-155 97-103 148-237 52-137 52-303 0-165-52-302-52-136-148-237-95-99-229-155-130-54-295-54t-295 54q-133 55-228 155-96 101-148 237-52 137-52 302zm203 0q0-137 37-242 38-108 105-181 69-76 164-114 96-39 214-39 119 0 215 39 95 38 164 114 65 71 104 181 37 105 37 242 0 136-37 243-38 111-104 182-67 73-164 114-95 40-215 40-119 0-214-40-97-41-164-114t-105-182q-37-107-37-243zm152 1092h206q30 0 49-7 16-6 37-27l216-208h-142q-18 0-34 4-10 2-30 16z"/><glyph unicode="Ó" horiz-adv-x="1544" d="M46 733q0 166 52 303 51 134 148 237 93 99 228 155t295 56 295-56q137-57 229-155 97-103 148-237 52-137 52-303 0-165-52-302-52-136-148-237-95-99-229-155-130-54-295-54t-295 54q-133 55-228 155-96 101-148 237-52 137-52 302zm203 0q0-137 37-242 38-108 105-181 69-76 164-114 96-39 214-39 119 0 215 39 95 38 164 114 65 71 104 181 37 105 37 242 0 136-37 243-38 111-104 182-67 73-164 114-95 40-215 40-119 0-214-40-97-41-164-114t-105-182q-37-107-37-243zm363 850l216 208q10 10 19 16 12 8 18 11t21 5q16 2 28 2h206l-301-221q-20-13-31-17-12-4-34-4h-142z"/><glyph unicode="Ô" horiz-adv-x="1544" d="M46 733q0 166 52 303 51 134 148 237 93 99 228 155t295 56 295-56q137-57 229-155 97-103 148-237 52-137 52-303 0-165-52-302-52-136-148-237-95-99-229-155-130-54-295-54t-295 54q-133 55-228 155-96 101-148 237-52 137-52 302zm203 0q0-137 37-242 38-108 105-181 69-76 164-114 96-39 214-39 119 0 215 39 95 38 164 114 65 71 104 181 37 105 37 242 0 136-37 243-38 111-104 182-67 73-164 114-95 40-215 40-119 0-214-40-97-41-164-114t-105-182q-37-107-37-243zm188 850l244 215h180l244-215h-138q-7 0-27 4-15 3-24 9l-133 98q-10 6-12 8-9-7-12-8l-133-98q-9-6-24-9-20-4-27-4h-138z"/><glyph unicode="Õ" horiz-adv-x="1544" d="M46 733q0 166 52 303 51 134 148 237 93 99 228 155t295 56 295-56q137-57 229-155 97-103 148-237 52-137 52-303 0-165-52-302-52-136-148-237-95-99-229-155-130-54-295-54t-295 54q-133 55-228 155-96 101-148 237-52 137-52 302zm203 0q0-137 37-242 38-108 105-181 69-76 164-114 96-39 214-39 119 0 215 39 95 38 164 114 65 71 104 181 37 105 37 242 0 136-37 243-38 111-104 182-67 73-164 114-95 40-215 40-119 0-214-40-97-41-164-114t-105-182q-37-107-37-243zm235 852q0 45 12 82 12 38 34 64 23 28 54 42 33 15 72 15 37 0 69-13 29-12 62-30 10-5 57-29 26-13 51-13 35 0 55 21 18 20 20 59h100q0-47-11-81-12-37-33-64t-53-42-73-15q-37 0-69 13-29 12-62 30-10 6-57 29-26 13-52 13-34 0-53-22-18-21-20-59h-103z"/><glyph unicode="Ö" horiz-adv-x="1544" d="M46 733q0 166 52 303 51 134 148 237 93 99 228 155t295 56 295-56q137-57 229-155 97-103 148-237 52-137 52-303 0-165-52-302-52-136-148-237-95-99-229-155-130-54-295-54t-295 54q-133 55-228 155-96 101-148 237-52 137-52 302zm203 0q0-137 37-242 38-108 105-181 69-76 164-114 96-39 214-39 119 0 215 39 95 38 164 114 65 71 104 181 37 105 37 242 0 136-37 243-38 111-104 182-67 73-164 114-95 40-215 40-119 0-214-40-97-41-164-114t-105-182q-37-107-37-243zm192 973q0 22 10 45 9 21 24 36t35 24q22 10 42 10 21 0 44-10t37-24q15-15 24-36 10-23 10-45 0-21-10-43-9-20-24-35-14-14-37-24-21-9-44-9-22 0-42 9t-35 24-24 35q-10 22-10 43zm437 0q0 26 8 45 9 21 24 36t36 24q23 10 44 10 20 0 43-10 21-9 36-24 17-17 25-36 9-21 9-45t-9-43-25-35q-15-15-36-24t-43-9q-23 0-44 9t-36 24-24 35q-8 17-8 43z"/><glyph unicode="×" horiz-adv-x="990" d="M34 323l364 364-353 353 97 99 354-355 352 353 98-99-352-352 362-361-97-99-362 363-366-365z"/><glyph unicode="Ø" horiz-adv-x="1544" d="M46 733q0 166 52 303 51 134 148 237 93 99 228 155t295 56q118 0 220-30 104-31 188-85l84 114q23 30 36 39 17 12 50 12h102l-176-241q107-103 163-242 57-143 57-318 0-165-52-302-52-136-148-237-95-99-229-155-130-54-295-54-113 0-207 25-99 26-177 74l-102-139q-22-29-53-43t-59-14h-80l196 267q-116 102-178 247-63 147-63 331zm203 0q0-141 38-246 39-109 109-183l675 921q-60 42-137 65-75 22-165 22-119 0-214-40-97-41-164-114t-105-182q-37-107-37-243zm241-505q117-71 279-71 119 0 215 39 95 38 164 114 65 71 104 181 37 105 37 242 0 129-33 232t-95 177z"/><glyph unicode="Ù" horiz-adv-x="1533" d="M36 1379v88h513v-88q0-32-32-38-4-1-20-3.5t-49-8-67-11.5v-741q0-188 102-302 104-117 285-117t285 116q101 113 101 301v743q-34 6-66.5 11.5t-48.5 8-20 3.5q-32 6-32 38v88h513v-88q0-32-32-38l-116-23v-743q0-258-156-423-160-169-428-169-266 0-428 169-157 166-157 423v743q-113 22-116 23-31 6-31 38zm361 446h206q30 0 49-7 16-6 37-27l216-208h-142q-18 0-34 4-10 2-30 16z"/><glyph unicode="Ú" horiz-adv-x="1533" d="M36 1379v88h513v-88q0-32-32-38-4-1-20-3.5t-49-8-67-11.5v-741q0-188 102-302 104-117 285-117t285 116q101 113 101 301v743q-34 6-66.5 11.5t-48.5 8-20 3.5q-32 6-32 38v88h513v-88q0-32-32-38l-116-23v-743q0-258-156-423-160-169-428-169-266 0-428 169-157 166-157 423v743q-113 22-116 23-31 6-31 38zm572 204l216 208q10 10 19 16 12 8 18 11t21 5q16 2 28 2h206l-301-221q-20-13-31-17-12-4-34-4h-142z"/><glyph unicode="Û" horiz-adv-x="1533" d="M36 1379v88h513v-88q0-32-32-38-4-1-20-3.5t-49-8-67-11.5v-741q0-188 102-302 104-117 285-117t285 116q101 113 101 301v743q-34 6-66.5 11.5t-48.5 8-20 3.5q-32 6-32 38v88h513v-88q0-32-32-38l-116-23v-743q0-258-156-423-160-169-428-169-266 0-428 169-157 166-157 423v743q-113 22-116 23-31 6-31 38zm397 204l244 215h180l244-215h-138q-7 0-27 4-15 3-24 9l-133 98q-10 6-12 8-9-7-12-8l-133-98q-9-6-24-9-20-4-27-4h-138z"/><glyph unicode="Ü" horiz-adv-x="1533" d="M36 1379v88h513v-88q0-32-32-38-4-1-20-3.5t-49-8-67-11.5v-741q0-188 102-302 104-117 285-117t285 116q101 113 101 301v743q-34 6-66.5 11.5t-48.5 8-20 3.5q-32 6-32 38v88h513v-88q0-32-32-38l-116-23v-743q0-258-156-423-160-169-428-169-266 0-428 169-157 166-157 423v743q-113 22-116 23-31 6-31 38zm401 327q0 24 9 45 8 19 25 36 15 15 35 24 22 10 42 10 21 0 44-10t37-24q15-15 24-36 10-23 10-45 0-21-10-43-9-20-24-35-14-14-37-24-21-9-44-9-22 0-42 9t-35 24q-16 16-25 35t-9 43zm436 0q0 24 9 45t24 36 36 24q23 10 44 10 20 0 43-10 21-9 36-24 17-17 25-36 9-21 9-45t-9-43-25-35q-15-15-36-24t-43-9q-23 0-44 9t-36 24-24 35q-9 19-9 43z"/><glyph unicode="Ý" horiz-adv-x="1434" d="M39 1379v88h493v-88q0-32-31-38-113-23-116-23l274-467q32-55 60-130 25 72 58 130l275 467q-5 1-117 23-31 6-31 38v88h494v-88q0-32-26-37-26-4-108-24l-448-734v-434q15-3 117-24 31-6 31-38v-88h-493v88q0 32 31 38l116 24v434l-446 734q-85 20-104 24-29 6-29 37zm520 204l216 208q10 10 19 16 12 8 18 11t21 5q16 2 28 2h206l-301-221q-20-13-31-17-12-4-35-4h-141z"/><glyph unicode="Þ" horiz-adv-x="1137" d="M111 0v1467h197v-270h236q142 0 242-32 104-33 170-92 69-61 101-143 34-87 34-188 0-102-36-187-35-84-105-146-68-61-172-96-101-34-234-34h-236v-279h-197zm197 436h236q84 0 150 23t109 63q44 41 66 96 23 58 23 124 0 140-87 220-85 78-261 78h-236v-604z"/><glyph unicode="ß" horiz-adv-x="1111" d="M97 0v1016q0 106 36 193 37 90 100 150t158 96q90 34 205 34 102 0 183-31 77-30 127-78 51-50 74-104 25-59 25-109 0-62-22-105-23-45-55-78-32-34-71-59-19-12-72-51-28-20-54-50-22-25-22-59 0-40 27-67 25-25 68-49 54-30 88-47 49-25 89-60 42-37 68-88 27-52 27-132 0-79-29-143-28-61-80-106-50-43-121-66t-150-23q-101 0-180 35-81 36-142 91l42 69q7 13 20 21 11 7 29 7 19 0 39-14 20-15 48-32 25-16 67-32 36-14 93-14 44 0 81 14 36 14 61 37t38 56q13 32 13 71 0 58-28 93-29 37-72 62-53 31-93 48-52 22-94 51t-71 72-29 110q0 54 23 95 21 37 58 73 33 32 74 59 26 18 74 59 33 29 57 67 23 37 23 85 0 37-12 66-13 33-42 60-29 28-74 44-46 17-110 17-67 0-127-22-57-21-97-64-39-42-62-108-22-63-22-150v-1010h-184z"/><glyph unicode="à" horiz-adv-x="1044" d="M44 225q0 100 34 156 36 59 108 101 173 101 496 101v81q0 246-205 246-118 0-194-54-77-55-100-55-38 0-89 92 171 165 332 165 159 0 228-29 67-28 114-80 93-103 93-283v-518q28-6 55-11t41.5-8 18.5-4q17-3 17-35v-88h-213q-57 0-64 43l-21 96q-171-155-297-155-123 0-177 17-55 17-92 50-85 73-85 172zm171 1259h173q33 0 50-11 16-10 31-34l153-248h-105q-19 0-35 7-9 4-27 22zm4-1214q0-156 167-156 166 0 296 139v214q-463 0-463-197z"/><glyph unicode="á" horiz-adv-x="1044" d="M44 225q0 100 34 156 36 59 108 101 173 101 496 101v81q0 246-205 246-118 0-194-54-77-55-100-55-38 0-89 92 171 165 332 165 159 0 228-29 67-28 114-80 93-103 93-283v-518q28-6 55-11t41.5-8 18.5-4q17-3 17-35v-88h-213q-57 0-64 43l-21 96q-171-155-297-155-123 0-177 17-55 17-92 50-85 73-85 172zm175 45q0-156 167-156 166 0 296 139v214q-463 0-463-197zm158 921l151 248q14 23 32 34 17 11 49 11h178l-238-264q-17-17-28-22-16-7-36-7h-108z"/><glyph unicode="â" horiz-adv-x="1043" d="M44 225q0 100 34 156 36 59 108 101 173 101 496 101v81q0 246-205 246-118 0-194-54-77-55-100-55-38 0-89 92 171 165 332 165 159 0 228-29 67-28 114-80 93-103 93-283v-518q28-6 55-11t41.5-8 18.5-4q17-3 17-35v-88h-213q-57 0-64 43l-21 96q-171-155-297-155-123 0-177 17-55 17-92 50-85 73-85 172zm132 972l228 270h170l229-270h-122q-23 0-41 14l-131 129-17 18-17-18-132-129q-7-5-17-9-13-5-24-5h-126zm43-927q0-156 167-156 166 0 296 139v214q-463 0-463-197z"/><glyph unicode="ã" horiz-adv-x="1044" d="M44 225q0 100 34 156 36 59 108 101 173 101 496 101v81q0 246-205 246-118 0-194-54-77-55-100-55-38 0-89 92 171 165 332 165 159 0 228-29 67-28 114-80 93-103 93-283v-518q28-6 55-11t41.5-8 18.5-4q17-3 17-35v-88h-213q-57 0-64 43l-21 96q-171-155-297-155-123 0-177 17-55 17-92 50-85 73-85 172zm151 1006q0 50 13 89 14 41 38 70t58 45q33 16 74 16 36 0 67-15 38-18 59-32 11-7 29.5-18.5t22.5-13.5q24-15 47-15 37 0 57 21 19 21 21 67h111q0-50-13-89-14-41-37-69-23-27-57-44-32-16-75-16-36 0-67 15-38 18-59 32-11 7-29.5 18.5t-22.5 13.5q-24 15-48 15-74 0-76-90h-113zm24-961q0-156 167-156 166 0 296 139v214q-463 0-463-197z"/><glyph unicode="ä" horiz-adv-x="1043" d="M44 225q0 100 34 156 36 59 108 101 173 101 496 101v81q0 246-205 246-118 0-194-54-77-55-100-55-38 0-89 92 171 165 332 165 159 0 228-29 67-28 114-80 93-103 93-283v-518q28-6 55-11t41.5-8 18.5-4q17-3 17-35v-88h-213q-57 0-64 43l-21 96q-171-155-297-155-123 0-177 17-55 17-92 50-85 73-85 172zm146 1095q0 22 10 45 9 21 25 37 17 17 36 25 23 10 43 10 22 0 45-10 21-9 37-25 18-18 26-37 9-21 9-45 0-23-9-44-9-20-26-36-19-17-37-25-21-9-45-9-22 0-43 9-16 7-36 25-16 14-25 36-10 23-10 44zm29-1050q0-156 167-156 166 0 296 139v214q-463 0-463-197zm339 1050q0 24 9 45 8 18 25 37 14 16 36 25 23 10 45 10 21 0 44-10 21-9 37-25t25-37 9-45q0-23-9-44-9-22-25-36-19-17-37-25-21-9-44-9-24 0-45 9-19 8-36 25t-25 36q-9 21-9 44z"/><glyph unicode="å" horiz-adv-x="1043" d="M44 225q0 100 34 156 36 59 108 101 173 101 496 101v81q0 246-205 246-118 0-194-54-77-55-100-55-38 0-89 92 171 165 332 165 159 0 228-29 67-28 114-80 93-103 93-283v-518q28-6 55-11t41.5-8 18.5-4q17-3 17-35v-88h-213q-57 0-64 43l-21 96q-171-155-297-155-123 0-177 17-55 17-92 50-85 73-85 172zm175 45q0-156 167-156 166 0 296 139v214q-463 0-463-197zm67 1077q0 44 16 77 17 36 45 61 29 26 65 39 39 14 77 14 41 0 80-14 37-14 66-39 28-25 45-61 16-33 16-77t-16-77q-18-37-45-60-30-25-66-38-39-14-80-14-38 0-77 14-35 12-65 38-27 23-45 60-16 33-16 77zm102 0q0-44 28-74 27-29 76-29 45 0 74 29 28 28 28 74t-28 74q-29 29-74 29-49 0-76-29-28-30-28-74z"/><glyph unicode="æ" horiz-adv-x="1591" d="M46 273q0 62 34 121 35 61 109 107 76 47 197 77 119 29 298 34v52q0 119-52 185-51 64-153 64-67 0-112-18-48-19-79-39-33-21-57-39t-48-18q-19 0-32 9-14 10-22 25l-33 58q87 84 179 124 94 41 208 41 124 0 198-52t109-146q57 92 143 143 89 53 213 53 84 0 156-33 74-34 125-95 54-65 83-152 30-90 30-205 0-40-8-56-8-15-34-15h-642q5-96 28-163 24-68 63-115 38-45 93-68t120-23q72 0 118 15t78 33 51 33 36 15q15 0 23-4 9-5 16-13l48-63q-37-44-78-71-43-29-96-49-58-22-105-30-54-9-107-9-121 0-218 58t-154 176q-27-63-72-108-46-46-99-74-54-29-115-42-55-12-121-12-71 0-129 18-61 19-101 53-44 38-66 90-23 55-23 128zm175 10q0-89 51-130 52-41 135-41 58 0 109 18 49 17 88 56 38 38 59 95t21 132v85q-122-4-214-23-85-17-143-47-55-28-81-66-25-37-25-79zm637 328h520q0 69-16 124-17 59-46 98-31 42-75 64-46 23-102 23-63 0-112-21-48-20-84-61-36-40-57-98-20-55-28-129z"/><glyph unicode="ç" horiz-adv-x="925" d="M45 519q0 239 126 383 132 152 363 152 117 0 307-77v-268h-82q-31 0-35 28-4 15-8 77-1 19-2.5 36t-2 24.5-.5 8.5q-35 11-75 18-60 10-116 9-55-1-112-27-56-25-97-77-79-103-79-287 0-187 82-291 79-101 221-101 127 0 228 86 17 16 39 16t33-17l51-67q-114-140-334-157l-17-60q94-22 133-55 42-36 42-80t-17-70q-18-28-45-45-59-37-161-37-80 0-149 31l17 57q6 18 24 18 3 0 15-4t19-7q29-12 68-12 40 0 62 16t22 40q0 25-11 37-12 13-32 22-34 15-122 27l38 124q-158 21-261 136-132 146-132 393z"/><glyph unicode="è" horiz-adv-x="1003" d="M43 540q0 108 33 202 33 95 96 164t153 108q92 40 202 40 91 0 172-32 80-32 137-90 56-57 89-145 32-84 32-197 0-43-9-58-8-14-35-14h-690q1-94 27-171 25-74 67-121 45-50 103-73 60-24 133-24 70 0 118 16 54 18 86 34 33 17 60 35 22 15 41 15 24 0 35-17l51-67q-35-42-81-71-44-28-101-49-61-22-111-30-57-9-113-9-109 0-199 36-89 36-156 107-66 70-103 173-37 102-37 238zm186 92h565q0 64-18 116-19 54-51 91-35 39-82 60-48 21-112 21-130 0-207-77t-95-211zm27 852h173q33 0 50-11 16-10 31-34l153-248h-105q-19 0-35 7-9 4-27 22z"/><glyph unicode="é" horiz-adv-x="1003" d="M43 540q0 108 33 202 33 95 96 164t153 108q92 40 202 40 91 0 172-32 80-32 137-90 56-57 89-145 32-84 32-197 0-43-9-58-8-14-35-14h-690q1-94 27-171 25-74 67-121 45-50 103-73 60-24 133-24 70 0 118 16 54 18 86 34 33 17 60 35 22 15 41 15 24 0 35-17l51-67q-35-42-81-71-44-28-101-49-61-22-111-30-57-9-113-9-109 0-199 36-89 36-156 107-66 70-103 173-37 102-37 238zm186 92h565q0 64-18 116-19 54-51 91-35 39-82 60-48 21-112 21-130 0-207-77t-95-211zm189 559l151 248q14 23 32 34 17 11 49 11h178l-238-264q-17-17-28-22-16-7-36-7h-108z"/><glyph unicode="ê" horiz-adv-x="1002" d="M42 540q0 108 33 202 33 95 96 164t153 108q92 40 202 40 91 0 172-32 80-32 137-90 56-57 89-145 32-84 32-197 0-43-9-58-8-14-35-14h-690q1-94 27-171 25-74 67-121 45-50 103-73 60-24 133-24 70 0 118 16 54 18 86 34 33 17 60 35 22 15 41 15 24 0 35-17l51-67q-35-42-81-71-44-28-101-49-61-22-111-30-57-9-113-9-109 0-199 36-89 36-156 107-66 70-103 173-37 102-37 238zm174 657l228 270h170l229-270h-122q-23 0-41 14l-131 129-18 18-16-18-132-129q-7-5-17-9-13-5-24-5h-126zm12-565h565q0 64-18 116-19 54-51 91-35 39-82 60-48 21-112 21-130 0-207-77t-95-211z"/><glyph unicode="ë" horiz-adv-x="1002" d="M42 540q0 108 33 202 33 95 96 164t153 108q92 40 202 40 91 0 172-32 80-32 137-90 56-57 89-145 32-84 32-197 0-43-9-58-8-14-35-14h-690q1-94 27-171 25-74 67-121 45-50 103-73 60-24 133-24 70 0 118 16 54 18 86 34 33 17 60 35 22 15 41 15 24 0 35-17l51-67q-35-42-81-71-44-28-101-49-61-22-111-30-57-9-113-9-109 0-199 36-89 36-156 107-66 70-103 173-37 102-37 238zm186 92h565q0 64-18 116-19 54-51 91-35 39-82 60-48 21-112 21-130 0-207-77t-95-211zm2 688q0 22 10 45 9 21 25 37 17 17 36 25 23 10 43 10 22 0 45-10 21-9 37-25 18-18 26-37 9-21 9-45 0-23-9-44-9-20-26-36-19-17-37-25-21-9-45-9-22 0-43 9-16 7-36 25-16 14-25 36-10 23-10 44zm368 0q0 24 9 45 8 18 25 37 14 16 36 25 23 10 45 10 21 0 44-10 21-9 37-25t25-37 9-45q0-23-9-44-9-22-25-36-19-17-37-25-21-9-44-9-24 0-45 9-19 8-36 25t-25 36q-9 21-9 44z"/><glyph unicode="ì" horiz-adv-x="595" d="M39 1484h173q33 0 49-10t32-35l152-248h-104q-23 0-35 6.5t-27 22.5zm29-1484v88q0 13 9 24t23 14l116 23v739q-98 19-116 23-14 3-23 14t-9 24v88h330v-888q99-19 117-23 13-3 22-13.5t9-24.5v-88h-478z"/><glyph unicode="í" horiz-adv-x="625" d="M65 0v88q0 14 9 24.5t22 13.5l116 23v739q-98 19-116 23-13 3-22 13.5t-9 24.5v88h330v-888q98-19 116-23 13-3 22-13.5t9-24.5v-88h-477zm132 1191l151 248q15 24 31.5 34.5t49.5 10.5h179l-239-264q-27-29-64-29h-108z"/><glyph unicode="î" horiz-adv-x="651" d="M15 1197l229 270h170l228-270h-122q-23 0-41 14-25 24-74.5 73t-73.5 74q-27-29-80-80t-69-67q-16-14-41-14h-126zm70-1197v88q0 14 9 24.5t22 13.5l116 23v739q-98 19-116 23-13 3-22 13.5t-9 24.5v88h330v-888q98-19 116-23 13-3 22-13.5t9-24.5v-88h-477z"/><glyph unicode="ï" horiz-adv-x="658" d="M35 1320q0 24 9 45t25 37q17 17 36 25 23 10 43 10 22 0 45-10 21-9 37-25 18-18 26-37 9-21 9-45 0-23-9-44-9-20-26-36-19-17-37-25-21-9-45-9-22 0-43 9-16 7-36 25-16 14-25 36-9 21-9 44zm54-1320v88q0 14 9 24.5t22 13.5l117 23v739q-99 19-117 23-13 3-22 13.5t-9 24.5v88h330v-888q98-19 116-23 14-3 23-14t9-24v-88h-478zm313 1320q0 22 10 45 9 20 24 37 14 15 37 25t44 10q22 0 45-10 21-9 37-25t25-37 9-45q0-23-9-44-9-22-25-36-19-17-37-25-21-9-45-9-23 0-44 9t-37 25q-15 15-24 36-10 23-10 44z"/><glyph unicode="ð" horiz-adv-x="1067" d="M42 477q0 95 32 182 32 86 91 150 60 65 144 102 85 38 191 38 102 0 193-44 90-44 157-133-21 142-80 237-58 94-157 162l-188-138-34 58q-2 3-3.5 7.5t-2.5 5.5q-3 6-3 13 0 23 24 38l105 74q-35 16-98 38-29 10-110 31-16 4-31 19-13 13-13 38 0 12 5 29l21 64q95-16 190-47 92-30 175-80l171 125 36-58q8-14 8-25 0-22-22-38l-100-69q62-50 113-113 48-60 86-143 37-82 56-174 20-97 20-208 0-144-32-263-31-114-95-198-63-83-156-126-94-44-217-44-104 0-187 33-87 35-151 97-63 62-101 154-37 90-37 206zm182-2q0-83 24-148 25-67 64-109 42-45 95-67 55-23 115-23 71 0 132 28 57 26 100 83 40 53 65 140 24 84 27 199-17 44-43 85-27 42-65 74-37 31-89 51-50 19-114 19-75 0-135-26-58-25-97-70-41-47-59-105-20-63-20-131z"/><glyph unicode="ñ" horiz-adv-x="1274" d="M66 0v88q0 32 30 38l117 24v738q-25 5-54.5 10.5t-43.5 8.5-19 4q-30 6-30 38v88h256q38 0 49-38l14-112q152 167 344 167 167 0 259-109 88-104 88-285v-510q99-20 117-24 32-6 32-38v-88h-331v660q0 248-218 248-152 0-281-144v-614q7-2 117-24 32-6 32-38v-88h-478zm280 1231q0 50 13 89 14 41 38 70 24 28 59 45 33 16 73 16 35 0 67-15 38-18 59-32 10-7 29-18.5t23-13.5q24-15 48-15 37 0 57 21 19 21 21 67h110q0-50-13-89-14-41-37-69-23-27-57-44-32-16-74-16-36 0-67 15-39 18-59 32-10 7-29 18.5t-23 13.5q-24 15-48 15-74 0-76-90h-114z"/><glyph unicode="ò" horiz-adv-x="1078" d="M43 519q0 121 35 221 34 99 99 168 67 71 156 108 93 38 206 38 112 0 205-38 89-37 156-108 63-67 98-168 34-98 34-221t-34-221q-35-101-98-168-65-70-156-107-90-37-205-37-116 0-206 37-91 37-156 107-65 69-99 168-35 100-35 221zm188-1q0-95 19-165 20-74 58-122 39-49 95-76 57-27 136-27 153 0 229 103t76 287q0 186-76 289t-229 103q-81 0-136-26t-95-77q-38-49-58-123-19-72-19-166zm34 966h173q33 0 50-11 16-10 31-34l153-248h-105q-19 0-35 7-9 4-27 22z"/><glyph unicode="ó" horiz-adv-x="1078" d="M44 519q0 121 35 221 35 99 99 168 67 71 156 108 93 38 206 38 112 0 205-38 89-37 156-108 63-67 98-168 34-98 34-221t-34-221q-35-101-98-168-65-70-156-107-90-37-205-37-116 0-206 37-91 37-156 107-64 69-99 168-35 100-35 221zm188-1q0-95 19-165 20-74 58-122 39-49 95-76 57-27 136-27 153 0 229 103t76 287q0 186-76 289t-229 103q-81 0-136-26t-95-77q-38-49-58-123-19-72-19-166zm196 673l152 248q15 24 31 34 17 11 49 11h179l-239-264q-17-17-28-22-16-7-35-7h-109z"/><glyph unicode="ô" horiz-adv-x="1077" d="M43 519q0 121 35 221 34 99 99 168 67 71 156 108 93 38 206 38 112 0 205-38 89-37 156-108 63-67 98-168 34-98 34-221t-34-221q-35-101-98-168-65-70-156-107-90-37-205-37-116 0-206 37-91 37-156 107-65 69-99 168-35 100-35 221zm183 678l229 270h170l228-270h-122q-23 0-41 14l-131 129-17 18-17-18-132-129q-7-5-17-9-13-5-24-5h-126zm5-679q0-95 19-165 20-74 58-122 39-49 95-76 57-27 136-27 153 0 229 103t76 287q0 186-76 289t-229 103q-81 0-136-26t-95-77q-38-49-58-123-19-72-19-166z"/><glyph unicode="õ" horiz-adv-x="1077" d="M43 519q0 121 35 221 34 99 99 168 67 71 156 108 93 38 206 38 112 0 205-38 89-37 156-108 63-67 98-168 34-98 34-221t-34-221q-35-101-98-168-65-70-156-107-90-37-205-37-116 0-206 37-91 37-156 107-65 69-99 168-35 100-35 221zm188-1q0-95 19-165 20-74 58-122 39-49 95-76 57-27 136-27 153 0 229 103t76 287q0 186-76 289t-229 103q-81 0-136-26t-95-77q-38-49-58-123-19-72-19-166zm14 713q0 50 13 89 14 41 38 70t58 45q33 16 74 16 36 0 67-15 38-18 59-32 10-7 29-18.5t23-13.5q24-15 47-15 37 0 57 21 19 21 21 67h111q0-50-13-89-14-41-37-69-23-27-57-44-32-16-75-16-36 0-67 15-35 17-58 32-10 7-28.5 18t-24.5 14q-24 15-48 15-74 0-76-90h-113z"/><glyph unicode="ö" horiz-adv-x="1077" d="M43 519q0 121 35 221 34 99 99 168 67 71 156 108 93 38 206 38 112 0 205-38 89-37 156-108 63-67 98-168 34-98 34-221t-34-221q-35-101-98-168-65-70-156-107-90-37-205-37-116 0-206 37-91 37-156 107-65 69-99 168-35 100-35 221zm188-1q0-95 19-165 20-74 58-122 39-49 95-76 57-27 136-27 153 0 229 103t76 287q0 186-76 289t-229 103q-81 0-136-26t-95-77q-38-49-58-123-19-72-19-166zm10 802q0 24 9 45t25 37q17 17 36 25 23 10 43 10 22 0 45-10 21-9 37-25 18-18 26-37 9-21 9-45 0-23-9-44-9-20-26-36-19-17-37-25-21-9-45-9-22 0-43 9-16 7-36 25-16 14-25 36-9 21-9 44zm367 0q0 24 9 45 8 18 25 37 14 16 36 25 23 10 45 10 21 0 44-10 21-9 37-25t25-37q10-23 10-45 0-21-10-44-9-22-25-36-19-17-37-25-21-9-44-9-24 0-45 9-19 8-36 25t-25 36q-9 21-9 44z"/><glyph unicode="÷" horiz-adv-x="1063" d="M39 618v139h981v-139h-981zm362-296q0 23 10 50 7 20 27 41 13 15 40 27 24 11 50 11t50-11q26-12 41-27 16-16 27-41 10-23 10-50 0-30-10-51-11-24-28-41-18-18-40-27t-50-9-50 9q-24 10-40 27-19 21-27 41-10 25-10 51zm0 729q0 23 10 50 7 20 27 41 13 15 40 27 24 11 50 11t50-11 40-27q18-18 28-41t10-50q0-30-10-51-11-24-28-41-18-18-40-27t-50-9-50 9q-24 10-40 27-19 21-27 41-10 25-10 51z"/><glyph unicode="ø" horiz-adv-x="1101" d="M41-78l148 201q-66 69-103 170-36 99-36 226 0 121 35 221 35 99 99 168 67 71 156 108 93 38 206 38 79 0 150-20 70-20 126-55l70 93q23 30 37 40 15 11 49 11h92l-161-218q62-68 97-167 33-93 33-219 0-123-34-221-35-101-98-168-65-70-156-107-90-37-205-37-81 0-145 17-69 18-122 50l-57-76q-21-27-53-42-29-13-59-13h-69zm186 596q0-162 61-263l446 604q-75 57-188 57-77 0-137-27-58-26-100-79-39-50-61-125-21-73-21-167zm139-346q71-49 180-49 76 0 135 27 60 28 100 78 39 50 61 125 20 70 20 165 0 153-53 253z"/><glyph unicode="ù" horiz-adv-x="1239" d="M28 949v88h329v-661q0-116 55-182 54-65 163-65 156 0 281 143v616q-3 1-116 23-31 6-31 38v88h329v-887q99-20 117-24 32-6 32-38v-88h-257q-38 0-49 38l-15 112q-150-166-344-166-167 0-259 107-88 101-88 285v512q-25 5-54.5 10.5t-43.5 8.5-19 4q-30 6-30 38zm312 535h173q33 0 50-11 16-10 31-34l152-248h-104q-19 0-35 7-9 4-27 22z"/><glyph unicode="ú" horiz-adv-x="1238" d="M28 949v88h329v-661q0-116 55-182 54-65 163-65 156 0 281 143v616q-3 1-116 23-31 6-31 38v88h329v-887q99-20 117-24 32-6 32-38v-88h-257q-38 0-49 38l-15 112q-150-166-344-166-167 0-259 107-88 101-88 285v512q-25 5-54.5 10.5t-43.5 8.5-19 4q-30 6-30 38zm474 242l151 248q14 23 32 34 17 11 49 11h178l-238-264q-17-17-28-22-16-7-36-7h-108z"/><glyph unicode="û" horiz-adv-x="1238" d="M28 949v88h329v-661q0-116 55-182 54-65 163-65 156 0 281 143v616q-3 1-116 23-31 6-31 38v88h329v-887q99-20 117-24 32-6 32-38v-88h-257q-38 0-49 38l-15 112q-150-166-344-166-167 0-259 107-88 101-88 285v512q-25 5-54.5 10.5t-43.5 8.5-19 4q-30 6-30 38zm273 248l228 270h170l229-270h-122q-23 0-41 14l-131 129-18 18-16-18-132-129q-7-5-17-9-13-5-24-5h-126z"/><glyph unicode="ü" horiz-adv-x="1238" d="M28 949v88h329v-661q0-116 55-182 54-65 163-65 156 0 281 143v616q-3 1-116 23-31 6-31 38v88h329v-887q99-20 117-24 32-6 32-38v-88h-257q-38 0-49 38l-15 112q-150-166-344-166-167 0-259 107-88 101-88 285v512q-25 5-54.5 10.5t-43.5 8.5-19 4q-30 6-30 38zm287 371q0 22 10 45 9 21 25 37 17 17 36 25 23 10 43 10 22 0 45-10 21-9 37-25 18-18 26-37 9-21 9-45 0-23-9-44-9-20-26-36-19-17-37-25-21-9-45-9-22 0-43 9-16 7-36 25-16 14-25 36-10 23-10 44zm368 0q0 24 9 45 8 18 25 37 14 16 36 25 23 10 45 10 21 0 44-10 21-9 37-25t25-37 9-45q0-23-9-44-9-22-25-36-19-17-37-25-21-9-44-9-24 0-45 9-19 8-36 25t-25 36q-9 21-9 44z"/><glyph unicode="ý" horiz-adv-x="1217" d="M28 949v88h465v-88q0-32-31-38-10-3-113-22l231-543q12-30 27-91 15 50 31 92l224 542q-28 6-65.5 13t-46.5 9q-29 6-29 38v88h460v-88q0-32-31-38-3 0-9.5-1.5l-19.5-4.5-25-5q-13-3-25.5-5t-20-3.5-8.5-1.5l-515-1196q-21-45-65-45h-135l189 411-364 833q-21 4-42.5 8t-34 6.5l-17.5 3.5q-30 6-30 38zm480 242l151 248q14 23 32 34 17 11 49 11h179l-239-264q-17-17-28-22-16-7-36-7h-108z"/><glyph unicode="þ" horiz-adv-x="1072" d="M112-351v1859h182v-621q64 76 148 121 86 46 192 46 91 0 162-34 75-36 124-101 51-68 78-166 28-103 28-228 0-111-31-213-29-97-88-171-57-72-141-114-82-41-187-41-99 0-165 35-68 36-120 100v-472h-182zm182 601q50-68 110-95 62-28 134-28 144 0 222 103 78 104 78 295 0 102-18 174-19 75-52 120-36 48-83 68-50 21-112 21-88 0-156-41-65-39-123-115v-502z"/><glyph unicode="ÿ" horiz-adv-x="1217" d="M28 949v88h465v-88q0-32-31-38-10-3-113-22l231-543q12-30 27-91 15 50 31 92l224 542q-28 6-65.5 13t-46.5 9q-29 6-29 38v88h460v-88q0-32-31-38-3 0-9.5-1.5l-19.5-4.5-25-5q-13-3-25.5-5t-20-3.5-8.5-1.5l-515-1196q-21-45-65-45h-135l189 411-364 833q-21 4-42.5 8t-34 6.5l-17.5 3.5q-30 6-30 38zm294 371q0 24 9 45t25 37q17 17 36 25 23 10 43 10 22 0 45-10 21-9 37-25 18-18 26-37 9-21 9-45 0-23-9-44-9-20-26-36-19-17-37-25-21-9-45-9-22 0-43 9-16 7-36 25-16 14-25 36-9 21-9 44zm367 0q0 24 9 45 8 18 25 37 14 16 36 25 23 10 45 10 21 0 44-10 21-9 37-25t25-37q10-23 10-45 0-21-10-44-9-22-25-36-19-17-37-25-21-9-44-9-24 0-45 9-19 8-36 25t-25 36q-9 21-9 44z"/><glyph unicode="Œ" horiz-adv-x="2171" d="M47 733q0 164 47 303 46 136 133 237 181 211 471 211 164 0 295-69t216-193v245h881v-354h-99q-35 0-42 36-4 26-15 157h-549v-488h541v-155h-541v-501h550q11 129 14 145 8 35 42 35h99v-342h-881v246q-85-123-216-192-129-68-285-68-158 0-275 54-122 56-206 154-87 101-133 237-47 139-47 302zm203 0q0-135 33-243 33-107 95-183t148-116q84-39 193-39t193 39 147 116q61 74 94 183 33 108 33 243t-33 243-94 184-147 116q-88 41-193 41t-193-41q-87-41-148-116-63-78-95-184-33-108-33-243z"/><glyph unicode="œ" horiz-adv-x="1716" d="M46 519q0 122 33 221 33 100 94 168 64 72 146 108 87 38 190 38 133 0 231-62t152-175q51 107 147 172 97 65 232 65 84 0 156-33 74-34 125-95 54-65 83-152 30-90 30-205 0-40-8-56-7-15-34-15h-642q5-96 28-163 24-68 63-115 38-45 93-68t120-23q64 0 108 16 48 18 78 34 32 18 56 35 20 15 42 15 23 0 34-17l52-67q-36-42-79-71-45-30-95-49-58-22-105-30-54-9-107-9-122 0-220 59-97 58-154 180-56-114-154-177-97-62-239-62-104 0-187 37-82 36-143 107-60 69-93 168t-33 221zm188-1q0-183 71-287 70-103 214-103 143 0 212 103 70 105 70 287 0 92-18 166-18 75-52 123-34 49-88 77-51 26-124 26-75 0-126-26t-88-77q-34-47-53-123-18-74-18-166zm749 93h520q0 69-16 124-17 59-46 98-31 42-75 64-46 23-101 23-63 0-112-21-48-20-84-61-36-40-57-98-22-59-29-129z"/><glyph unicode="Ÿ" horiz-adv-x="1434" d="M39 1379v88h493v-88q0-32-31-38-113-23-116-23l274-467q32-55 60-130 25 72 58 130l275 467q-5 1-117 23-31 6-31 38v88h494v-88q0-32-26-37-26-4-108-24l-448-734v-434q15-3 117-24 31-6 31-38v-88h-493v88q0 32 31 38l116 24v434l-446 734q-85 20-104 24-29 6-29 37zm349 327q0 24 9 45 8 19 25 36 15 15 35 24 22 10 42 10 21 0 44-10t37-24q15-15 24-36t9-45-9-43q-9-20-24-35-14-14-37-24-21-9-44-9t-42 9q-20 9-35 24-16 16-25 35t-9 43zm436 0q0 24 9 45t24 36 36 24q23 10 44 10 20 0 43-10 21-9 36-24t24-36q10-23 10-45 0-21-10-43-9-20-24-35t-36-24-43-9q-23 0-44 9t-36 24-24 35q-9 19-9 43z"/><glyph unicode="ˆ" horiz-adv-x="770" d="M72 1197l228 270h170l228-270h-121q-23 0-41 14l-132 129-17 18-16-18-132-129q-6-5-18-9-13-5-23-5h-126z"/><glyph unicode="˜" horiz-adv-x="768" d="M87 1231q0 50 13 89 14 41 38 70 24 28 59 45 33 16 73 16 35 0 67-15 39-18 59-32 11-7 29.5-18.5t22.5-13.5q24-15 48-15 36 0 56 21 19 21 21 67h111q0-50-13-89-14-41-37-69-23-27-57-44-32-16-74-16-35 0-67 15-39 18-59 32-11 7-29.5 18.5t-22.5 13.5q-24 15-49 15-74 0-75-90h-114z"/><glyph horiz-adv-x="940"/><glyph horiz-adv-x="1881"/><glyph horiz-adv-x="940"/><glyph horiz-adv-x="1881"/><glyph horiz-adv-x="627"/><glyph horiz-adv-x="470"/><glyph horiz-adv-x="313"/><glyph horiz-adv-x="313"/><glyph horiz-adv-x="235"/><glyph horiz-adv-x="376"/><glyph horiz-adv-x="104"/><glyph unicode="‐" horiz-adv-x="699" d="M97 537v154h506v-154h-506z"/><glyph unicode="‑" horiz-adv-x="699" d="M97 537v154h506v-154h-506z"/><glyph unicode="‒" horiz-adv-x="699" d="M97 537v154h506v-154h-506z"/><glyph unicode="–" horiz-adv-x="1012" d="M97 538v133h819v-133h-819z"/><glyph unicode="—" horiz-adv-x="1555" d="M97 538v133h1362v-133h-1362z"/><glyph unicode="‘" horiz-adv-x="390" d="M82 1234q0 93 45 177t128 155l56-35q8-5 11-11t3-13q0-13-11-24-15-20-31-43-18-28-28-48-10-22-19-53-8-29-8-58 0-30 10-68 9-34 33-73 8-13 8-24 0-24-28-35l-112-45q-29 48-43 99t-14 99z"/><glyph unicode="’" horiz-adv-x="389" d="M70 1073q0 15 10 25 19 22 32 42 15 22 27 48 13 27 20 53 7 25 7 58 0 30-10 68-9 35-33 74-7 11-7 22 0 24 27 36l112 45q30-49 43-98 13-48 13-98 0-94-45-178-45-83-127-155l-56 35q-8 5-11 11-2 4-2 12z"/><glyph unicode="‚" horiz-adv-x="404" d="M79-224q0 14 10 24 16 19 32 43 15 23 27 48 13 27 20 53 7 25 7 58 0 30-10 68-9 34-33 73-7 11-7 23 0 24 28 36l111 45q29-48 43-99t14-98q0-91-46-177-46-85-127-156l-56 35q-8 5-11 11-2 4-2 13z"/><glyph unicode="“" horiz-adv-x="701" d="M82 1234q0 93 45 177t128 155l56-35q8-5 11-11t3-13q0-13-11-24-15-20-31-43-18-28-28-48-10-22-19-53-8-29-8-58 0-30 10-68 9-34 33-73 8-13 8-24 0-24-28-35l-112-45q-29 48-43 99t-14 99zm311 0q0 91 46 177t127 155l57-35q6-4 10-11 3-6 3-13 0-14-10-24-22-28-32-43-18-28-28-48-10-22-19-53-7-25-7-58t9-68q8-31 34-73 7-11 7-24 0-24-28-35l-111-45q-31 51-44 99-14 51-14 99z"/><glyph unicode="”" horiz-adv-x="700" d="M70 1073q0 15 10 25 19 22 32 42 15 22 27 48 13 27 20 53 7 25 7 58 0 30-10 68-9 35-33 74-7 11-7 22 0 24 27 36l112 45q30-49 43-98 13-48 13-98 0-94-45-178-45-83-127-155l-56 35q-8 5-11 11-2 4-2 12zm311 0q0 15 10 25 19 22 32 42 18 28 28 48 10 22 19 53 7 25 7 58 0 30-10 68-9 35-33 74-7 11-7 22 0 24 28 36l111 45q30-49 43-98 14-51 14-98 0-92-46-178-46-85-126-155l-57 35q-8 5-11 11-2 4-2 12z"/><glyph unicode="„" horiz-adv-x="715" d="M79-224q0 14 10 24 16 19 32 43 15 23 27 48 13 27 20 53 7 25 7 58 0 30-10 68-9 34-33 73-7 11-7 23 0 24 28 36l111 45q29-48 43-99t14-98q0-91-46-177-46-85-127-156l-56 35q-8 5-11 11-2 4-2 13zm311 0q0 14 10 24 16 19 32 43 18 28 28 48 10 22 19 53 7 25 7 58 0 34-9 68-8 31-34 73-7 11-7 23 0 24 28 36l111 45q29-48 43-99t14-98q0-91-46-177-47-87-126-156l-57 35q-6 4-10 11-3 6-3 13z"/><glyph unicode="•" horiz-adv-x="914" d="M78 609q0 80 30 149 31 71 81 121 52 52 121 82t147 30q79 0 148-30 71-31 122-82 50-50 81-121t31-149q0-77-31-148-30-69-81-120-49-49-122-81-71-31-148-31-76 0-147 31t-121 81q-51 51-81 120t-30 148z"/><glyph unicode="…" horiz-adv-x="1485" d="M91 113q0 23 10 50 8 21 26 41 14 15 41 27 25 11 50 11t50-11 41-27q19-19 27-41 10-27 10-50 0-26-10-51-9-22-27-40-20-20-41-28-24-9-50-9t-50 9q-23 9-41 28t-26 40q-10 25-10 51zm526 0q0 23 10 50 7 20 27 41 15 16 40 27t50 11q26 0 51-11t41-27q19-19 27-41 9-24 9-50 0-29-9-51t-27-40q-20-20-41-28-24-9-51-9-26 0-50 9-22 8-40 28-20 21-27 40-10 25-10 51zm528 0q0 23 10 50 8 21 26 41 14 15 41 27 25 11 50 11t50-11 41-27q19-19 27-41 10-23 10-50 0-26-10-51-9-22-27-40-20-20-41-28-24-9-50-9t-50 9q-23 9-41 28t-26 40q-10 25-10 51z"/><glyph horiz-adv-x="376"/><glyph unicode="‹" horiz-adv-x="483" d="M67 530v24l255 398 59-28q13-7 21-19 8-13 8-24 0-17-11-34l-162-267q-17-27-29-38 17-17 29-37l162-267q5-8 8-18 3-9 3-17 0-28-29-42l-59-29z"/><glyph unicode="›" horiz-adv-x="487" d="M79 203q0 18 10 35l163 267q15 27 28 37-16 16-28 38l-163 267q-10 17-10 35 0 28 29 42l59 28 255-398v-24l-255-398-59 29q-29 14-29 42z"/><glyph horiz-adv-x="470"/><glyph unicode="€" horiz-adv-x="1235" d="M60 566v105h138q-1 10-1 30v74q0 13 2 41h-139v105h151q21 130 69 233 47 102 121 177 72 73 166 112 95 39 205 39 138 0 235-51 95-50 169-142l-63-69q-8-10-16-16-9-7-23-7-16 0-36 20-17 17-51 43-30 23-81 43-48 19-127 19-149 0-248-102t-132-299h560v-57q0-19-13-33-14-15-39-15h-520q-1-14-1-41 0-7-.5-21t-.5-21v-32q0-20 1-30h478v-58q0-18-14-32-15-15-39-15h-416q29-212 127-316 100-106 248-106 53 0 97 11t73 27q31 17 53 36 23 20 38 35 20 20 29 27 14 11 25 11 7 0 15-4 6-3 14-11l77-71q-72-105-178-163-104-57-253-57-121 0-214 40-96 41-165 116t-114 183q-44 106-61 242h-146z"/><glyph unicode="™" horiz-adv-x="1451" d="M67 1360v107h497v-107h-184v-499h-129v499h-184zm596-499v606h108q18 0 25-4 6-4 18-17l173-310q4-10 12-28 6-13 10-27 1 4 2.5 8.5t3.5 10 3 8.5q4 12 12 28l173 310q7 10 18 17 7 4 24 4h109v-606h-113v374l9 77-187-344q-14-29-45-29h-19q-32 0-44 29l-188 341 8-74v-374h-112z"/><glyph unicode="◼" horiz-adv-x="1038" d="M0 0v1039h1039v-1039h-1039z"/></font>
</defs>
</svg>
